<?xml version="1.0" encoding="UTF-8" standalone="no"?>
<svg
   xmlns:dc="http://purl.org/dc/elements/1.1/"
   xmlns:cc="http://creativecommons.org/ns#"
   xmlns:rdf="http://www.w3.org/1999/02/22-rdf-syntax-ns#"
   xmlns:svg="http://www.w3.org/2000/svg"
   xmlns="http://www.w3.org/2000/svg"
   viewBox="0 0 604.94257 640.59308"
   height="640.59308"
   width="604.94257"
   xml:space="preserve"
   id="svg2"
   version="1.1"><metadata
     id="metadata8"><rdf:RDF><cc:Work
         rdf:about=""><dc:format>image/svg+xml</dc:format><dc:type
           rdf:resource="http://purl.org/dc/dcmitype/StillImage" /><dc:title></dc:title></cc:Work></rdf:RDF></metadata><defs
     id="defs6"><clipPath
       id="clipPath18"
       clipPathUnits="userSpaceOnUse"><path
         style="clip-rule:evenodd"
         id="path16"
         d="M 0,0 H 567 V 567 H 0 Z" /></clipPath></defs><g
     transform="matrix(1.3333333,0,0,-1.3333333,-75.457431,682.53332)"
     id="g10"><path
       id="path24"
       style="fill:#1f567d;fill-opacity:1;fill-rule:evenodd;stroke:none"
       d="m 283.4,511.9 -5.8,-0.1 -5.8,-0.2 -5.8,-0.4 -5.8,-0.5 -5.6,-0.6 -5.6,-0.8 -5.6,-1 -5.7,-1.1 -5.4,-1.2 -5.5,-1.3 -5.4,-1.4 -5.4,-1.6 -5.3,-1.8 -5.2,-1.8 -5.2,-1.9 -5.1,-2.2 -5,-2.1 -5.1,-2.4 -4.9,-2.4 -4.8,-2.6 -4.8,-2.7 -4.8,-2.8 -4.5,-2.9 -4.6,-3 -4.6,-3.1 -4.3,-3.2 -4.3,-3.3 -4.3,-3.5 -4.1,-3.4 -4.1,-3.6 -4,-3.8 -3.9,-3.8 -3.8,-3.8 -3.6,-4 -3.8,-4.1 -3.4,-4.2 -3.4,-4.2 -3.4,-4.3 -3.2,-4.4 -3.1,-4.6 -3,-4.6 -2.9,-4.5 -2.8,-4.7 -2.6,-4.8 -2.7,-4.9 -2.4,-5 -2.4,-4.9 -2.1,-5.1 -2.1,-5 -2,-5.2 -1.8,-5.2 -1.8,-5.3 -1.6,-5.4 -1.4,-5.4 -1.3,-5.4 -1.2,-5.6 -1.1,-5.6 -1,-5.5 -0.7,-5.7 -0.7,-5.7 -0.5,-5.8 -0.4,-5.8 -0.2,-5.7 v -5.9 -5.9 l 0.2,-5.7 0.4,-5.8 0.5,-5.8 0.7,-5.7 0.7,-5.7 1,-5.6 1.1,-5.5 1.2,-5.6 1.3,-5.3 1.4,-5.5 1.6,-5.3 1.8,-5.3 1.8,-5.3 2,-5.2 2.1,-5.1 2.1,-5.1 2.4,-4.9 2.4,-4.9 2.7,-4.9 2.6,-4.8 2.8,-4.7 2.9,-4.7 3,-4.6 3.1,-4.4 3.2,-4.5 3.4,-4.3 3.4,-4.2 3.4,-4.2 3.8,-4 3.6,-4 3.8,-3.9 3.9,-3.8 4,-3.7 4.1,-3.6 4.1,-3.5 4.3,-3.4 4.2,-3.4 42.6,56.7 -0.1,0.2 -5.9,4.5 -5.6,4.9 -5.4,5.2 -5.2,5.4 -4.9,5.8 -4.7,5.8 -4.3,6.2 -4.1,6.2 -3.7,6.6 -1.8,3.3 -1.7,3.4 -1.6,3.4 -1.5,3.5 -1.5,3.6 -1.3,3.5 -1.3,3.6 -1.2,3.7 -1.1,3.6 -1,3.7 -0.9,3.8 -0.9,3.8 -0.7,3.8 -0.6,3.8 -0.6,3.9 -0.3,3.9 -0.4,4 -0.2,4 -0.3,3.9 v 4.1 4.1 l 0.3,3.9 0.2,4 0.4,4 0.3,3.8 0.6,4 0.6,3.8 0.7,3.9 0.9,3.7 0.9,3.8 1,3.7 1.1,3.6 1.2,3.8 1.3,3.6 1.3,3.4 1.5,3.6 1.5,3.5 1.6,3.4 1.7,3.3 1.8,3.4 3.7,6.6 4.1,6.3 4.3,6 4.7,5.9 4.9,5.6 5.2,5.6 5.4,5.1 5.6,4.8 5.9,4.7 6.1,4.3 6.4,4.1 6.4,3.7 3.4,1.8 3.4,1.7 3.4,1.6 3.5,1.5 3.5,1.5 3.6,1.3 3.6,1.3 3.6,1.2 3.7,1.1 3.7,0.9 3.8,1 3.7,0.9 3.9,0.7 3.7,0.6 4,0.6 3.8,0.3 4,0.4 4,0.2 4,0.3 h 4 4.1 l 3.9,-0.3 4,-0.2 4,-0.4 3.9,-0.3 3.9,-0.6 3.8,-0.6 3.8,-0.7 3.9,-0.9 3.7,-1 3.7,-0.9 3.7,-1.1 3.6,-1.2 3.6,-1.3 3.6,-1.3 3.5,-1.5 3.5,-1.5 3.5,-1.6 3.3,-1.7 3.4,-1.8 6.5,-3.7 6.4,-4.1 6.1,-4.3 5.8,-4.7 5.7,-4.8 5.4,-5.1 5.2,-5.6 4.9,-5.6 4.5,-5.9 4.5,-6 3.9,-6.3 3.9,-6.6 1.7,-3.4 1.6,-3.3 1.7,-3.4 1.5,-3.5 1.4,-3.6 1.5,-3.4 1.1,-3.6 1.2,-3.8 1.1,-3.6 1.1,-3.7 0.8,-3.8 0.9,-3.7 0.7,-3.9 0.7,-3.8 0.5,-4 0.5,-3.8 0.3,-4 0.3,-4 0.1,-3.9 0.1,-4.1 -0.1,-4.1 -0.1,-3.9 -0.3,-4 -0.3,-4 -0.5,-3.9 -0.5,-3.9 -0.7,-3.8 -0.7,-3.8 -0.9,-3.8 -0.8,-3.8 -1.1,-3.7 -1.1,-3.6 -1.2,-3.7 -1.1,-3.6 -1.5,-3.5 -1.4,-3.6 -1.5,-3.5 -1.7,-3.4 -1.6,-3.4 -1.7,-3.3 -3.9,-6.6 -3.9,-6.2 -4.5,-6.2 -4.5,-5.8 -4.9,-5.8 -5.2,-5.4 -5.4,-5.2 -5.7,-4.9 -5.8,-4.5 -0.1,-0.1 42.5,-56.8 4.3,3.4 4.2,3.4 4.2,3.5 4,3.6 4,3.7 4,3.8 3.7,3.9 3.7,4 3.6,4 3.6,4.2 3.4,4.2 3.4,4.3 3.1,4.5 3.1,4.4 3,4.6 2.9,4.7 2.8,4.7 2.7,4.8 2.5,4.9 2.5,4.9 2.3,4.9 2.3,5.1 2,5.1 2,5.2 1.9,5.3 1.7,5.3 1.5,5.3 1.6,5.5 1.3,5.3 1.2,5.6 1.1,5.5 0.8,5.6 0.9,5.7 0.5,5.7 0.6,5.8 0.4,5.8 0.1,5.7 0.1,5.9 -0.1,5.9 -0.1,5.7 -0.4,5.8 -0.6,5.8 -0.5,5.7 -0.9,5.7 -0.8,5.5 -1.1,5.6 -1.2,5.6 -1.3,5.4 -1.6,5.4 -1.5,5.4 -1.7,5.3 -1.9,5.2 -2,5.2 -2,5 -2.3,5.1 -2.3,4.9 -2.5,5 -2.5,4.9 -2.7,4.8 -2.8,4.7 -2.9,4.5 -3,4.6 -3.1,4.6 -3.1,4.4 -3.4,4.3 -3.4,4.2 -3.6,4.2 -3.6,4.1 -3.7,4 -3.7,3.8 -4,3.8 -4,3.8 -4,3.6 -4.2,3.4 -4.2,3.5 -4.3,3.3 -4.5,3.2 -4.4,3.1 -4.6,3 -4.7,2.9 -4.7,2.8 -4.8,2.7 -4.8,2.6 -4.9,2.4 -5,2.4 -5.1,2.1 -5.1,2.2 -5.2,1.9 -5.3,1.8 -5.3,1.8 -5.2,1.6 -5.4,1.4 -5.6,1.3 -5.5,1.2 -5.5,1.1 -5.6,1 -5.7,0.8 -5.7,0.6 -5.7,0.5 -5.8,0.4 -5.8,0.2 z m -226.7,0 z M 510.3,103.3 Z" /><path
       transform="matrix(0.75000002,0,0,-0.75000002,56.593075,511.9)"
       id="path26"
       d="m 240.13867,203.35938 -0.52929,0.37304 -4.4004,3.4668 -4.40039,3.73437 -4,3.86719 -3.73242,4.13281 -3.73437,4.26563 -3.33203,4.40039 -3.20118,4.66797 -2.93359,4.93164 -2.66602,4.93359 -2.40039,5.06641 -2.13281,5.20117 -1.86719,5.33203 -1.59961,5.4668 -1.19921,5.4668 -1.06641,5.60156 -0.80078,5.59961 -0.40039,5.59961 -0.13281,5.73242 0.13281,5.60156 0.12695,1.33399 a 65.9205,66.053501 0 0 1 3.9707,-0.14063 65.9205,66.053501 0 0 1 65.91993,66.05274 65.9205,66.053501 0 0 1 -5.47461,26.28515 l 3.72461,1.66797 5.19921,1.86719 5.4668,1.59961 5.4668,1.33398 5.4668,1.06641 5.46679,0.66601 5.59961,0.40039 5.59961,0.13282 v 0.13281 l 5.59961,-0.13281 5.4668,-0.53321 5.60156,-0.66601 5.4668,-1.06641 5.46484,-1.33398 5.33398,-1.59961 5.20118,-1.86719 1.70312,-0.69922 a 65.9205,66.053501 0 0 1 -5.96094,-27.2539 65.9205,66.053501 0 0 1 65.91993,-66.05274 65.9205,66.053501 0 0 1 6.49414,0.32617 l 0.10937,-1.51953 0.13281,-5.60156 -0.13281,-5.73242 -0.40039,-5.59961 -0.79883,-5.59961 -0.93359,-5.60156 -1.33399,-5.4668 -1.5996,-5.4668 -1.86719,-5.33203 -2.13281,-5.20117 -2.4004,-5.06641 -2.66601,-4.93359 -2.93359,-4.93164 -3.06641,-4.66797 -3.4668,-4.40039 -3.59961,-4.26563 -3.86718,-4.13281 -4,-3.86719 -4.26758,-3.73437 -4,-3.15234 a 65.9205,66.053501 0 0 1 -62.50196,45.23046 65.9205,66.053501 0 0 1 -62.70117,-45.91796 z"
       style="fill:#7ca7c6;fill-opacity:1;fill-rule:evenodd;stroke:none;stroke-width:1.33333325" /><path
       id="path28"
       style="fill:#ffffff;fill-opacity:1;fill-rule:evenodd;stroke:none"
       d="m 290,289.1 18.3,34.6 -43.7,-34.6 h 13 l -18.3,-34.7 43.7,34.7 z m -30.7,34.6 z m 49,-69.3 z" /><g
       id="g36"><path
         id="path38"
         style="fill:none;stroke:#ffffff;stroke-width:7.98058987;stroke-linecap:butt;stroke-linejoin:round;stroke-miterlimit:10;stroke-dasharray:none;stroke-opacity:1"
         d="M 161,284.4 Z" /></g><g
       id="g40"><path
         id="path42"
         style="fill:none;stroke:#ffffff;stroke-width:7.98058987;stroke-linecap:butt;stroke-linejoin:round;stroke-miterlimit:10;stroke-dasharray:none;stroke-opacity:1"
         d="M 251.9,193.3 Z" /></g><ellipse
       style="display:inline;fill:#1f567d;fill-opacity:1;stroke-width:0.61836034"
       cx="206.45"
       cy="-238.89999"
       id="ellipse5092"
       transform="scale(1,-1)"
       rx="41.489182"
       ry="41.514038" /><path
       id="path44"
       style="fill:#ffffff;fill-opacity:1;fill-rule:evenodd;stroke:none"
       d="m 221.9,266.8 -3.7,-4 c 0.1,-0.1 5.1,-4.7 5.2,-10.8 0.1,-3.9 -1.7,-7.6 -5.3,-11.2 -4.7,-4.7 -6.9,-9.8 -6.8,-15.1 0.2,-8.6 6.7,-14.5 6.9,-14.7 l 3.7,4.1 c -0.1,0 -5,4.6 -5.2,10.8 -0.1,3.7 1.7,7.5 5.3,11.1 4.7,4.7 7,9.8 6.9,15.2 -0.3,8.5 -6.7,14.4 -7,14.6 z m -10.7,0 z M 229,210.9 Z" /><path
       id="path46"
       style="fill:#ffffff;fill-opacity:1;fill-rule:evenodd;stroke:none"
       d="m 215.2,252.2 c -0.2,8.5 -6.7,14.4 -6.9,14.6 l -3.7,-4 c 0.1,-0.1 5,-4.7 5.2,-10.8 0.1,-3.8 -1.7,-7.6 -5.3,-11.2 -4.7,-4.6 -7,-9.7 -6.8,-15.1 0.2,-8.6 6.7,-14.5 6.9,-14.7 l 3.7,4.1 c -0.1,0 -5,4.6 -5.2,10.8 -0.1,3.7 1.7,7.5 5.3,11.1 4.7,4.7 6.9,9.8 6.8,15.2 z m -17.7,14.6 z m 17.8,-55.9 z" /><path
       id="path48"
       style="fill:#ffffff;fill-opacity:1;fill-rule:evenodd;stroke:none"
       d="m 201.6,252.2 c -0.2,8.5 -6.7,14.4 -7,14.6 l -3.6,-4 c 0,-0.1 5,-4.6 5.2,-10.8 0,-3.8 -1.7,-7.6 -5.4,-11.2 -4.7,-4.7 -7,-9.8 -6.8,-15.1 0.2,-8.6 6.7,-14.5 7,-14.8 l 3.6,4.2 c 0,0 -5,4.6 -5.2,10.8 -0.1,3.8 1.7,7.5 5.3,11.1 4.7,4.7 7.1,9.8 6.9,15.2 z m -17.8,14.6 z m 18,-55.9 z" /><g
       id="g56"><path
         id="path58"
         style="fill:none;stroke:#ffffff;stroke-width:7.98058987;stroke-linecap:butt;stroke-linejoin:round;stroke-miterlimit:10;stroke-dasharray:none;stroke-opacity:1"
         d="M 312.7,284.2 Z" /></g><g
       id="g60"><path
         id="path62"
         style="fill:none;stroke:#ffffff;stroke-width:7.98058987;stroke-linecap:butt;stroke-linejoin:round;stroke-miterlimit:10;stroke-dasharray:none;stroke-opacity:1"
         d="M 403.6,193.1 Z" /></g><ellipse
       ry="41.514038"
       rx="41.489182"
       transform="scale(1,-1)"
       id="ellipse5090"
       cy="-238.64999"
       cx="358.14999"
       style="display:inline;fill:#1f567d;fill-opacity:1;stroke-width:0.61836034" /><path
       id="path64"
       style="fill:#ffffff;fill-opacity:1;fill-rule:evenodd;stroke:none"
       d="m 357.8,269.4 c 0,0 -36.5,-51.9 0,-61.5 37.2,9.6 0,61.5 0,61.5 z m 0,-53 c -14.7,3.8 0,24.9 0,24.9 0,0 15.1,-21.1 0,-24.9 z m -36.5,53 z M 395,207.9 Z" /><g
       id="g72"><path
         id="path74"
         style="fill:none;stroke:#ffffff;stroke-width:7.98058987;stroke-linecap:butt;stroke-linejoin:round;stroke-miterlimit:10;stroke-dasharray:none;stroke-opacity:1"
         d="M 238.3,420.1 Z" /></g><g
       id="g76"><path
         id="path78"
         style="fill:none;stroke:#ffffff;stroke-width:7.98058987;stroke-linecap:butt;stroke-linejoin:round;stroke-miterlimit:10;stroke-dasharray:none;stroke-opacity:1"
         d="M 329.3,329 Z" /></g><ellipse
       style="display:inline;fill:#1f567d;fill-opacity:1;stroke-width:0.61836034"
       cx="283.79999"
       cy="-374.60001"
       id="ellipse4240"
       transform="scale(1,-1)"
       rx="41.489182"
       ry="41.514038" /><path
       id="path80"
       style="fill:#ffffff;fill-opacity:1;fill-rule:evenodd;stroke:none"
       d="m 311.2,381.3 c 0,1.8 -1.5,3.4 -3.4,3.4 h -3.6 l -2.9,7.9 c -0.4,1.2 -1.7,2.5 -2.9,2.9 0,0 -4,1.5 -14.6,1.5 -10.6,0 -14.7,-1.5 -14.7,-1.5 -1.1,-0.4 -2.4,-1.7 -2.9,-2.9 l -2.9,-7.9 h -3.5 c -1.9,0 -3.4,-1.6 -3.4,-3.4 0,-1.8 1.5,-3.3 3.4,-3.3 h 1 l -0.8,-2.5 c -0.4,-1.1 -0.8,-3.1 -0.8,-4.3 v -14.5 c 0,-2.5 2,-4.5 4.5,-4.5 2.4,0 4.5,2 4.5,4.5 v 2.2 h 31.3 v -2.2 c 0,-2.5 1.9,-4.5 4.4,-4.5 2.4,0 4.5,2 4.5,4.5 v 14.5 c 0,1.2 -0.4,3.2 -0.8,4.3 l -0.8,2.5 h 1 c 1.9,0 3.4,1.5 3.4,3.3 z m -40.2,10 h 25.6 l 3.4,-10 h -32.4 z m -4,-23.4 c -1.8,0 -3.3,1.5 -3.3,3.3 0,1.9 1.5,3.4 3.3,3.4 1.9,0 3.4,-1.5 3.4,-3.4 0,-1.8 -1.5,-3.3 -3.4,-3.3 z m 33.5,0 c -1.8,0 -3.3,1.5 -3.3,3.3 0,1.9 1.5,3.4 3.3,3.4 1.9,0 3.4,-1.5 3.4,-3.4 0,-1.8 -1.5,-3.3 -3.4,-3.3 z M 256.4,397 Z m 54.8,-44.8 z" /><g
       id="g82"><text
         id="text86"
         style="font-variant:normal;font-weight:900;font-size:72px;font-family:Roboto;-inkscape-font-specification:Roboto-Black;writing-mode:lr-tb;fill:#000000;fill-opacity:1;fill-rule:nonzero;stroke:none"
         transform="matrix(1,0,0,-1,215.9,32.2)"><tspan
           id="tspan84"
           y="0"
           x="0 39.240002 88.272003">eGo</tspan></text>
</g><g
       id="g88"><text
         id="text92"
         style="font-variant:normal;font-weight:900;font-size:41.79999924px;font-family:Roboto;-inkscape-font-specification:Roboto-Black;writing-mode:lr-tb;fill:#000000;fill-opacity:1;fill-rule:nonzero;stroke:none"
         transform="matrix(1,0,0,-1,344.7,53.8)"><tspan
           id="tspan90"
           y="0"
           x="0">n</tspan></text>
</g></g></svg>