<?xml version="1.0" encoding="UTF-8" standalone="no"?>
<svg
   xmlns:dc="http://purl.org/dc/elements/1.1/"
   xmlns:cc="http://creativecommons.org/ns#"
   xmlns:rdf="http://www.w3.org/1999/02/22-rdf-syntax-ns#"
   xmlns:svg="http://www.w3.org/2000/svg"
   xmlns="http://www.w3.org/2000/svg"
   id="svg8"
   version="1.1"
   viewBox="0 0 136.31549 169.63457"
   height="169.63457mm"
   width="136.31549mm">
  <defs
     id="defs2">
    <style
       type="text/css"
       id="style847">
   
    .fil0 {fill:#000000}
   
  </style>
  </defs>
  <metadata
     id="metadata5">
    <rdf:RDF>
      <cc:Work
         rdf:about="">
        <dc:format>image/svg+xml</dc:format>
        <dc:type
           rdf:resource="http://purl.org/dc/dcmitype/StillImage" />
        <dc:title></dc:title>
      </cc:Work>
    </rdf:RDF>
  </metadata>
  <g
     transform="translate(-63.377956,-97.457745)"
     id="layer1">
    <g
       transform="matrix(0.26024193,0,0,0.26024193,164.61464,173.76668)"
       id="g829"
       style="fill:#1f567d;fill-opacity:1">
      <g
         style="fill:#1f567d;fill-opacity:1"
         id="g817">
        <path
           style="fill:#1f567d;fill-opacity:1"
           d="m 49.859,18.878 c 0,0 -36.572,51.986 0,61.563 37.204,-9.577 0,-61.563 0,-61.563 z m 0.083,53.084 c -14.791,-3.873 0,-24.907 0,-24.907 0,0 15.052,21.034 0,24.907 z"
           id="path815" />
      </g>
    </g>
    <g
       transform="matrix(0.21229147,0,0,0.21229147,75.170422,175.76878)"
       id="g845"
       style="fill:#1f567d;fill-opacity:1">
      <path
         style="fill:#1f567d;fill-opacity:1"
         d="M 84,34.5 92.5,46.3 97,41.2 80.1,17.8 64.7,36 51.6,17.8 36.7,35.5 23.9,17.8 5,40.2 9.4,45.3 18.1,35.2 c -0.4,1.2 -0.7,2.6 -0.7,4.4 0,3.9 1.3,6 2.2,7.6 0.7,1.2 1,1.7 1,3.3 0,1.6 -0.3,2.1 -1,3.3 -0.9,1.6 -2.2,3.7 -2.2,7.6 0,3.9 1.3,6 2.2,7.6 0.7,1.2 1,1.7 1,3.3 0,1.6 -0.3,2.1 -1,3.3 -0.9,1.6 -2.2,3.7 -2.2,7.6 h 8.4 c 0,-1.6 0.3,-2.1 1,-3.3 0.9,-1.6 2.2,-3.7 2.2,-7.6 0,-3.9 -1.3,-6 -2.2,-7.6 -0.7,-1.2 -1,-1.7 -1,-3.3 0,-1.6 0.3,-2.1 1,-3.3 0.9,-1.6 2.2,-3.7 2.2,-7.6 0,-3.9 -1.3,-6 -2.2,-7.6 -0.7,-1.2 -1,-1.7 -1,-3.3 0,-1.6 0.3,-2.1 1,-3.3 0.3,-0.5 0.6,-1.1 1,-1.7 l 8.5,11.8 9.5,-11.1 c -0.4,1.2 -0.7,2.6 -0.7,4.4 0,3.9 1.3,6 2.2,7.6 0.7,1.2 1,1.7 1,3.3 0,1.6 -0.3,2.1 -1,3.3 -0.9,1.6 -2.2,3.7 -2.2,7.6 0,3.9 1.3,6 2.2,7.6 0.7,1.2 1,1.7 1,3.3 0,1.6 -0.3,2.1 -1,3.3 -0.9,1.6 -2.2,3.7 -2.2,7.6 h 8.4 c 0,-1.6 0.3,-2.1 1,-3.3 0.9,-1.6 2.2,-3.7 2.2,-7.6 0,-3.9 -1.3,-6 -2.2,-7.6 -0.7,-1.2 -1,-1.7 -1,-3.3 0,-1.6 0.3,-2.1 1,-3.3 0.9,-1.6 2.2,-3.7 2.2,-7.6 0,-3.9 -1.3,-6 -2.2,-7.6 -0.7,-1.2 -1,-1.7 -1,-3.3 0,-1.6 0.3,-2.1 1,-3.3 0.3,-0.5 0.6,-1.1 1,-1.7 l 9.2,12.2 9.6,-11.5 c -0.4,1.2 -0.7,2.6 -0.7,4.4 0,3.9 1.3,6 2.2,7.6 0.7,1.2 1,1.7 1,3.3 0,1.6 -0.3,2.1 -1,3.3 -0.9,1.6 -2.2,3.7 -2.2,7.6 0,3.9 1.3,6 2.2,7.6 0.7,1.2 1,1.7 1,3.3 0,1.6 -0.3,2.1 -1,3.3 -0.9,1.6 -2.2,3.7 -2.2,7.6 H 82 c 0,-1.6 0.3,-2.1 1,-3.3 0.9,-1.6 2.2,-3.7 2.2,-7.6 0,-3.9 -1.3,-6 -2.2,-7.6 -0.7,-1.2 -1,-1.7 -1,-3.3 0,-1.6 0.3,-2.1 1,-3.3 0.9,-1.6 2.2,-3.7 2.2,-7.6 0,-3.9 -1.3,-6 -2.2,-7.6 -0.7,-1.2 -1,-1.7 -1,-3.3 0,-1.6 0.3,-2.1 1,-3.3 0.4,-0.8 0.7,-1.3 1,-2 z"
         id="path833" />
    </g>
    <g
       transform="matrix(0.0215616,0,0,0.0215616,122.3169,102.42494)"
       id="g864"
       style="clip-rule:evenodd;fill:#1f567d;fill-opacity:0.86666667;fill-rule:evenodd;image-rendering:optimizeQuality;shape-rendering:geometricPrecision;text-rendering:geometricPrecision">
      <g
         style="fill:#1f567d;fill-opacity:0.86666667"
         id="g853">
        <path
           style="fill:#1f567d;fill-opacity:0.86666667"
           class="fil0"
           d="M 92.3,718.46 V 495.55 l 35.49,-9.5 64.31,-205.09 h 462.46 l 64.31,205.09 35.49,9.5 v 222.91 h -48.24 v 96.49 H 556.4 V 718.46 H 290.24 v 96.49 H 140.53 V 718.46 Z M 209.5,206.49 443.85,31.73 l 1.33,112.54 191.98,-78.13 -237,202.58 -23.83,-108.57 z m -34.62,421.35 c 24.26,6.49 70.47,15.16 102.05,-2.45 35.6,-19.87 -16.54,-74.32 -98.78,-77.06 -32.64,-1.07 -34.14,71.24 -3.27,79.51 z m 496.9,0 c -24.26,6.49 -70.47,15.16 -102.05,-2.45 -35.61,-19.87 16.54,-74.32 98.78,-77.06 32.64,-1.07 34.14,71.24 3.27,79.51 z M 642.91,432.86 613.01,337.52 H 233.65 l -30.6,97.55 v 0.01 h 439.86 z"
           id="path851" />
      </g>
    </g>
    <g
       transform="matrix(0.21861325,0,0,0.21861325,120.51391,235.38595)"
       id="g888"
       style="fill:#1f567d;fill-opacity:1">
      <path
         style="fill:#1f567d;fill-opacity:1"
         d="M 50,92 C 68.39,92 87,87.88 87,80 V 20 C 87,12.12 68.39,8 50,8 31.61,8 13,12.12 13,20 v 60 c 0,7.88 18.61,12 37,12 z m 0,-80 c 21.67,0 33,5.21 33,8 0,2.79 -11.33,8 -33,8 -21.67,0 -33,-5.21 -33,-8 0,-2.79 11.33,-8 33,-8 z M 17,25.75 C 23.45,29.87 36.79,32 50,32 63.21,32 76.55,29.87 83,25.75 V 40 c 0,2.79 -11.33,8 -33,8 -21.67,0 -33,-5.21 -33,-8 z m 0,20 C 23.45,49.87 36.79,52 50,52 63.21,52 76.55,49.87 83,45.75 V 60 c 0,2.79 -11.33,8 -33,8 -21.67,0 -33,-5.21 -33,-8 z m 0,20 C 23.45,69.87 36.79,72 50,72 63.21,72 76.55,69.87 83,65.75 V 80 c 0,2.79 -11.33,8 -33,8 -21.67,0 -33,-5.21 -33,-8 z"
         id="path868" />
      <circle
         style="fill:#1f567d;fill-opacity:1"
         cx="72"
         cy="77"
         r="3"
         id="circle870" />
      <circle
         style="fill:#1f567d;fill-opacity:1"
         cx="72"
         cy="57"
         r="3"
         id="circle872" />
      <circle
         style="fill:#1f567d;fill-opacity:1"
         cx="72"
         cy="37"
         r="3"
         id="circle874" />
    </g>
    <g
       transform="matrix(0.35265039,0,0,0.35265039,113.81205,143.10708)"
       id="g901"
       style="fill:#000000">
      <path
         d="M 96.3,48.795 62.514,34.122 V 19.816 l 19.974,-0.021 v 4.999 h 2 V 19.793 L 88.404,19.789 62.514,9.211 V 7.794 H 62.489 L 50.014,0.643 37.526,7.794 h -0.013 v 1.329 l -26.112,10.669 4.086,0.002 v 5.001 h 2 v -5 l 20.027,0.011 V 34.11 L 3.7,48.795 h 3.787 v 5 h 2 v -5 h 28.027 v 18.81 L 25.047,99.357 50.014,78.927 74.98,99.357 62.514,67.604 v -18.81 h 2 25.972 v 5 h 2 v -5 H 96.3 Z M 60.514,33.767 h -7.88 l 7.88,-4.55 z m -11.344,2 h 1.352 l 8.944,5.164 -9.62,5.555 -9.62,-5.555 z m -9.656,3.265 v -3.266 h 5.656 z m 15.008,-3.265 h 5.991 v 3.459 z m 5.992,-10.246 -7.494,-5.707 7.494,0.003 z m -7.893,-7.708 7.893,-6.002 v 6.005 z m -2.766,-0.41 -8.678,-6.608 h 17.368 z m -10.341,-5.361 7.574,5.769 -7.574,-0.004 z m 20.157,15.352 -9.825,5.673 -9.824,-5.673 9.833,-7.477 z M 47.058,33.767 H 39.514 V 29.41 Z m -7.544,9.062 6.869,3.966 h -6.869 z m 10.332,5.966 9.62,5.554 -9.62,5.555 -9.62,-5.555 z m -2,12.263 -8.332,4.811 v -9.621 z m 2,1.155 10.223,5.901 -10.055,8.228 -10.194,-8.341 z m 10.668,3.849 -8.668,-5.004 8.668,-5.004 z M 53.848,48.795 h 6.666 v 3.849 z m -0.538,-2 7.204,-4.159 v 4.159 z M 78.247,17.8 62.514,17.817 V 11.373 Z M 60.214,8.795 H 59.298 39.804 L 50.013,2.947 Z m -38.642,9.003 15.942,-6.514 v 6.521 z m 25.119,2.012 -7.177,5.458 V 19.807 Z M 13.327,46.795 37.514,36.291 v 10.504 z m 32.518,2 -6.331,3.655 v -3.655 z m -16.137,44.164 9.107,-23.195 9.619,7.871 z m 40.611,0 -18.726,-15.324 9.619,-7.871 z M 64.514,46.795 h -2 V 36.303 l 24.159,10.492 z"
         id="path890" />
    </g>
    <circle
       r="37.986607"
       cy="186.81993"
       cx="161.20683"
       id="path905"
       style="opacity:1;fill:none;fill-opacity:1;stroke:#1f567d;stroke-width:1;stroke-linecap:round;stroke-linejoin:round;stroke-miterlimit:4;stroke-dasharray:none;stroke-dashoffset:0.56692916;stroke-opacity:0.17590362;paint-order:fill markers stroke" />
    <circle
       style="opacity:1;fill:none;fill-opacity:1;stroke:#1f567d;stroke-width:1;stroke-linecap:round;stroke-linejoin:round;stroke-miterlimit:4;stroke-dasharray:none;stroke-dashoffset:0.56692916;stroke-opacity:0.17590362;paint-order:fill markers stroke"
       id="circle907"
       cx="101.86456"
       cy="186.81993"
       r="37.986607" />
    <circle
       r="37.986607"
       cy="135.94435"
       cx="131.53569"
       id="circle909"
       style="opacity:1;fill:none;fill-opacity:1;stroke:#1f567d;stroke-width:1;stroke-linecap:round;stroke-linejoin:round;stroke-miterlimit:4;stroke-dasharray:none;stroke-dashoffset:0.56692916;stroke-opacity:0.17590362;paint-order:fill markers stroke" />
    <circle
       style="opacity:1;fill:#000000;fill-opacity:0.09879518;stroke:none;stroke-width:2;stroke-linecap:round;stroke-linejoin:round;stroke-miterlimit:4;stroke-dasharray:none;stroke-dashoffset:0.56692916;stroke-opacity:1;paint-order:fill markers stroke"
       id="circle911"
       cx="131.53569"
       cy="168.56367"
       r="33.323284" />
    <g
       id="text915"
       style="font-style:normal;font-variant:normal;font-weight:bold;font-stretch:normal;font-size:7.76111126px;line-height:1.25;font-family:Roboto;-inkscape-font-specification:'Roboto Bold';text-align:center;letter-spacing:0px;word-spacing:0px;text-anchor:middle;fill:#000000;fill-opacity:1;stroke:none;stroke-width:0.26458332"
       aria-label="Electricity sector">
      <path
         id="path1027"
         style="font-style:normal;font-variant:normal;font-weight:bold;font-stretch:normal;font-size:7.76111126px;font-family:Roboto;-inkscape-font-specification:'Roboto Bold';text-align:center;text-anchor:middle;stroke-width:0.26458332"
         d="m 117.60688,183.71055 h -2.18282 v 1.47795 h 2.56178 v 0.91329 h -3.69866 v -5.51766 h 3.69108 v 0.92087 h -2.5542 v 1.31499 h 2.18282 z" />
      <path
         id="path1029"
         style="font-style:normal;font-variant:normal;font-weight:bold;font-stretch:normal;font-size:7.76111126px;font-family:Roboto;-inkscape-font-specification:'Roboto Bold';text-align:center;text-anchor:middle;stroke-width:0.26458332"
         d="m 119.73663,186.10179 h -1.09898 v -5.82083 h 1.09898 z" />
      <path
         id="path1031"
         style="font-style:normal;font-variant:normal;font-weight:bold;font-stretch:normal;font-size:7.76111126px;font-family:Roboto;-inkscape-font-specification:'Roboto Bold';text-align:center;text-anchor:middle;stroke-width:0.26458332"
         d="m 122.52957,186.17758 q -0.90192,0 -1.47036,-0.55328 -0.56466,-0.55328 -0.56466,-1.47416 v -0.1061 q 0,-0.61771 0.23875,-1.10278 0.23875,-0.48886 0.67455,-0.75034 0.43959,-0.26527 1.00046,-0.26527 0.84129,0 1.32257,0.53054 0.48507,0.53055 0.48507,1.50447 v 0.44718 h -2.61104 q 0.053,0.4017 0.31833,0.64423 0.26906,0.24254 0.67834,0.24254 0.63286,0 0.98908,-0.45855 l 0.53813,0.60255 q -0.24633,0.34864 -0.66697,0.5457 -0.42065,0.19327 -0.93225,0.19327 z m -0.12505,-3.36517 q -0.32591,0 -0.53055,0.2198 -0.20085,0.2198 -0.25769,0.62908 h 1.52342 v -0.0872 q -0.008,-0.3638 -0.19706,-0.56086 -0.18948,-0.20085 -0.53812,-0.20085 z" />
      <path
         id="path1033"
         style="font-style:normal;font-variant:normal;font-weight:bold;font-stretch:normal;font-size:7.76111126px;font-family:Roboto;-inkscape-font-specification:'Roboto Bold';text-align:center;text-anchor:middle;stroke-width:0.26458332"
         d="m 126.54655,185.29461 q 0.30317,0 0.49265,-0.16675 0.18948,-0.16674 0.19706,-0.44338 h 1.02699 q -0.004,0.41686 -0.22738,0.7655 -0.22359,0.34485 -0.61392,0.53812 -0.38654,0.18948 -0.85645,0.18948 -0.87919,0 -1.38699,-0.55707 -0.50781,-0.56086 -0.50781,-1.54616 v -0.072 q 0,-0.9474 0.50402,-1.51205 0.50402,-0.56465 1.3832,-0.56465 0.76929,0 1.23163,0.43959 0.46612,0.43581 0.4737,1.16341 h -1.02699 q -0.008,-0.31833 -0.19706,-0.51539 -0.18948,-0.20085 -0.50022,-0.20085 -0.38275,0 -0.57981,0.28043 -0.19327,0.27665 -0.19327,0.90193 v 0.11369 q 0,0.63286 0.19327,0.9095 0.19327,0.27665 0.58738,0.27665 z" />
      <path
         id="path1035"
         style="font-style:normal;font-variant:normal;font-weight:bold;font-stretch:normal;font-size:7.76111126px;font-family:Roboto;-inkscape-font-specification:'Roboto Bold';text-align:center;text-anchor:middle;stroke-width:0.26458332"
         d="m 130.19973,180.9934 v 1.00804 h 0.70108 v 0.80339 h -0.70108 v 2.04639 q 0,0.22738 0.0872,0.32591 0.0872,0.0985 0.33348,0.0985 0.1819,0 0.32212,-0.0265 v 0.82992 q -0.32212,0.0985 -0.66318,0.0985 -1.15204,0 -1.17478,-1.16341 v -2.20934 h -0.59876 v -0.80339 h 0.59876 v -1.00804 z" />
      <path
         id="path1037"
         style="font-style:normal;font-variant:normal;font-weight:bold;font-stretch:normal;font-size:7.76111126px;font-family:Roboto;-inkscape-font-specification:'Roboto Bold';text-align:center;text-anchor:middle;stroke-width:0.26458332"
         d="m 133.81502,183.02842 q -0.22359,-0.0303 -0.39412,-0.0303 -0.6215,0 -0.81477,0.42065 v 2.68304 h -1.09519 v -4.10035 h 1.03456 l 0.0303,0.48886 q 0.32969,-0.56465 0.91329,-0.56465 0.1819,0 0.34107,0.0493 z" />
      <path
         id="path1039"
         style="font-style:normal;font-variant:normal;font-weight:bold;font-stretch:normal;font-size:7.76111126px;font-family:Roboto;-inkscape-font-specification:'Roboto Bold';text-align:center;text-anchor:middle;stroke-width:0.26458332"
         d="m 135.50139,186.10179 h -1.09898 v -4.10035 h 1.09898 z m -1.16341,-5.16144 q 0,-0.24633 0.16296,-0.40549 0.16674,-0.15916 0.45096,-0.15916 0.28043,0 0.44717,0.15916 0.16675,0.15916 0.16675,0.40549 0,0.25011 -0.17054,0.40928 -0.16674,0.15916 -0.44338,0.15916 -0.27664,0 -0.44717,-0.15916 -0.16675,-0.15917 -0.16675,-0.40928 z" />
      <path
         id="path1041"
         style="font-style:normal;font-variant:normal;font-weight:bold;font-stretch:normal;font-size:7.76111126px;font-family:Roboto;-inkscape-font-specification:'Roboto Bold';text-align:center;text-anchor:middle;stroke-width:0.26458332"
         d="m 138.11243,185.29461 q 0.30317,0 0.49265,-0.16675 0.18948,-0.16674 0.19706,-0.44338 h 1.02698 q -0.004,0.41686 -0.22738,0.7655 -0.22358,0.34485 -0.61391,0.53812 -0.38654,0.18948 -0.85645,0.18948 -0.87919,0 -1.387,-0.55707 -0.50781,-0.56086 -0.50781,-1.54616 v -0.072 q 0,-0.9474 0.50402,-1.51205 0.50402,-0.56465 1.38321,-0.56465 0.76929,0 1.23162,0.43959 0.46612,0.43581 0.4737,1.16341 h -1.02698 q -0.008,-0.31833 -0.19706,-0.51539 -0.18948,-0.20085 -0.50023,-0.20085 -0.38275,0 -0.57981,0.28043 -0.19327,0.27665 -0.19327,0.90193 v 0.11369 q 0,0.63286 0.19327,0.9095 0.19327,0.27665 0.58739,0.27665 z" />
      <path
         id="path1043"
         style="font-style:normal;font-variant:normal;font-weight:bold;font-stretch:normal;font-size:7.76111126px;font-family:Roboto;-inkscape-font-specification:'Roboto Bold';text-align:center;text-anchor:middle;stroke-width:0.26458332"
         d="m 141.61023,186.10179 h -1.09898 v -4.10035 h 1.09898 z m -1.1634,-5.16144 q 0,-0.24633 0.16295,-0.40549 0.16674,-0.15916 0.45096,-0.15916 0.28043,0 0.44718,0.15916 0.16674,0.15916 0.16674,0.40549 0,0.25011 -0.17053,0.40928 -0.16675,0.15916 -0.44339,0.15916 -0.27664,0 -0.44717,-0.15916 -0.16674,-0.15917 -0.16674,-0.40928 z" />
      <path
         id="path1045"
         style="font-style:normal;font-variant:normal;font-weight:bold;font-stretch:normal;font-size:7.76111126px;font-family:Roboto;-inkscape-font-specification:'Roboto Bold';text-align:center;text-anchor:middle;stroke-width:0.26458332"
         d="m 143.82715,180.9934 v 1.00804 h 0.70108 v 0.80339 h -0.70108 v 2.04639 q 0,0.22738 0.0872,0.32591 0.0872,0.0985 0.33348,0.0985 0.1819,0 0.32212,-0.0265 v 0.82992 q -0.32212,0.0985 -0.66318,0.0985 -1.15204,0 -1.17478,-1.16341 v -2.20934 h -0.59876 v -0.80339 h 0.59876 v -1.00804 z" />
      <path
         id="path1047"
         style="font-style:normal;font-variant:normal;font-weight:bold;font-stretch:normal;font-size:7.76111126px;font-family:Roboto;-inkscape-font-specification:'Roboto Bold';text-align:center;text-anchor:middle;stroke-width:0.26458332"
         d="m 146.66936,184.55184 0.75792,-2.5504 h 1.17478 l -1.64848,4.73701 -0.0909,0.216 q -0.36759,0.8034 -1.21268,0.8034 -0.23874,0 -0.48507,-0.072 v -0.82993 l 0.16675,0.004 q 0.31074,0 0.46233,-0.0947 0.15537,-0.0947 0.24253,-0.31453 l 0.12885,-0.33728 -1.43626,-4.11172 h 1.17857 z" />
      <path
         id="path1049"
         style="font-style:normal;font-variant:normal;font-weight:bold;font-stretch:normal;font-size:7.76111126px;font-family:Roboto;-inkscape-font-specification:'Roboto Bold';text-align:center;text-anchor:middle;stroke-width:0.26458332"
         d="m 122.85548,194.67009 q 0,-0.20085 -0.20085,-0.31454 -0.19706,-0.11748 -0.63665,-0.20843 -1.46279,-0.30695 -1.46279,-1.24299 0,-0.5457 0.45096,-0.9095 0.45475,-0.36759 1.18615,-0.36759 0.78066,0 1.24678,0.36759 0.46991,0.36759 0.46991,0.95498 h -1.0952 q 0,-0.23496 -0.15158,-0.38654 -0.15158,-0.15538 -0.4737,-0.15538 -0.27664,0 -0.42823,0.12506 -0.15158,0.12506 -0.15158,0.31833 0,0.1819 0.17053,0.29559 0.17432,0.1099 0.5836,0.19327 0.40928,0.0796 0.68971,0.1819 0.86782,0.31833 0.86782,1.10277 0,0.56086 -0.48128,0.90951 -0.48128,0.34485 -1.24299,0.34485 -0.51539,0 -0.91709,-0.1819 -0.3979,-0.18569 -0.62528,-0.50402 -0.22738,-0.32211 -0.22738,-0.69349 h 1.03835 q 0.0152,0.2918 0.21601,0.44717 0.20085,0.15537 0.53813,0.15537 0.31453,0 0.4737,-0.11747 0.16295,-0.12127 0.16295,-0.31454 z" />
      <path
         id="path1051"
         style="font-style:normal;font-variant:normal;font-weight:bold;font-stretch:normal;font-size:7.76111126px;font-family:Roboto;-inkscape-font-specification:'Roboto Bold';text-align:center;text-anchor:middle;stroke-width:0.26458332"
         d="m 126.50866,195.87897 q -0.90193,0 -1.47037,-0.55328 -0.56465,-0.55328 -0.56465,-1.47416 v -0.10611 q 0,-0.6177 0.23875,-1.10277 0.23874,-0.48886 0.67455,-0.75034 0.43959,-0.26527 1.00045,-0.26527 0.84129,0 1.32257,0.53054 0.48507,0.53055 0.48507,1.50447 v 0.44718 H 125.584 q 0.053,0.4017 0.31832,0.64423 0.26906,0.24253 0.67834,0.24253 0.63287,0 0.98909,-0.45854 l 0.53812,0.60255 q -0.24632,0.34864 -0.66697,0.5457 -0.42064,0.19327 -0.93224,0.19327 z m -0.12506,-3.36517 q -0.3259,0 -0.53054,0.2198 -0.20085,0.2198 -0.2577,0.62907 h 1.52343 v -0.0872 q -0.008,-0.3638 -0.19706,-0.56086 -0.18948,-0.20085 -0.53813,-0.20085 z" />
      <path
         id="path1053"
         style="font-style:normal;font-variant:normal;font-weight:bold;font-stretch:normal;font-size:7.76111126px;font-family:Roboto;-inkscape-font-specification:'Roboto Bold';text-align:center;text-anchor:middle;stroke-width:0.26458332"
         d="m 130.52564,194.99599 q 0.30317,0 0.49265,-0.16674 0.18948,-0.16674 0.19706,-0.44338 h 1.02698 q -0.004,0.41685 -0.22738,0.7655 -0.22358,0.34485 -0.61391,0.53812 -0.38654,0.18948 -0.85645,0.18948 -0.87919,0 -1.387,-0.55707 -0.5078,-0.56086 -0.5078,-1.54616 v -0.072 q 0,-0.9474 0.50401,-1.51205 0.50402,-0.56465 1.38321,-0.56465 0.76929,0 1.23162,0.43959 0.46612,0.4358 0.4737,1.16341 h -1.02698 q -0.008,-0.31833 -0.19706,-0.51539 -0.18948,-0.20085 -0.50023,-0.20085 -0.38275,0 -0.57981,0.28043 -0.19327,0.27665 -0.19327,0.90193 v 0.11369 q 0,0.63286 0.19327,0.9095 0.19327,0.27664 0.58739,0.27664 z" />
      <path
         id="path1055"
         style="font-style:normal;font-variant:normal;font-weight:bold;font-stretch:normal;font-size:7.76111126px;font-family:Roboto;-inkscape-font-specification:'Roboto Bold';text-align:center;text-anchor:middle;stroke-width:0.26458332"
         d="m 134.17882,190.69479 v 1.00804 h 0.70108 v 0.80339 h -0.70108 v 2.04639 q 0,0.22738 0.0872,0.32591 0.0872,0.0985 0.33349,0.0985 0.1819,0 0.32211,-0.0265 v 0.82992 q -0.32211,0.0985 -0.66318,0.0985 -1.15204,0 -1.17478,-1.16341 v -2.20934 h -0.59875 v -0.80339 h 0.59875 v -1.00804 z" />
      <path
         id="path1057"
         style="font-style:normal;font-variant:normal;font-weight:bold;font-stretch:normal;font-size:7.76111126px;font-family:Roboto;-inkscape-font-specification:'Roboto Bold';text-align:center;text-anchor:middle;stroke-width:0.26458332"
         d="m 135.21338,193.71511 q 0,-0.61013 0.23496,-1.08762 0.23495,-0.47749 0.67455,-0.73897 0.44338,-0.26148 1.02698,-0.26148 0.82992,0 1.35289,0.5078 0.52675,0.50781 0.58739,1.37942 l 0.008,0.28043 q 0,0.94361 -0.52676,1.51584 -0.52675,0.56844 -1.41352,0.56844 -0.88677,0 -1.41731,-0.56844 -0.52676,-0.56844 -0.52676,-1.54616 z m 1.0952,0.0796 q 0,0.5836 0.2198,0.89435 0.21979,0.30695 0.62907,0.30695 0.39791,0 0.62149,-0.30316 0.22359,-0.30696 0.22359,-0.97772 0,-0.57223 -0.22359,-0.88677 -0.22358,-0.31454 -0.62907,-0.31454 -0.4017,0 -0.62149,0.31454 -0.2198,0.31075 -0.2198,0.96635 z" />
      <path
         id="path1059"
         style="font-style:normal;font-variant:normal;font-weight:bold;font-stretch:normal;font-size:7.76111126px;font-family:Roboto;-inkscape-font-specification:'Roboto Bold';text-align:center;text-anchor:middle;stroke-width:0.26458332"
         d="m 142.08394,192.72981 q -0.22359,-0.0303 -0.39412,-0.0303 -0.6215,0 -0.81477,0.42065 v 2.68304 h -1.09519 v -4.10035 h 1.03456 l 0.0303,0.48886 q 0.3297,-0.56465 0.9133,-0.56465 0.1819,0 0.34106,0.0493 z" />
    </g>
    <g
       id="text923"
       style="font-style:normal;font-variant:normal;font-weight:bold;font-stretch:normal;font-size:7.76111126px;line-height:1.25;font-family:Roboto;-inkscape-font-specification:'Roboto Bold';text-align:center;letter-spacing:0px;word-spacing:0px;text-anchor:middle;fill:#1f567d;fill-opacity:1;stroke:none;stroke-width:0.26458332"
       aria-label="Heat">
      <path
         id="path1062"
         style="font-style:normal;font-variant:normal;font-weight:bold;font-stretch:normal;font-size:7.76111126px;font-family:Roboto;-inkscape-font-specification:'Roboto Bold';text-align:center;text-anchor:middle;fill:#1f567d;fill-opacity:1;stroke-width:0.26458332"
         d="m 82.499673,202.7679 h -1.136881 v -2.36472 h -2.216919 v 2.36472 h -1.136882 v -5.51767 h 1.136882 v 2.23587 h 2.216919 v -2.23587 h 1.136881 z" />
      <path
         id="path1064"
         style="font-style:normal;font-variant:normal;font-weight:bold;font-stretch:normal;font-size:7.76111126px;font-family:Roboto;-inkscape-font-specification:'Roboto Bold';text-align:center;text-anchor:middle;fill:#1f567d;fill-opacity:1;stroke-width:0.26458332"
         d="m 85.31156,202.84369 q -0.901926,0 -1.470367,-0.55328 -0.564651,-0.55328 -0.564651,-1.47416 v -0.10611 q 0,-0.6177 0.238745,-1.10277 0.238745,-0.48886 0.67455,-0.75034 0.439594,-0.26528 1.000456,-0.26528 0.841292,0 1.322572,0.53055 0.485069,0.53054 0.485069,1.50447 v 0.44718 h -2.611038 q 0.05306,0.40169 0.318327,0.64423 0.269062,0.24253 0.678339,0.24253 0.632864,0 0.989087,-0.45854 l 0.538124,0.60255 q -0.246324,0.34864 -0.66697,0.5457 -0.420646,0.19327 -0.932243,0.19327 z m -0.125057,-3.36517 q -0.325906,0 -0.530545,0.2198 -0.200849,0.2198 -0.257693,0.62907 h 1.523421 v -0.0872 q -0.0076,-0.3638 -0.197059,-0.56086 -0.18948,-0.20085 -0.538124,-0.20085 z" />
      <path
         id="path1066"
         style="font-style:normal;font-variant:normal;font-weight:bold;font-stretch:normal;font-size:7.76111126px;font-family:Roboto;-inkscape-font-specification:'Roboto Bold';text-align:center;text-anchor:middle;fill:#1f567d;fill-opacity:1;stroke-width:0.26458332"
         d="m 89.999302,202.7679 q -0.07579,-0.1478 -0.109899,-0.36759 -0.397909,0.44338 -1.034562,0.44338 -0.602547,0 -1.000456,-0.34864 -0.394119,-0.34865 -0.394119,-0.87919 0,-0.65181 0.48128,-1.00046 0.485069,-0.34864 1.398364,-0.35243 h 0.504018 v -0.23496 q 0,-0.28422 -0.147795,-0.45475 -0.144005,-0.17053 -0.458542,-0.17053 -0.276641,0 -0.435805,0.13264 -0.155373,0.13263 -0.155373,0.3638 h -1.095196 q 0,-0.35623 0.219797,-0.65939 0.219797,-0.30317 0.621495,-0.4737 0.401698,-0.17433 0.901926,-0.17433 0.757921,0 1.201305,0.38275 0.447173,0.37896 0.447173,1.06867 v 1.77733 q 0.0038,0.5836 0.162953,0.88298 v 0.0644 z m -0.905716,-0.76171 q 0.242535,0 0.447173,-0.10611 0.204639,-0.1099 0.303169,-0.2918 v -0.70487 H 89.43465 q -0.822344,0 -0.875398,0.56844 l -0.0038,0.0644 q 0,0.20464 0.144005,0.33727 0.144005,0.13264 0.394119,0.13264 z" />
      <path
         id="path1068"
         style="font-style:normal;font-variant:normal;font-weight:bold;font-stretch:normal;font-size:7.76111126px;font-family:Roboto;-inkscape-font-specification:'Roboto Bold';text-align:center;text-anchor:middle;fill:#1f567d;fill-opacity:1;stroke-width:0.26458332"
         d="m 93.102988,197.65951 v 1.00804 h 0.701077 v 0.80339 h -0.701077 v 2.04639 q 0,0.22738 0.08716,0.3259 0.08716,0.0985 0.333485,0.0985 0.181902,0 0.322117,-0.0265 v 0.82992 q -0.322117,0.0985 -0.663181,0.0985 -1.15204,0 -1.174778,-1.16341 v -2.20934 h -0.598757 v -0.80339 h 0.598757 v -1.00804 z" />
    </g>
    <g
       id="text929"
       style="font-style:normal;font-variant:normal;font-weight:bold;font-stretch:normal;font-size:7.76111126px;line-height:1.25;font-family:Roboto;-inkscape-font-specification:'Roboto Bold';text-align:center;letter-spacing:0px;word-spacing:0px;text-anchor:middle;fill:#1f567d;fill-opacity:1;stroke:none;stroke-width:0.26458332"
       aria-label="Gas">
      <path
         id="path1020"
         style="font-style:normal;font-variant:normal;font-weight:bold;font-stretch:normal;font-size:7.76111126px;font-family:Roboto;-inkscape-font-specification:'Roboto Bold';text-align:center;text-anchor:middle;fill:#1f567d;fill-opacity:1;stroke-width:0.26458332"
         d="m 175.79239,202.11646 q -0.30696,0.3676 -0.86782,0.57223 -0.56086,0.20085 -1.24299,0.20085 -0.71624,0 -1.25815,-0.31074 -0.53812,-0.31454 -0.83371,-0.90951 -0.2918,-0.59497 -0.29938,-1.39836 v -0.37517 q 0,-0.82614 0.27664,-1.42869 0.28043,-0.60633 0.8034,-0.92466 0.52675,-0.32212 1.23162,-0.32212 0.98151,0 1.53479,0.46992 0.55328,0.46612 0.6556,1.36046 h -1.10656 q -0.0758,-0.4737 -0.33728,-0.69349 -0.25769,-0.2198 -0.71245,-0.2198 -0.5798,0 -0.88297,0.4358 -0.30317,0.43581 -0.30696,1.29605 v 0.35243 q 0,0.86782 0.32969,1.3112 0.3297,0.44339 0.96635,0.44339 0.64045,0 0.9133,-0.27285 v -0.95119 h -1.03456 v -0.83751 h 2.17144 z" />
      <path
         id="path1022"
         style="font-style:normal;font-variant:normal;font-weight:bold;font-stretch:normal;font-size:7.76111126px;font-family:Roboto;-inkscape-font-specification:'Roboto Bold';text-align:center;text-anchor:middle;fill:#1f567d;fill-opacity:1;stroke-width:0.26458332"
         d="m 179.02113,202.81375 q -0.0758,-0.14779 -0.10989,-0.36759 -0.39791,0.44338 -1.03457,0.44338 -0.60254,0 -1.00045,-0.34864 -0.39412,-0.34864 -0.39412,-0.87919 0,-0.65181 0.48128,-1.00045 0.48507,-0.34865 1.39836,-0.35244 h 0.50402 v -0.23495 q 0,-0.28422 -0.14779,-0.45476 -0.14401,-0.17053 -0.45855,-0.17053 -0.27664,0 -0.4358,0.13264 -0.15538,0.13263 -0.15538,0.3638 h -1.09519 q 0,-0.35622 0.2198,-0.65939 0.21979,-0.30317 0.62149,-0.4737 0.4017,-0.17432 0.90193,-0.17432 0.75792,0 1.2013,0.38275 0.44718,0.37896 0.44718,1.06867 v 1.77732 q 0.004,0.5836 0.16295,0.88298 v 0.0644 z m -0.90571,-0.76171 q 0.24253,0 0.44717,-0.10611 0.20464,-0.1099 0.30317,-0.2918 v -0.70486 h -0.40928 q -0.82234,0 -0.8754,0.56844 l -0.004,0.0644 q 0,0.20464 0.14401,0.33727 0.144,0.13264 0.39412,0.13264 z" />
      <path
         id="path1024"
         style="font-style:normal;font-variant:normal;font-weight:bold;font-stretch:normal;font-size:7.76111126px;font-family:Roboto;-inkscape-font-specification:'Roboto Bold';text-align:center;text-anchor:middle;fill:#1f567d;fill-opacity:1;stroke-width:0.26458332"
         d="m 183.03433,201.68066 q 0,-0.20085 -0.20085,-0.31454 -0.19706,-0.11748 -0.63666,-0.20843 -1.46278,-0.30695 -1.46278,-1.24299 0,-0.5457 0.45096,-0.9095 0.45475,-0.36759 1.18614,-0.36759 0.78066,0 1.24678,0.36759 0.46992,0.36759 0.46992,0.95498 h -1.0952 q 0,-0.23496 -0.15158,-0.38654 -0.15159,-0.15537 -0.4737,-0.15537 -0.27665,0 -0.42823,0.12505 -0.15158,0.12506 -0.15158,0.31833 0,0.1819 0.17053,0.29559 0.17432,0.1099 0.5836,0.19327 0.40927,0.0796 0.68971,0.1819 0.86781,0.31833 0.86781,1.10277 0,0.56087 -0.48128,0.90951 -0.48128,0.34485 -1.24299,0.34485 -0.51538,0 -0.91708,-0.1819 -0.39791,-0.18569 -0.62528,-0.50402 -0.22738,-0.32211 -0.22738,-0.69349 h 1.03835 q 0.0152,0.2918 0.21601,0.44717 0.20085,0.15537 0.53812,0.15537 0.31454,0 0.4737,-0.11747 0.16296,-0.12127 0.16296,-0.31454 z" />
    </g>
    <g
       id="text933"
       style="font-style:normal;font-variant:normal;font-weight:bold;font-stretch:normal;font-size:7.76111126px;line-height:1.25;font-family:Roboto;-inkscape-font-specification:'Roboto Bold';text-align:center;letter-spacing:0px;word-spacing:0px;text-anchor:middle;fill:#1f567d;fill-opacity:1;stroke:none;stroke-width:0.26458332"
       aria-label="E-mobility">
      <path
         id="path999"
         style="font-style:normal;font-variant:normal;font-weight:bold;font-stretch:normal;font-size:7.76111126px;font-family:Roboto;-inkscape-font-specification:'Roboto Bold';text-align:center;text-anchor:middle;fill:#1f567d;fill-opacity:1;stroke-width:0.26458332"
         d="m 117.2355,126.95466 h -2.18282 v 1.47795 h 2.56178 v 0.91329 h -3.69866 v -5.51766 h 3.69108 v 0.92087 h -2.5542 v 1.31499 h 2.18282 z" />
      <path
         id="path1001"
         style="font-style:normal;font-variant:normal;font-weight:bold;font-stretch:normal;font-size:7.76111126px;font-family:Roboto;-inkscape-font-specification:'Roboto Bold';text-align:center;text-anchor:middle;fill:#1f567d;fill-opacity:1;stroke-width:0.26458332"
         d="m 120.33918,127.42457 h -2.13355 v -0.88298 h 2.13355 z" />
      <path
         id="path1003"
         style="font-style:normal;font-variant:normal;font-weight:bold;font-stretch:normal;font-size:7.76111126px;font-family:Roboto;-inkscape-font-specification:'Roboto Bold';text-align:center;text-anchor:middle;fill:#1f567d;fill-opacity:1;stroke-width:0.26458332"
         d="m 122.25293,125.24555 0.0341,0.45854 q 0.4358,-0.53433 1.17857,-0.53433 0.79202,0 1.08761,0.62528 0.43202,-0.62528 1.23162,-0.62528 0.66697,0 0.99288,0.39033 0.32591,0.38654 0.32591,1.16719 v 2.61862 h -1.09899 v -2.61483 q 0,-0.34864 -0.13642,-0.5078 -0.13643,-0.16296 -0.48128,-0.16296 -0.49265,0 -0.68213,0.46991 l 0.004,2.81568 h -1.0952 v -2.61104 q 0,-0.35622 -0.14022,-0.51538 -0.14021,-0.15917 -0.47749,-0.15917 -0.46612,0 -0.67454,0.38654 v 2.89905 h -1.0952 v -4.10035 z" />
      <path
         id="path1005"
         style="font-style:normal;font-variant:normal;font-weight:bold;font-stretch:normal;font-size:7.76111126px;font-family:Roboto;-inkscape-font-specification:'Roboto Bold';text-align:center;text-anchor:middle;fill:#1f567d;fill-opacity:1;stroke-width:0.26458332"
         d="m 127.7706,127.25783 q 0,-0.61013 0.23495,-1.08762 0.23496,-0.47749 0.67455,-0.73897 0.44339,-0.26148 1.02699,-0.26148 0.82992,0 1.35288,0.5078 0.52676,0.50781 0.58739,1.37942 l 0.008,0.28043 q 0,0.94361 -0.52675,1.51584 -0.52676,0.56844 -1.41353,0.56844 -0.88676,0 -1.41731,-0.56844 -0.52675,-0.56844 -0.52675,-1.54616 z m 1.09519,0.0796 q 0,0.5836 0.2198,0.89435 0.2198,0.30696 0.62907,0.30696 0.39791,0 0.6215,-0.30317 0.22359,-0.30696 0.22359,-0.97772 0,-0.57223 -0.22359,-0.88677 -0.22359,-0.31454 -0.62907,-0.31454 -0.4017,0 -0.6215,0.31454 -0.2198,0.31075 -0.2198,0.96635 z" />
      <path
         id="path1007"
         style="font-style:normal;font-variant:normal;font-weight:bold;font-stretch:normal;font-size:7.76111126px;font-family:Roboto;-inkscape-font-specification:'Roboto Bold';text-align:center;text-anchor:middle;fill:#1f567d;fill-opacity:1;stroke-width:0.26458332"
         d="m 136.03194,127.33362 q 0,0.9853 -0.42065,1.53858 -0.42065,0.54949 -1.17478,0.54949 -0.66697,0 -1.06488,-0.51159 l -0.0493,0.4358 h -0.9853 v -5.82083 h 1.0952 v 2.08807 q 0.37896,-0.44338 0.99666,-0.44338 0.75035,0 1.17478,0.55328 0.42823,0.54949 0.42823,1.54995 z m -1.0952,-0.0796 q 0,-0.6215 -0.19706,-0.90572 -0.19706,-0.28801 -0.58739,-0.28801 -0.52296,0 -0.72002,0.42823 v 1.61816 q 0.20085,0.43202 0.7276,0.43202 0.53055,0 0.69729,-0.52297 0.0796,-0.25011 0.0796,-0.76171 z" />
      <path
         id="path1009"
         style="font-style:normal;font-variant:normal;font-weight:bold;font-stretch:normal;font-size:7.76111126px;font-family:Roboto;-inkscape-font-specification:'Roboto Bold';text-align:center;text-anchor:middle;fill:#1f567d;fill-opacity:1;stroke-width:0.26458332"
         d="m 137.85853,129.3459 h -1.09899 v -4.10035 h 1.09899 z m -1.16341,-5.16144 q 0,-0.24632 0.16295,-0.40549 0.16674,-0.15916 0.45096,-0.15916 0.28043,0 0.44718,0.15916 0.16674,0.15917 0.16674,0.40549 0,0.25011 -0.17053,0.40928 -0.16675,0.15916 -0.44339,0.15916 -0.27664,0 -0.44717,-0.15916 -0.16674,-0.15917 -0.16674,-0.40928 z" />
      <path
         id="path1011"
         style="font-style:normal;font-variant:normal;font-weight:bold;font-stretch:normal;font-size:7.76111126px;font-family:Roboto;-inkscape-font-specification:'Roboto Bold';text-align:center;text-anchor:middle;fill:#1f567d;fill-opacity:1;stroke-width:0.26458332"
         d="m 139.92007,129.3459 h -1.09898 v -5.82083 h 1.09898 z" />
      <path
         id="path1013"
         style="font-style:normal;font-variant:normal;font-weight:bold;font-stretch:normal;font-size:7.76111126px;font-family:Roboto;-inkscape-font-specification:'Roboto Bold';text-align:center;text-anchor:middle;fill:#1f567d;fill-opacity:1;stroke-width:0.26458332"
         d="m 141.98162,129.3459 h -1.09899 v -4.10035 h 1.09899 z m -1.16341,-5.16144 q 0,-0.24632 0.16295,-0.40549 0.16674,-0.15916 0.45096,-0.15916 0.28043,0 0.44718,0.15916 0.16674,0.15917 0.16674,0.40549 0,0.25011 -0.17053,0.40928 -0.16675,0.15916 -0.44339,0.15916 -0.27664,0 -0.44717,-0.15916 -0.16674,-0.15917 -0.16674,-0.40928 z" />
      <path
         id="path1015"
         style="font-style:normal;font-variant:normal;font-weight:bold;font-stretch:normal;font-size:7.76111126px;font-family:Roboto;-inkscape-font-specification:'Roboto Bold';text-align:center;text-anchor:middle;fill:#1f567d;fill-opacity:1;stroke-width:0.26458332"
         d="m 144.19854,124.23751 v 1.00804 h 0.70107 v 0.8034 h -0.70107 v 2.04638 q 0,0.22738 0.0872,0.32591 0.0872,0.0985 0.33348,0.0985 0.1819,0 0.32212,-0.0265 v 0.82992 q -0.32212,0.0985 -0.66318,0.0985 -1.15204,0 -1.17478,-1.16341 v -2.20933 h -0.59876 v -0.8034 h 0.59876 v -1.00804 z" />
      <path
         id="path1017"
         style="font-style:normal;font-variant:normal;font-weight:bold;font-stretch:normal;font-size:7.76111126px;font-family:Roboto;-inkscape-font-specification:'Roboto Bold';text-align:center;text-anchor:middle;fill:#1f567d;fill-opacity:1;stroke-width:0.26458332"
         d="m 147.04074,127.79595 0.75792,-2.5504 h 1.17478 l -1.64848,4.73701 -0.0909,0.216 q -0.36759,0.8034 -1.21268,0.8034 -0.23874,0 -0.48506,-0.072 v -0.82993 l 0.16674,0.004 q 0.31075,0 0.46233,-0.0947 0.15537,-0.0947 0.24253,-0.31453 l 0.12885,-0.33728 -1.43626,-4.11172 h 1.17857 z" />
    </g>
    <g
       id="text939"
       style="font-style:normal;font-variant:normal;font-weight:bold;font-stretch:normal;font-size:7.76111126px;line-height:1.25;font-family:Roboto;-inkscape-font-specification:'Roboto Bold';text-align:center;letter-spacing:0px;word-spacing:0px;text-anchor:middle;fill:#1f567d;fill-opacity:1;stroke:none;stroke-width:0.26458332"
       aria-label="OpenEnergyPlatform">
      <path
         id="path962"
         style="font-style:normal;font-variant:normal;font-weight:bold;font-stretch:normal;font-size:7.76111126px;font-family:Roboto;-inkscape-font-specification:'Roboto Bold';text-align:center;text-anchor:middle;fill:#1f567d;fill-opacity:1;stroke-width:0.26458332"
         d="m 100.08185,262.80247 q 0,0.81477 -0.28801,1.42868 -0.28801,0.61392 -0.826134,0.94741 -0.534334,0.33348 -1.227832,0.33348 -0.685919,0 -1.224042,-0.32969 -0.538124,-0.3297 -0.833714,-0.93983 -0.295589,-0.61391 -0.299378,-1.40973 v -0.27285 q 0,-0.81477 0.291799,-1.43247 0.295589,-0.6215 0.829924,-0.95119 0.538124,-0.33349 1.227832,-0.33349 0.689708,0 1.224042,0.33349 0.538124,0.32969 0.829924,0.95119 0.295589,0.6177 0.295589,1.42868 z m -1.15204,-0.25011 q 0,-0.86782 -0.310748,-1.31878 -0.310747,-0.45097 -0.886767,-0.45097 -0.572231,0 -0.882978,0.44718 -0.310748,0.44338 -0.314537,1.30362 v 0.26906 q 0,0.84509 0.310747,1.31121 0.310748,0.46612 0.894347,0.46612 0.57223,0 0.879188,-0.44718 0.306958,-0.45096 0.310748,-1.3112 z" />
      <path
         id="path964"
         style="font-style:normal;font-variant:normal;font-weight:bold;font-stretch:normal;font-size:7.76111126px;font-family:Roboto;-inkscape-font-specification:'Roboto Bold';text-align:center;text-anchor:middle;fill:#1f567d;fill-opacity:1;stroke-width:0.26458332"
         d="m 104.53464,263.42397 q 0,0.9474 -0.43202,1.51963 -0.42822,0.56844 -1.15962,0.56844 -0.62149,0 -1.00424,-0.43201 v 1.93269 h -1.0952 v -5.67682 h 1.01561 l 0.0379,0.40169 q 0.39791,-0.47749 1.03835,-0.47749 0.75792,0 1.17857,0.56087 0.42065,0.56086 0.42065,1.54615 z m -1.0952,-0.0796 q 0,-0.57223 -0.20464,-0.88298 -0.20085,-0.31075 -0.58739,-0.31075 -0.51538,0 -0.70865,0.39412 v 1.6788 q 0.20085,0.40548 0.71623,0.40548 0.78445,0 0.78445,-1.28467 z" />
      <path
         id="path966"
         style="font-style:normal;font-variant:normal;font-weight:bold;font-stretch:normal;font-size:7.76111126px;font-family:Roboto;-inkscape-font-specification:'Roboto Bold';text-align:center;text-anchor:middle;fill:#1f567d;fill-opacity:1;stroke-width:0.26458332"
         d="m 107.09641,265.51204 q -0.90193,0 -1.47037,-0.55328 -0.56465,-0.55328 -0.56465,-1.47416 v -0.10611 q 0,-0.6177 0.23875,-1.10277 0.23874,-0.48886 0.67455,-0.75034 0.43959,-0.26528 1.00045,-0.26528 0.84129,0 1.32257,0.53055 0.48507,0.53054 0.48507,1.50447 v 0.44718 h -2.61103 q 0.053,0.40169 0.31832,0.64423 0.26906,0.24253 0.67834,0.24253 0.63287,0 0.98909,-0.45854 l 0.53812,0.60255 q -0.24632,0.34864 -0.66697,0.5457 -0.42064,0.19327 -0.93224,0.19327 z m -0.12506,-3.36517 q -0.3259,0 -0.53054,0.2198 -0.20085,0.2198 -0.2577,0.62907 h 1.52343 v -0.0872 q -0.008,-0.3638 -0.19706,-0.56086 -0.18948,-0.20085 -0.53813,-0.20085 z" />
      <path
         id="path968"
         style="font-style:normal;font-variant:normal;font-weight:bold;font-stretch:normal;font-size:7.76111126px;font-family:Roboto;-inkscape-font-specification:'Roboto Bold';text-align:center;text-anchor:middle;fill:#1f567d;fill-opacity:1;stroke-width:0.26458332"
         d="m 110.4161,261.3359 0.0341,0.4737 q 0.43959,-0.5495 1.17857,-0.5495 0.65181,0 0.97013,0.38275 0.31833,0.38275 0.32591,1.14446 v 2.64894 h -1.09519 v -2.62241 q 0,-0.34864 -0.15159,-0.50402 -0.15158,-0.15916 -0.50402,-0.15916 -0.46233,0 -0.69349,0.39412 v 2.89147 h -1.0952 v -4.10035 z" />
      <path
         id="path970"
         style="font-style:normal;font-variant:normal;font-weight:bold;font-stretch:normal;font-size:7.76111126px;font-family:Roboto;-inkscape-font-specification:'Roboto Bold';text-align:center;text-anchor:middle;fill:#1f567d;fill-opacity:1;stroke-width:0.26458332"
         d="m 117.15023,263.04501 h -2.18281 v 1.47794 h 2.56177 v 0.9133 h -3.69865 v -5.51767 h 3.69107 v 0.92088 h -2.55419 v 1.31499 h 2.18281 z" />
      <path
         id="path972"
         style="font-style:normal;font-variant:normal;font-weight:bold;font-stretch:normal;font-size:7.76111126px;font-family:Roboto;-inkscape-font-specification:'Roboto Bold';text-align:center;text-anchor:middle;fill:#1f567d;fill-opacity:1;stroke-width:0.26458332"
         d="m 119.13219,261.3359 0.0341,0.4737 q 0.43959,-0.5495 1.17857,-0.5495 0.65181,0 0.97014,0.38275 0.31832,0.38275 0.3259,1.14446 v 2.64894 h -1.09519 v -2.62241 q 0,-0.34864 -0.15159,-0.50402 -0.15158,-0.15916 -0.50402,-0.15916 -0.46233,0 -0.69349,0.39412 v 2.89147 h -1.0952 v -4.10035 z" />
      <path
         id="path974"
         style="font-style:normal;font-variant:normal;font-weight:bold;font-stretch:normal;font-size:7.76111126px;font-family:Roboto;-inkscape-font-specification:'Roboto Bold';text-align:center;text-anchor:middle;fill:#1f567d;fill-opacity:1;stroke-width:0.26458332"
         d="m 124.36185,265.51204 q -0.90193,0 -1.47037,-0.55328 -0.56465,-0.55328 -0.56465,-1.47416 v -0.10611 q 0,-0.6177 0.23875,-1.10277 0.23874,-0.48886 0.67455,-0.75034 0.43959,-0.26528 1.00045,-0.26528 0.84129,0 1.32257,0.53055 0.48507,0.53054 0.48507,1.50447 v 0.44718 h -2.61103 q 0.053,0.40169 0.31832,0.64423 0.26906,0.24253 0.67834,0.24253 0.63287,0 0.98909,-0.45854 l 0.53812,0.60255 q -0.24632,0.34864 -0.66697,0.5457 -0.42064,0.19327 -0.93224,0.19327 z m -0.12506,-3.36517 q -0.3259,0 -0.53054,0.2198 -0.20085,0.2198 -0.2577,0.62907 h 1.52343 v -0.0872 q -0.008,-0.3638 -0.19706,-0.56086 -0.18948,-0.20085 -0.53813,-0.20085 z" />
      <path
         id="path976"
         style="font-style:normal;font-variant:normal;font-weight:bold;font-stretch:normal;font-size:7.76111126px;font-family:Roboto;-inkscape-font-specification:'Roboto Bold';text-align:center;text-anchor:middle;fill:#1f567d;fill-opacity:1;stroke-width:0.26458332"
         d="m 128.97759,262.36288 q -0.22359,-0.0303 -0.39412,-0.0303 -0.62149,0 -0.81476,0.42065 v 2.68304 h -1.0952 v -4.10035 h 1.03456 l 0.0303,0.48886 q 0.32969,-0.56466 0.91329,-0.56466 0.1819,0 0.34107,0.0493 z" />
      <path
         id="path978"
         style="font-style:normal;font-variant:normal;font-weight:bold;font-stretch:normal;font-size:7.76111126px;font-family:Roboto;-inkscape-font-specification:'Roboto Bold';text-align:center;text-anchor:middle;fill:#1f567d;fill-opacity:1;stroke-width:0.26458332"
         d="m 129.27318,263.35576 q 0,-0.94362 0.44717,-1.51964 0.45096,-0.57602 1.21267,-0.57602 0.67455,0 1.04972,0.46234 l 0.0455,-0.38654 h 0.99288 v 3.96392 q 0,0.53813 -0.24633,0.93604 -0.24253,0.3979 -0.68592,0.60633 -0.44338,0.20843 -1.03835,0.20843 -0.45096,0 -0.87919,-0.1819 -0.42822,-0.17811 -0.64802,-0.46233 l 0.48507,-0.66697 q 0.40928,0.45854 0.99288,0.45854 0.4358,0 0.67834,-0.23496 0.24253,-0.23116 0.24253,-0.65939 v -0.21979 q -0.37896,0.42822 -0.99667,0.42822 -0.73897,0 -1.19751,-0.57602 -0.45475,-0.57981 -0.45475,-1.53479 z m 1.09519,0.0796 q 0,0.55707 0.22359,0.8754 0.22359,0.31453 0.61392,0.31453 0.50022,0 0.71623,-0.37517 v -1.72427 q -0.2198,-0.37517 -0.70866,-0.37517 -0.39411,0 -0.62149,0.32212 -0.22359,0.32211 -0.22359,0.96256 z" />
      <path
         id="path980"
         style="font-style:normal;font-variant:normal;font-weight:bold;font-stretch:normal;font-size:7.76111126px;font-family:Roboto;-inkscape-font-specification:'Roboto Bold';text-align:center;text-anchor:middle;fill:#1f567d;fill-opacity:1;stroke-width:0.26458332"
         d="m 135.3896,263.8863 0.75792,-2.5504 h 1.17478 l -1.64848,4.737 -0.0909,0.21601 q -0.36759,0.8034 -1.21267,0.8034 -0.23875,0 -0.48507,-0.072 v -0.82992 l 0.16674,0.004 q 0.31075,0 0.46233,-0.0947 0.15537,-0.0947 0.24253,-0.31454 l 0.12885,-0.33727 -1.43626,-4.11172 h 1.17857 z" />
      <path
         id="path982"
         style="font-style:normal;font-variant:normal;font-weight:bold;font-stretch:normal;font-size:7.76111126px;font-family:Roboto;-inkscape-font-specification:'Roboto Bold';text-align:center;text-anchor:middle;fill:#1f567d;fill-opacity:1;stroke-width:0.26458332"
         d="m 138.9632,263.49218 v 1.94407 h -1.13689 v -5.51767 h 2.1525 q 0.6215,0 1.09141,0.22738 0.4737,0.22738 0.7276,0.64802 0.2539,0.41686 0.2539,0.95119 0,0.81098 -0.55707,1.28089 -0.55328,0.46612 -1.53479,0.46612 z m 0,-0.92087 h 1.01561 q 0.45096,0 0.68592,-0.21222 0.23874,-0.21222 0.23874,-0.60634 0,-0.40549 -0.23874,-0.6556 -0.23875,-0.25011 -0.65939,-0.25769 h -1.04214 z" />
      <path
         id="path984"
         style="font-style:normal;font-variant:normal;font-weight:bold;font-stretch:normal;font-size:7.76111126px;font-family:Roboto;-inkscape-font-specification:'Roboto Bold';text-align:center;text-anchor:middle;fill:#1f567d;fill-opacity:1;stroke-width:0.26458332"
         d="m 143.91242,265.43625 h -1.09898 v -5.82083 h 1.09898 z" />
      <path
         id="path986"
         style="font-style:normal;font-variant:normal;font-weight:bold;font-stretch:normal;font-size:7.76111126px;font-family:Roboto;-inkscape-font-specification:'Roboto Bold';text-align:center;text-anchor:middle;fill:#1f567d;fill-opacity:1;stroke-width:0.26458332"
         d="m 147.19422,265.43625 q -0.0758,-0.1478 -0.1099,-0.36759 -0.3979,0.44338 -1.03456,0.44338 -0.60255,0 -1.00045,-0.34864 -0.39412,-0.34865 -0.39412,-0.87919 0,-0.65181 0.48128,-1.00046 0.48507,-0.34864 1.39836,-0.35243 h 0.50402 v -0.23496 q 0,-0.28422 -0.1478,-0.45475 -0.144,-0.17053 -0.45854,-0.17053 -0.27664,0 -0.4358,0.13264 -0.15538,0.13263 -0.15538,0.3638 h -1.09519 q 0,-0.35623 0.21979,-0.65939 0.2198,-0.30317 0.6215,-0.4737 0.4017,-0.17433 0.90193,-0.17433 0.75792,0 1.2013,0.38275 0.44717,0.37896 0.44717,1.06867 v 1.77733 q 0.004,0.5836 0.16296,0.88298 v 0.0644 z m -0.90571,-0.76171 q 0.24253,0 0.44717,-0.10611 0.20464,-0.1099 0.30317,-0.2918 v -0.70487 h -0.40928 q -0.82234,0 -0.8754,0.56844 l -0.004,0.0644 q 0,0.20464 0.14401,0.33727 0.144,0.13264 0.39412,0.13264 z" />
      <path
         id="path988"
         style="font-style:normal;font-variant:normal;font-weight:bold;font-stretch:normal;font-size:7.76111126px;font-family:Roboto;-inkscape-font-specification:'Roboto Bold';text-align:center;text-anchor:middle;fill:#1f567d;fill-opacity:1;stroke-width:0.26458332"
         d="m 150.29791,260.32786 v 1.00804 h 0.70107 v 0.80339 h -0.70107 v 2.04639 q 0,0.22738 0.0872,0.32591 0.0872,0.0985 0.33348,0.0985 0.1819,0 0.32212,-0.0265 v 0.82992 q -0.32212,0.0985 -0.66318,0.0985 -1.15204,0 -1.17478,-1.16341 v -2.20934 h -0.59876 v -0.80339 h 0.59876 v -1.00804 z" />
      <path
         id="path990"
         style="font-style:normal;font-variant:normal;font-weight:bold;font-stretch:normal;font-size:7.76111126px;font-family:Roboto;-inkscape-font-specification:'Roboto Bold';text-align:center;text-anchor:middle;fill:#1f567d;fill-opacity:1;stroke-width:0.26458332"
         d="m 151.90849,265.43625 v -3.29696 h -0.61013 v -0.80339 h 0.61013 v -0.34865 q 0,-0.68971 0.39412,-1.06867 0.39791,-0.38275 1.11035,-0.38275 0.22738,0 0.55707,0.0758 l -0.0114,0.84887 q -0.13642,-0.0341 -0.33348,-0.0341 -0.61771,0 -0.61771,0.57981 v 0.3297 h 0.81477 v 0.80339 h -0.81477 v 3.29696 z" />
      <path
         id="path992"
         style="font-style:normal;font-variant:normal;font-weight:bold;font-stretch:normal;font-size:7.76111126px;font-family:Roboto;-inkscape-font-specification:'Roboto Bold';text-align:center;text-anchor:middle;fill:#1f567d;fill-opacity:1;stroke-width:0.26458332"
         d="m 154.22773,263.34818 q 0,-0.61013 0.23495,-1.08762 0.23496,-0.47749 0.67455,-0.73897 0.44339,-0.26149 1.02699,-0.26149 0.82992,0 1.35288,0.50781 0.52676,0.50781 0.58739,1.37942 l 0.008,0.28043 q 0,0.94361 -0.52675,1.51584 -0.52676,0.56844 -1.41352,0.56844 -0.88677,0 -1.41732,-0.56844 -0.52675,-0.56844 -0.52675,-1.54616 z m 1.09519,0.0796 q 0,0.5836 0.2198,0.89434 0.2198,0.30696 0.62908,0.30696 0.3979,0 0.62149,-0.30317 0.22359,-0.30695 0.22359,-0.97771 0,-0.57223 -0.22359,-0.88677 -0.22359,-0.31454 -0.62907,-0.31454 -0.4017,0 -0.6215,0.31454 -0.2198,0.31075 -0.2198,0.96635 z" />
      <path
         id="path994"
         style="font-style:normal;font-variant:normal;font-weight:bold;font-stretch:normal;font-size:7.76111126px;font-family:Roboto;-inkscape-font-specification:'Roboto Bold';text-align:center;text-anchor:middle;fill:#1f567d;fill-opacity:1;stroke-width:0.26458332"
         d="m 161.09828,262.36288 q -0.22358,-0.0303 -0.39412,-0.0303 -0.62149,0 -0.81476,0.42065 v 2.68304 h -1.0952 v -4.10035 h 1.03456 l 0.0303,0.48886 q 0.3297,-0.56466 0.9133,-0.56466 0.1819,0 0.34106,0.0493 z" />
      <path
         id="path996"
         style="font-style:normal;font-variant:normal;font-weight:bold;font-stretch:normal;font-size:7.76111126px;font-family:Roboto;-inkscape-font-specification:'Roboto Bold';text-align:center;text-anchor:middle;fill:#1f567d;fill-opacity:1;stroke-width:0.26458332"
         d="m 162.65581,261.3359 0.0341,0.45854 q 0.43581,-0.53434 1.17857,-0.53434 0.79203,0 1.08762,0.62529 0.43201,-0.62529 1.23162,-0.62529 0.66697,0 0.99288,0.39033 0.3259,0.38654 0.3259,1.1672 v 2.61862 h -1.09898 v -2.61483 q 0,-0.34864 -0.13643,-0.50781 -0.13643,-0.16295 -0.48128,-0.16295 -0.49265,0 -0.68213,0.46991 l 0.004,2.81568 h -1.09519 v -2.61104 q 0,-0.35622 -0.14022,-0.51539 -0.14022,-0.15916 -0.47749,-0.15916 -0.46612,0 -0.67455,0.38654 v 2.89905 h -1.0952 v -4.10035 z" />
    </g>
    <path
       id="path941"
       d="m 131.15774,214.3959 v 21.31536"
       style="fill:none;stroke:#1f567d;stroke-width:1.37615705;stroke-linecap:butt;stroke-linejoin:miter;stroke-miterlimit:4;stroke-dasharray:1.37615704, 1.37615704;stroke-dashoffset:0;stroke-opacity:1" />
  </g>
  <style
     type="text/css"
     id="style831">
	.st0{fill:#000000;}
	.st1{fill:#000000;stroke:#000000;stroke-width:3.7986;stroke-linecap:round;stroke-miterlimit:10;}
	.st2{fill:#000000;stroke:#000000;stroke-width:9;stroke-miterlimit:10;}
	.st3{fill:none;stroke:#000000;stroke-width:4;stroke-miterlimit:10;}
</style>
</svg>
