<svg height='100px' width='100px'  fill="#000000" xmlns="http://www.w3.org/2000/svg" viewBox="0 0 64 64" x="0px" y="0px"><title>book, read</title><g><path d="M8,44.21c13.94-2.33,20.87,2.51,22.53,3.9V14.45c-3.55-2.22-10.88-5.19-23-3.16a1.49,1.49,0,0,0-1.25,1.48v30A1.49,1.49,0,0,0,8,44.21Zm5.22-25.68c.32,0,7.86-.52,12.52,3.29A1.5,1.5,0,0,1,26,23.93a1.48,1.48,0,0,1-1.16.55,1.52,1.52,0,0,1-.95-.33c-3.73-3-10.34-2.64-10.41-2.63a1.5,1.5,0,1,1-.21-3Zm0,8c.32,0,7.86-.51,12.52,3.3A1.5,1.5,0,0,1,26,32a1.5,1.5,0,0,1-2.11.21c-3.73-3.05-10.34-2.63-10.41-2.62a1.5,1.5,0,0,1-.21-3ZM56.09,44.21a1.49,1.49,0,0,0,1.74-1.48v-30a1.49,1.49,0,0,0-1.25-1.48c-12.14-2-19.48.94-23,3.16V48.12C35.21,46.72,42.14,41.88,56.09,44.21ZM38.35,21.82C43,18,50.55,18.5,50.87,18.53a1.5,1.5,0,1,1-.21,3c-.07,0-6.68-.42-10.41,2.63a1.52,1.52,0,0,1-1,.33,1.5,1.5,0,0,1-.95-2.66Zm.95,10.7a1.5,1.5,0,0,1-.95-2.66c4.66-3.81,12.2-3.32,12.52-3.3a1.5,1.5,0,0,1-.21,3c-.07,0-6.68-.43-10.41,2.62A1.48,1.48,0,0,1,39.3,32.52ZM62,17.88V47.79a1.49,1.49,0,0,1-1.75,1.48l-5-.83a39.23,39.23,0,0,0-6.53-.57c-7.27,0-10.67,2.15-12.83,4a5.86,5.86,0,0,1-7.83,0c-2.16-1.87-5.56-4-12.83-4a39.23,39.23,0,0,0-6.53.57l-5,.83A1.49,1.49,0,0,1,2,47.79V17.88a1.5,1.5,0,0,1,3,0V46l3.25-.54a41.82,41.82,0,0,1,7-.61c6.45,0,11,1.47,14.8,4.76a3,3,0,0,0,3.9,0c3.78-3.29,8.34-4.76,14.79-4.76a42,42,0,0,1,7,.61L59,46V17.88a1.5,1.5,0,0,1,3,0Z"></path></g></svg>