<?xml version="1.0" encoding="UTF-8"?>
<svg width="159.96956mm" height="143.98708mm" version="1.0" viewBox="0 0 604.60934 544.20308" xmlns="http://www.w3.org/2000/svg" xmlns:cc="http://creativecommons.org/ns#" xmlns:dc="http://purl.org/dc/elements/1.1/" xmlns:rdf="http://www.w3.org/1999/02/22-rdf-syntax-ns#">
<metadata>
<rdf:RDF>
<cc:Work rdf:about="">
<dc:format>image/svg+xml</dc:format>
<dc:type rdf:resource="http://purl.org/dc/dcmitype/StillImage"/>
<dc:title/>
</cc:Work>
</rdf:RDF>
</metadata>
<path d="m302.30469 0c-166.95132 0-302.30469 135.35337-302.30469 302.30469-9.9999999e-8 98.93896 47.517073 186.75347 120.96485 241.89843l56.77539-75.72656c-50.96117-37.88897-83.98438-98.56775-83.98438-166.97266 0-114.81404 93.05604-207.9082 207.83008-207.9082 114.79404 0 207.82813 93.09416 207.82813 207.9082 0 67.94803-32.57709 128.27128-82.95704 166.20899l57.29493 76.41992c73.39268-55.14918 120.85742-142.93019 120.85742-241.82812 0-166.95132-135.31336-302.30469-302.30469-302.30469z" fill="#1f567d" fill-rule="evenodd"/>
<g transform="translate(-8.55859 -.08007812)" stroke-width="0">
<path d="m236.2991 249.81445v29.64258c7.03216 6.97591 14.06432 13.95182 21.09648 20.92774h106.06863c7.02495-6.97592 14.0499-13.95183 21.07485-20.92774v-29.64258l-21.07485-20.94531h-106.06863z" fill="#1f567d" opacity=".41000001"/>
<path d="m388.53906 325.49219v29.64062c6.98242 6.97591 13.96485 13.95183 20.94727 20.92774h29.64258c6.97591-6.97591 13.95182-13.95183 20.92773-20.92774v-29.64062c-6.97591-6.98242-13.95182-13.96485-20.92773-20.94727h-29.64258z" fill="#20587c" fill-opacity=".25098039"/>
<path d="m388.53906 249.81641v29.64062c6.98242 6.97591 13.96485 13.95183 20.94727 20.92774h29.64258c6.97591-6.97591 13.95182-13.95183 20.92773-20.92774v-29.64062c-6.97591-6.98242-13.95182-13.96485-20.92773-20.94727h-29.64258z" fill="#1f567e" fill-opacity=".54901961"/>
<path d="m312.53906 174.27861v29.64062c6.98242 6.97591 13.96485 13.95183 20.94727 20.92774h29.64258c6.97591-6.97591 13.95182-13.95183 20.92773-20.92774v-29.64062c-6.97591-6.98242-13.95182-13.96485-20.92773-20.94727h-29.64258z" fill="#1f567d" opacity=".25"/>
<path d="m236.53906 174.27861v29.64062c6.98242 6.97591 13.96485 13.95183 20.94727 20.92774h29.64258c6.97591-6.97591 13.95182-13.95183 20.92773-20.92774v-29.64062c-6.97591-6.98242-13.95182-13.96485-20.92773-20.94727h-29.64258z" fill="#1f567d" opacity=".55"/>
<path d="m237.32548 325.49219v29.64062c6.98242 6.97591 13.96485 13.95183 20.94727 20.92774h29.64258c6.97591-6.97591 13.95182-13.95183 20.92773-20.92774v-29.64062c-6.97591-6.98242-13.95182-13.96485-20.92773-20.94727h-29.64258z" fill="#20567d" fill-opacity=".40784314"/>
<path d="m161.84976 325.49219v29.64062c6.98242 6.97591 13.96485 13.95183 20.94727 20.92774h29.64258c6.97591-6.97591 13.95182-13.95183 20.92773-20.92774v-29.64062c-6.97591-6.98242-13.95182-13.96485-20.92773-20.94727h-29.64258z" fill="#1f567e" fill-opacity=".54901961"/>
<path d="m237.32548 401.49219v29.64062c6.98242 6.97591 13.96485 13.95183 20.94727 20.92774h29.64258c6.97591-6.97591 13.95182-13.95183 20.92773-20.92774v-29.64062c-6.97591-6.98242-13.95182-13.96485-20.92773-20.94727h-29.64258z" fill="#1f567e" fill-opacity=".54901961"/>
</g>
</svg>
