<?xml version="1.0" encoding="UTF-8" standalone="no"?>
<svg
   xmlns:dc="http://purl.org/dc/elements/1.1/"
   xmlns:cc="http://creativecommons.org/ns#"
   xmlns:rdf="http://www.w3.org/1999/02/22-rdf-syntax-ns#"
   xmlns:svg="http://www.w3.org/2000/svg"
   xmlns="http://www.w3.org/2000/svg"
   viewBox="0 0 329.50668 154.58667"
   height="154.58667"
   width="329.50668"
   xml:space="preserve"
   id="svg2"
   version="1.1"><metadata
     id="metadata8"><rdf:RDF><cc:Work
         rdf:about=""><dc:format>image/svg+xml</dc:format><dc:type
           rdf:resource="http://purl.org/dc/dcmitype/StillImage" /></cc:Work></rdf:RDF></metadata><defs
     id="defs6" /><g
     transform="matrix(1.3333333,0,0,-1.3333333,0,154.58667)"
     id="g10"><g
       transform="scale(0.1)"
       id="g12"><path
         id="path14"
         style="fill:#5e5b5c;fill-opacity:1;fill-rule:nonzero;stroke:none"
         d="m 862.52,491.063 h -23.465 v 8.687 h 33.461 v -50.262 c -10.286,-4.492 -20.289,-6.218 -31.442,-6.218 -31.871,0 -50.984,20.984 -50.984,52.285 0,30.711 19.695,52.285 50.984,52.285 7.68,0 20.281,-1.289 27.09,-4.777 l -1.152,-9.266 c -7.824,4.336 -17.102,5.351 -25.938,5.351 -26.211,0 -40.996,-18.527 -40.996,-43.593 0,-25.508 14.352,-43.606 40.996,-43.606 6.223,0 16.66,0.723 21.446,3.614 v 35.5" /><path
         id="path16"
         style="fill:#5e5b5c;fill-opacity:1;fill-rule:nonzero;stroke:none"
         d="m 941.898,487.145 c 0,12.89 -5.214,25.636 -18.832,25.636 -13.48,0 -21.734,-13.468 -21.734,-25.636 z m 4.489,-39.832 c -6.371,-2.598 -14.629,-4.043 -21.449,-4.043 -24.473,0 -33.598,16.503 -33.598,38.66 0,22.609 12.461,38.691 31.148,38.691 20.856,0 29.407,-16.816 29.407,-36.66 v -4.629 h -50.563 c 0,-15.664 8.398,-28.25 24.336,-28.25 6.668,0 16.367,2.754 20.719,5.508 v -9.277" /><path
         id="path18"
         style="fill:#5e5b5c;fill-opacity:1;fill-rule:nonzero;stroke:none"
         d="m 969.27,502.359 c 0,8.106 0,11.141 -0.579,16.504 h 9.129 v -14.187 h 0.285 c 3.336,8.262 9.571,15.945 18.985,15.945 2.172,0 4.78,-0.437 6.37,-0.887 v -9.55 c -1.88,0.574 -4.351,0.867 -6.659,0.867 -14.496,0 -18.406,-16.219 -18.406,-29.551 v -36.504 h -9.125 v 57.363" /><path
         id="path20"
         style="fill:#5e5b5c;fill-opacity:1;fill-rule:nonzero;stroke:none"
         d="m 1106.74,444.996 v 49.102 c 0,10.441 -3.91,18.683 -15.66,18.683 -9.98,0 -19.83,-8.535 -19.83,-26.933 v -40.852 h -9.13 v 49.102 c 0,10.441 -3.91,18.683 -15.64,18.683 -9.99,0 -19.85,-8.535 -19.85,-26.933 v -40.852 h -9.13 v 56.496 c 0,5.645 0,11.446 -0.58,17.371 h 8.85 v -12.449 l 0.28,-0.137 c 2.91,5.059 7.25,14.344 23.04,14.344 6.52,0 17.23,-2.773 19.56,-15.652 h 0.29 c 3.33,8.679 12.01,15.652 23.6,15.652 14.92,0 23.32,-10.437 23.32,-24.785 v -50.84 h -9.12" /><path
         id="path22"
         style="fill:#5e5b5c;fill-opacity:1;fill-rule:nonzero;stroke:none"
         d="m 1179.74,482.223 h -2.6 c -15.79,0 -34.62,-1.602 -34.62,-17.813 0,-9.707 6.95,-13.328 15.36,-13.328 21.43,0 21.86,18.68 21.86,26.66 z m 0.87,-25.352 h -0.29 c -4.05,-8.828 -14.33,-13.601 -23.46,-13.601 -21.01,0 -24.34,14.187 -24.34,20.847 0,24.766 26.36,25.93 45.48,25.93 h 1.74 v 3.769 c 0,12.598 -4.49,18.965 -16.8,18.965 -7.68,0 -14.91,-1.73 -21.72,-6.086 v 8.84 c 5.65,2.754 15.2,5.086 21.72,5.086 18.26,0 25.93,-8.269 25.93,-27.527 v -32.598 c 0,-5.937 0,-10.43 0.72,-15.5 h -8.98 v 11.875" /><path
         id="path24"
         style="fill:#5e5b5c;fill-opacity:1;fill-rule:nonzero;stroke:none"
         d="m 1210.59,501.492 c 0,5.645 0,11.446 -0.57,17.371 h 8.84 v -13.172 h 0.29 c 3.03,6.661 8.54,14.93 23.9,14.93 18.25,0 25.21,-12.168 25.21,-28.406 v -47.219 h -9.13 v 44.914 c 0,13.895 -4.94,22.871 -17.54,22.871 -16.65,0 -21.87,-14.609 -21.87,-26.933 v -40.852 h -9.13 v 56.496" /><path
         id="path26"
         style="fill:#5e5b5c;fill-opacity:1;fill-rule:nonzero;stroke:none"
         d="m 1368.2,536.539 -22.01,-55.762 h 43.89 z m -4.93,9.57 h 11.31 l 40.12,-101.113 h -10.43 l -10.86,27.102 h -50.99 l -10.87,-27.102 h -9.7 l 41.42,101.113" /><path
         id="path28"
         style="fill:#5e5b5c;fill-opacity:1;fill-rule:nonzero;stroke:none"
         d="m 1473.07,487.145 c 0,12.89 -5.2,25.636 -18.83,25.636 -13.47,0 -21.72,-13.468 -21.72,-25.636 z m 4.49,-39.832 c -6.37,-2.598 -14.63,-4.043 -21.44,-4.043 -24.47,0 -33.6,16.503 -33.6,38.66 0,22.609 12.46,38.691 31.14,38.691 20.86,0 29.41,-16.816 29.41,-36.66 v -4.629 h -50.55 c 0,-15.664 8.39,-28.25 24.34,-28.25 6.65,0 16.36,2.754 20.7,5.508 v -9.277" /><path
         id="path30"
         style="fill:#5e5b5c;fill-opacity:1;fill-rule:nonzero;stroke:none"
         d="m 1500.45,502.359 c 0,8.106 0,11.141 -0.57,16.504 h 9.13 v -14.187 h 0.29 c 3.33,8.262 9.55,15.945 18.96,15.945 2.17,0 4.78,-0.437 6.37,-0.887 v -9.55 c -1.88,0.574 -4.35,0.867 -6.66,0.867 -14.48,0 -18.39,-16.219 -18.39,-29.551 v -36.504 h -9.13 v 57.363" /><path
         id="path32"
         style="fill:#5e5b5c;fill-opacity:1;fill-rule:nonzero;stroke:none"
         d="m 1574.9,451.082 c 15.94,0 24.48,13.77 24.48,30.848 0,17.101 -8.54,30.851 -24.48,30.851 -15.93,0 -24.47,-13.75 -24.47,-30.851 0,-17.078 8.54,-30.848 24.47,-30.848 z m 0,69.539 c 23.91,0 34.47,-18.543 34.47,-38.691 0,-20.137 -10.56,-38.66 -34.47,-38.66 -23.9,0 -34.47,18.523 -34.47,38.66 0,20.148 10.57,38.691 34.47,38.691" /><path
         id="path34"
         style="fill:#5e5b5c;fill-opacity:1;fill-rule:nonzero;stroke:none"
         d="m 1620.97,455.719 c 5.5,-2.742 12.18,-4.637 19.27,-4.637 8.69,0 16.37,4.785 16.37,13.172 0,17.539 -35.49,14.777 -35.49,36.223 0,14.636 11.88,20.144 24.03,20.144 3.93,0 11.74,-0.887 18.25,-3.34 l -0.87,-7.957 c -4.77,2.168 -11.28,3.457 -16.36,3.457 -9.42,0 -15.93,-2.883 -15.93,-12.304 0,-13.762 36.37,-12.032 36.37,-36.223 0,-15.633 -14.64,-20.984 -25.79,-20.984 -7.09,0 -14.21,0.855 -20.72,3.464 l 0.87,8.985" /><path
         id="path36"
         style="fill:#5e5b5c;fill-opacity:1;fill-rule:nonzero;stroke:none"
         d="m 1713.09,512.781 c -16.21,0 -21.86,-17.363 -21.86,-30.851 0,-13.465 5.65,-30.848 21.86,-30.848 17.42,0 21.89,16.512 21.89,30.848 0,14.347 -4.47,30.851 -21.89,30.851 z m -30.98,6.082 h 9.12 l -0.57,-13.465 h 0.3 c 2.32,4.063 7.97,15.223 23.61,15.223 21.72,0 30.41,-16.23 30.41,-38.691 0,-21.875 -10.14,-38.66 -30.41,-38.66 -11.6,0 -18.55,4.773 -23.05,14.324 h -0.29 v -43.028 h -9.12 v 104.297" /><path
         id="path38"
         style="fill:#5e5b5c;fill-opacity:1;fill-rule:nonzero;stroke:none"
         d="m 1805.12,482.223 h -2.62 c -15.82,0 -34.63,-1.602 -34.63,-17.813 0,-9.707 6.93,-13.328 15.35,-13.328 21.43,0 21.9,18.68 21.9,26.66 z m 0.86,-25.352 h -0.3 c -4.06,-8.828 -14.35,-13.601 -23.49,-13.601 -21,0 -24.32,14.187 -24.32,20.847 0,24.766 26.35,25.93 45.49,25.93 h 1.76 v 3.769 c 0,12.598 -4.53,18.965 -16.84,18.965 -7.67,0 -14.92,-1.73 -21.72,-6.086 v 8.84 c 5.65,2.754 15.2,5.086 21.72,5.086 18.26,0 25.94,-8.269 25.94,-27.527 v -32.598 c 0,-5.937 0,-10.43 0.74,-15.5 h -8.98 v 11.875" /><path
         id="path40"
         style="fill:#5e5b5c;fill-opacity:1;fill-rule:nonzero;stroke:none"
         d="m 1884.02,509.02 c -4.92,2.179 -10.84,3.761 -15.78,3.761 -17.79,0 -27.81,-12.883 -27.81,-30.851 0,-16.785 10.16,-30.848 26.82,-30.848 5.78,0 11.13,1.309 16.64,3.34 l 0.86,-8.555 c -6.21,-2.179 -12.04,-2.597 -18.97,-2.597 -23.75,0 -35.35,18.093 -35.35,38.66 0,22.746 14.63,38.691 36.52,38.691 8.83,0 15.2,-2.051 17.8,-2.91 l -0.73,-8.691" /><path
         id="path42"
         style="fill:#5e5b5c;fill-opacity:1;fill-rule:nonzero;stroke:none"
         d="m 1945.31,487.145 c 0,12.89 -5.21,25.636 -18.83,25.636 -13.47,0 -21.73,-13.468 -21.73,-25.636 z m 4.49,-39.832 c -6.38,-2.598 -14.62,-4.043 -21.42,-4.043 -24.51,0 -33.63,16.503 -33.63,38.66 0,22.609 12.46,38.691 31.17,38.691 20.82,0 29.39,-16.816 29.39,-36.66 v -4.629 h -50.56 c 0,-15.664 8.41,-28.25 24.33,-28.25 6.66,0 16.37,2.754 20.72,5.508 v -9.277" /><path
         id="path44"
         style="fill:#5e5b5c;fill-opacity:1;fill-rule:nonzero;stroke:none"
         d="m 2083.34,534.813 c -6.37,3.32 -15.49,4.335 -22.58,4.335 -26.23,0 -40.99,-18.527 -40.99,-43.593 0,-25.508 14.31,-43.606 40.99,-43.606 6.66,0 16.82,0.879 22.58,4.348 l 0.59,-8.703 c -5.49,-3.328 -16.82,-4.324 -23.17,-4.324 -31.85,0 -50.99,20.984 -50.99,52.285 0,30.711 19.7,52.285 50.99,52.285 5.94,0 17.95,-1.008 23.17,-3.77 l -0.59,-9.257" /><path
         id="path46"
         style="fill:#5e5b5c;fill-opacity:1;fill-rule:nonzero;stroke:none"
         d="m 2154.61,487.145 c 0,12.89 -5.2,25.636 -18.81,25.636 -13.48,0 -21.72,-13.468 -21.72,-25.636 z m 4.49,-39.832 c -6.37,-2.598 -14.63,-4.043 -21.42,-4.043 -24.48,0 -33.62,16.503 -33.62,38.66 0,22.609 12.48,38.691 31.15,38.691 20.86,0 29.42,-16.816 29.42,-36.66 v -4.629 h -50.55 c 0,-15.664 8.4,-28.25 24.32,-28.25 6.66,0 16.37,2.754 20.7,5.508 v -9.277" /><path
         id="path48"
         style="fill:#5e5b5c;fill-opacity:1;fill-rule:nonzero;stroke:none"
         d="m 2181.99,501.492 c 0,5.645 0,11.446 -0.56,17.371 h 8.8 v -13.172 h 0.32 c 3.02,6.661 8.55,14.93 23.88,14.93 18.27,0 25.24,-12.168 25.24,-28.406 v -47.219 h -9.14 v 44.914 c 0,13.895 -4.94,22.871 -17.54,22.871 -16.66,0 -21.86,-14.609 -21.86,-26.933 v -40.852 h -9.14 v 56.496" /><path
         id="path50"
         style="fill:#5e5b5c;fill-opacity:1;fill-rule:nonzero;stroke:none"
         d="m 2294.41,511.051 h -16.83 V 463.25 c 0,-6.66 2.5,-12.168 9.86,-12.168 3.48,0 5.8,0.723 8.42,1.746 l 0.57,-7.547 c -2.17,-0.871 -6.66,-2.011 -11.14,-2.011 -16.23,0 -16.81,11.152 -16.81,24.605 v 43.176 H 2254 v 7.812 h 14.48 v 17.813 l 9.1,3.195 v -21.008 h 16.83 v -7.812" /><path
         id="path52"
         style="fill:#5e5b5c;fill-opacity:1;fill-rule:nonzero;stroke:none"
         d="m 2355.82,487.145 c 0,12.89 -5.21,25.636 -18.83,25.636 -13.45,0 -21.74,-13.468 -21.74,-25.636 z m 4.49,-39.832 c -6.38,-2.598 -14.63,-4.043 -21.44,-4.043 -24.46,0 -33.6,16.503 -33.6,38.66 0,22.609 12.44,38.691 31.14,38.691 20.88,0 29.41,-16.816 29.41,-36.66 v -4.629 h -50.57 c 0,-15.664 8.42,-28.25 24.36,-28.25 6.66,0 16.35,2.754 20.7,5.508 v -9.277" /><path
         id="path54"
         style="fill:#5e5b5c;fill-opacity:1;fill-rule:nonzero;stroke:none"
         d="m 2383.2,502.359 c 0,8.106 0,11.141 -0.56,16.504 h 9.1 v -14.187 h 0.31 c 3.32,8.262 9.55,15.945 18.99,15.945 2.14,0 4.76,-0.437 6.34,-0.887 v -9.55 c -1.87,0.574 -4.35,0.867 -6.64,0.867 -14.49,0 -18.42,-16.219 -18.42,-29.551 v -36.504 h -9.12 v 57.363" /><path
         id="path56"
         style="fill:#5e5b5c;fill-opacity:1;fill-rule:nonzero;stroke:none"
         d="m 836.41,703.512 h -18.109 v 9.933 c 0,6.192 2.16,12.215 9.109,12.215 4.508,0 7.106,-1.668 9,-2.801 l 1.695,17.207 c -4.007,0.926 -9.902,1.719 -15.183,1.719 -16.418,0 -25.383,-11.164 -25.383,-27.129 v -11.144 h -15.336 v -15.164 h 15.336 v -64.602 h 20.762 v 64.602 h 18.109 v 15.164" /><path
         id="path58"
         style="fill:#5e5b5c;fill-opacity:1;fill-rule:nonzero;stroke:none"
         d="m 899.895,664.5 c 0,-10.215 -3.27,-26.477 -18.29,-26.477 -13.312,0 -13.476,13.165 -13.476,22.922 v 42.567 H 847.41 v -50.321 c 0,-17.961 8.188,-31.289 27.082,-31.289 10.875,0 19.821,4.961 26.172,12.684 h 0.332 v -10.84 h 19.645 v 79.766 H 899.895 V 664.5" /><path
         id="path60"
         style="fill:#5e5b5c;fill-opacity:1;fill-rule:nonzero;stroke:none"
         d="m 1307.57,640.184 c -2.21,-1.399 -5.73,-2.161 -9.45,-2.161 -7.9,0 -9.76,6.348 -9.76,13.165 v 37.16 h 18.42 v 15.164 h -18.42 v 22.617 l -20.79,-6.66 v -15.957 h -15.29 v -15.164 h 15.29 V 647.75 c 0,-15.77 9.02,-25.848 25.28,-25.848 6.22,0 10.98,0.625 15.34,1.844 l -0.62,16.438" /><path
         id="path62"
         style="fill:#5e5b5c;fill-opacity:1;fill-rule:nonzero;stroke:none"
         d="m 1163.59,634.586 v -10.84 h 19.67 v 79.766 H 1162.5 V 664.5 c 0,-10.215 -3.26,-26.477 -18.28,-26.477 -13.27,0 -13.46,13.165 -13.46,22.922 v 42.567 h -20.73 v -50.321 c 0,-17.961 8.21,-31.289 27.09,-31.289 10.83,0 19.82,4.961 26.18,12.684 h 0.29" /><path
         id="path64"
         style="fill:#5e5b5c;fill-opacity:1;fill-rule:nonzero;stroke:none"
         d="m 1249.07,703.512 h -18.15 v 9.933 c 0,6.192 2.18,12.215 9.13,12.215 4.53,0 7.12,-1.668 9.02,-2.801 l 1.7,17.207 c -4.07,0.926 -9.94,1.719 -15.21,1.719 -16.38,0 -25.37,-11.164 -25.37,-27.129 v -11.144 h -15.31 v -15.164 h 15.31 v -64.602 h 20.73 v 64.602 h 18.15 v 15.164" /><path
         id="path66"
         style="fill:#5e5b5c;fill-opacity:1;fill-rule:nonzero;stroke:none"
         d="m 1041.28,813.484 h 0.28 v -10.839 h 19.68 v 79.765 h -20.77 v -39.062 c 0,-10.196 -3.22,-26.446 -18.25,-26.446 -13.3,0 -13.47,13.172 -13.47,22.911 v 42.597 h -20.762 v -50.344 c 0,-17.949 8.219,-31.257 27.102,-31.257 10.85,0 19.83,4.941 26.19,12.675" /><path
         id="path68"
         style="fill:#5e5b5c;fill-opacity:1;fill-rule:nonzero;stroke:none"
         d="m 1635.39,819.656 h -52.38 l 51.25,73.446 v 17.648 h -71.81 v -17.043 h 48.79 l -50.86,-73.398 v -17.664 h 75.01 v 17.011" /><path
         id="path70"
         style="fill:#5e5b5c;fill-opacity:1;fill-rule:nonzero;stroke:none"
         d="m 1402.02,869.098 c 11.63,0 16.24,-8.66 16.87,-18.739 h -35.31 c 0.91,10.664 6.82,18.739 18.44,18.739 z m -18.44,-32.996 h 55.09 c 0,27.898 -8.34,48.183 -37.9,48.183 -24.78,0 -37.05,-19.055 -37.05,-42.14 0,-26.192 15.34,-41.336 41.71,-41.336 11.16,0 19.8,2.148 27.36,6.328 v 16.894 c -7.7,-4.375 -16.39,-8.078 -26.49,-8.078 -12.83,0 -21.81,7.297 -22.72,20.149" /><path
         id="path72"
         style="fill:#5e5b5c;fill-opacity:1;fill-rule:nonzero;stroke:none"
         d="m 1296.85,841.688 c 0,10.203 3.28,26.472 18.25,26.472 13.35,0 13.47,-13.172 13.47,-22.949 v -42.566 h 20.8 v 50.3 c 0,18 -8.22,31.34 -27.13,31.34 -10.8,0 -19.8,-4.972 -25.08,-12.707 h -0.31 v 47.227 h -20.76 v -116.16 h 20.76 v 39.043" /><path
         id="path74"
         style="fill:#5e5b5c;fill-opacity:1;fill-rule:nonzero;stroke:none"
         d="m 1751.7,841.688 c 0,10.203 3.24,26.472 18.26,26.472 13.32,0 13.48,-13.172 13.48,-22.949 v -42.566 h 20.74 v 50.3 c 0,18 -8.18,31.34 -27.13,31.34 -10.78,0 -19.65,-3.566 -26.13,-12.707 h -0.31 v 10.832 h -19.65 v -79.765 h 20.74 v 39.043" /><path
         id="path76"
         style="fill:#5e5b5c;fill-opacity:1;fill-rule:nonzero;stroke:none"
         d="m 1964.96,800.809 c 10.82,0 19.77,4.941 26.15,12.675 h 0.28 v -10.839 h 19.68 v 79.765 h -20.72 v -39.062 c 0,-10.196 -3.26,-26.446 -18.3,-26.446 -13.3,0 -13.48,13.172 -13.48,22.911 v 42.597 h -20.76 v -50.344 c 0,-17.949 8.23,-31.257 27.15,-31.257" /><path
         id="path78"
         style="fill:#5e5b5c;fill-opacity:1;fill-rule:nonzero;stroke:none"
         d="m 2383.83,653.016 c 0,11.484 0,32.547 16.87,32.547 3.69,0 7.43,-0.614 9.3,-1.747 v 20.965 c -2.15,0.586 -4.34,0.586 -6.33,0.586 -12.38,0 -20.92,-12.539 -21.87,-19.941 h -0.3 v 18.086 h -18.41 v -79.766 h 20.74 v 29.27" /><path
         id="path80"
         style="fill:#5e5b5c;fill-opacity:1;fill-rule:nonzero;stroke:none"
         d="m 1243.43,800.809 c 8.51,0 14.73,0.761 20.74,2.625 l -0.92,17.168 c -3.55,-1.543 -10.06,-3.7 -15.94,-3.7 -14.55,0 -21.53,11.297 -21.53,26.016 0,15.027 8.23,25.242 21.06,25.242 6.35,0 10.39,-1.238 14.09,-2.93 l 1.85,16.387 c -5.71,1.731 -11.76,2.668 -20.13,2.668 -24.93,0 -38.52,-18.273 -38.52,-41.367 0,-24.297 13.16,-42.109 39.3,-42.109" /><path
         id="path82"
         style="fill:#5e5b5c;fill-opacity:1;fill-rule:nonzero;stroke:none"
         d="m 1901.46,831.93 c 0,11.418 0,32.5 16.84,32.5 3.71,0 7.44,-0.606 9.3,-1.719 v 20.949 c -2.13,0.625 -4.34,0.625 -6.35,0.625 -12.38,0 -20.92,-12.57 -21.84,-20 h -0.29 v 18.125 h -18.46 v -79.765 h 20.8 v 29.285" /><path
         id="path84"
         style="fill:#5e5b5c;fill-opacity:1;fill-rule:nonzero;stroke:none"
         d="m 1828.65,826.656 c 0,-15.789 8.95,-25.847 25.26,-25.847 6.15,0 10.95,0.593 15.31,1.836 l -0.65,16.414 c -2.14,-1.387 -5.7,-2.157 -9.39,-2.157 -7.91,0 -9.79,6.348 -9.79,13.172 v 37.16 h 18.44 v 15.176 h -18.44 v 22.606 l -20.74,-6.661 V 882.41 h -15.31 v -15.176 h 15.31 v -40.578" /><path
         id="path86"
         style="fill:#5e5b5c;fill-opacity:1;fill-rule:nonzero;stroke:none"
         d="m 909.039,736.031 h -17.984 v -17.937 h 17.984 v 17.937" /><path
         id="path88"
         style="fill:#5e5b5c;fill-opacity:1;fill-rule:nonzero;stroke:none"
         d="m 830.645,819.656 h -12.059 v 74.051 h 12.059 c 18.125,0 35.609,-13.465 35.609,-37 0,-23.555 -17.484,-37.051 -35.609,-37.051 z m -4.176,91.094 H 796.875 V 802.645 h 29.594 c 33.136,0 62.41,11.14 62.41,54.062 0,42.879 -29.274,54.043 -62.41,54.043" /><path
         id="path90"
         style="fill:#5e5b5c;fill-opacity:1;fill-rule:nonzero;stroke:none"
         d="m 859.164,718.094 h 17.981 v 17.937 h -17.981 v -17.937" /><path
         id="path92"
         style="fill:#5e5b5c;fill-opacity:1;fill-rule:nonzero;stroke:none"
         d="m 1087.56,826.656 c 0,-15.789 8.98,-25.847 25.22,-25.847 6.19,0 11,0.593 15.36,1.836 l -0.65,16.414 c -2.13,-1.387 -5.69,-2.157 -9.42,-2.157 -7.88,0 -9.76,6.348 -9.76,13.172 v 37.16 h 18.41 v 15.176 h -18.41 v 22.606 l -20.75,-6.661 V 882.41 h -15.32 v -15.176 h 15.32 v -40.578" /><path
         id="path94"
         style="fill:#5e5b5c;fill-opacity:1;fill-rule:nonzero;stroke:none"
         d="m 1173.96,825.719 c 0,-7.742 -8.4,-9.766 -13.65,-9.766 -7.12,0 -13.91,2.024 -20.41,5.285 l -1.24,-17.043 c 7.57,-2.019 15.63,-3.386 23.53,-3.386 16.87,0 33.42,7.402 33.42,25.996 0,28.808 -36.07,20.769 -36.07,33.476 0,6.778 6.66,8.817 12.23,8.817 7.59,0 12.22,-1.239 18.58,-3.418 l 1.37,15.644 c -6.47,1.387 -12.83,2.961 -22.58,2.961 -16.24,0 -31.25,-7.609 -31.25,-24.816 0,-28.77 36.07,-18.094 36.07,-33.75" /><path
         id="path96"
         style="fill:#5e5b5c;fill-opacity:1;fill-rule:nonzero;stroke:none"
         d="M 1039.57,731.883 V 623.746 h 63.67 v 17.051 h -41.96 v 91.086 h -21.71" /><path
         id="path98"
         style="fill:#5e5b5c;fill-opacity:1;fill-rule:nonzero;stroke:none"
         d="m 958.434,685.426 h -0.309 v 18.086 h -18.43 v -79.766 h 20.774 v 29.27 c 0,11.484 0,32.547 16.844,32.547 3.75,0 7.468,-0.614 9.296,-1.747 v 20.965 c -2.152,0.586 -4.32,0.586 -6.332,0.586 -12.406,0 -20.925,-12.539 -21.843,-19.941" /><path
         id="path100"
         style="fill:#5e5b5c;fill-opacity:1;fill-rule:nonzero;stroke:none"
         d="m 938.121,869.098 c 11.598,0 16.25,-8.66 16.875,-18.739 h -35.308 c 0.953,10.664 6.82,18.739 18.433,18.739 z m -18.433,-32.996 h 55.152 c 0,27.898 -8.36,48.183 -37.969,48.183 -24.769,0 -37.012,-19.055 -37.012,-42.14 0,-26.192 15.313,-41.336 41.68,-41.336 11.137,0 19.816,2.148 27.43,6.328 v 16.894 c -7.774,-4.375 -16.434,-8.078 -26.504,-8.078 -12.86,0 -21.824,7.297 -22.777,20.149" /><path
         id="path102"
         style="fill:#5e5b5c;fill-opacity:1;fill-rule:nonzero;stroke:none"
         d="m 1313.76,656.902 h 40.7 v 17.032 h -40.7 v -17.032" /><path
         id="path104"
         style="fill:#5e5b5c;fill-opacity:1;fill-rule:nonzero;stroke:none"
         d="m 2228.36,644.195 c -3.28,-4.324 -8.22,-7.129 -14.55,-7.129 -7.46,0 -13.15,2.95 -13.15,9.778 0,12.234 13.77,13.769 23.07,13.769 h 8.97 c 0,-6.191 -0.96,-11.914 -4.34,-16.418 z m 23.53,-2.636 c -0.17,5.918 -0.31,11.953 -0.31,19.98 v 10.234 c 0,23.536 -10.1,33.594 -34.35,33.594 -8.89,0 -19.67,-2.312 -27.74,-6.043 l 0.59,-17.773 c 6.99,5.262 15.8,8.66 24.65,8.66 12.26,0 17.97,-4.344 17.97,-17.176 h -11.45 c -8.67,0 -18.96,-0.82 -26.8,-4.668 -7.91,-3.867 -13.63,-10.832 -13.63,-22.773 0,-15.168 13.79,-23.692 27.93,-23.692 9.39,0 19.77,4.961 24.51,13.789 h 0.37 c 0.12,-2.461 0.12,-7.734 0.94,-11.945 h 18.28 c -0.53,6.203 -0.8,11.789 -0.96,17.813" /><path
         id="path106"
         style="fill:#5e5b5c;fill-opacity:1;fill-rule:nonzero;stroke:none"
         d="m 2138.38,623.746 h 20.78 v 64.602 h 18.11 v 15.164 h -18.11 v 9.933 c 0,6.192 2.17,12.215 9.12,12.215 4.53,0 7.11,-1.668 8.99,-2.801 l 1.69,17.207 c -4.02,0.926 -9.92,1.719 -15.19,1.719 -16.39,0 -25.39,-11.164 -25.39,-27.129 v -11.144 h -15.31 v -15.164 h 15.31 v -64.602" /><path
         id="path108"
         style="fill:#5e5b5c;fill-opacity:1;fill-rule:nonzero;stroke:none"
         d="m 2088.2,705.367 c -9.74,0 -20.11,-4.472 -24.94,-14.07 -4.49,9.883 -12.38,14.07 -23.49,14.07 -7.76,0 -17.25,-3.222 -23.7,-12.988 h -0.29 v 11.133 h -19.37 v -79.766 h 20.7 v 38.742 c 0,10.379 1.72,26.778 15.47,26.778 11.97,0 11.97,-10.5 11.97,-17.942 v -47.578 h 20.74 v 38.742 c 0,10.379 1.72,26.778 15.49,26.778 11.9,0 11.9,-10.5 11.9,-17.942 v -47.578 h 20.8 v 50.332 c 0,17.824 -5.61,31.289 -25.28,31.289" /><path
         id="path110"
         style="fill:#5e5b5c;fill-opacity:1;fill-rule:nonzero;stroke:none"
         d="m 2322.5,666.324 v -42.578 h 20.76 v 50.332 c 0,17.981 -8.18,31.289 -27.11,31.289 -10.84,0 -19.8,-4.941 -25.06,-12.683 h -0.29 v 47.246 h -20.82 V 623.746 h 20.82 v 39.055 c 0,10.234 3.24,26.465 18.24,26.465 13.34,0 13.46,-13.157 13.46,-22.942" /><path
         id="path112"
         style="fill:#5e5b5c;fill-opacity:1;fill-rule:nonzero;stroke:none"
         d="m 2125.82,802.645 h 20.7 v 50.3 c 0,17.852 -5.54,31.34 -25.23,31.34 -9.73,0 -20.1,-4.523 -24.92,-14.121 -4.44,9.902 -12.41,14.121 -23.5,14.121 -7.77,0 -17.21,-3.281 -23.71,-13.047 h -0.27 v 11.172 h -19.4 v -79.765 h 20.74 v 38.73 c 0,10.371 1.76,26.785 15.51,26.785 11.94,0 11.94,-10.535 11.94,-17.969 v -47.546 h 20.72 v 38.73 c 0,10.371 1.74,26.785 15.51,26.785 11.91,0 11.91,-10.535 11.91,-17.969 v -47.546" /><path
         id="path114"
         style="fill:#5e5b5c;fill-opacity:1;fill-rule:nonzero;stroke:none"
         d="m 2471.33,623.746 -0.67,16.438 c -2.14,-1.399 -5.68,-2.161 -9.43,-2.161 -7.85,0 -9.73,6.348 -9.73,13.165 v 37.16 h 18.44 v 15.164 h -18.44 v 22.617 l -20.74,-6.66 v -15.957 h -15.37 v -15.164 h 15.37 V 647.75 c 0,-15.77 8.97,-25.848 25.22,-25.848 6.23,0 11.01,0.625 15.35,1.844" /><path
         id="path116"
         style="fill:#5e5b5c;fill-opacity:1;fill-rule:nonzero;stroke:none"
         d="m 1628.92,638.023 c -13.65,0 -17.56,14.856 -17.56,25.852 0,10.703 3.76,25.391 17.23,25.391 13.31,0 18.57,-14.231 18.57,-25.391 0,-11.309 -4.52,-25.852 -18.24,-25.852 z m 18.34,101.907 v -45.664 h -0.27 c -6.17,7.578 -13.49,11.101 -23.83,11.101 -24.5,0 -33.43,-19.5 -33.43,-41.492 0,-21.848 8.93,-41.973 33.43,-41.973 9.76,0 18.27,3.094 24.46,10.86 h 0.31 v -9.016 h 20.15 V 739.93 h -20.82" /><path
         id="path118"
         style="fill:#5e5b5c;fill-opacity:1;fill-rule:nonzero;stroke:none"
         d="m 1463.21,634.586 v -10.84 h 19.64 v 79.766 H 1462.1 V 664.5 c 0,-10.215 -3.24,-26.477 -18.23,-26.477 -13.34,0 -13.5,13.165 -13.5,22.922 v 42.567 h -20.75 v -50.321 c 0,-17.961 8.2,-31.289 27.07,-31.289 10.87,0 19.82,4.961 26.21,12.684 h 0.31" /><path
         id="path120"
         style="fill:#5e5b5c;fill-opacity:1;fill-rule:nonzero;stroke:none"
         d="m 1469.67,860.281 c 0,6.778 6.7,8.817 12.25,8.817 7.57,0 12.23,-1.239 18.55,-3.418 l 1.43,15.644 c -6.5,1.387 -12.91,2.961 -22.59,2.961 -16.28,0 -31.3,-7.609 -31.3,-24.816 0,-28.77 36.06,-18.094 36.06,-33.75 0,-7.742 -8.37,-9.766 -13.6,-9.766 -7.14,0 -13.96,2.024 -20.48,5.285 l -1.25,-17.043 c 7.61,-2.019 15.65,-3.386 23.56,-3.386 16.9,0 33.45,7.402 33.45,25.996 0,28.808 -36.08,20.769 -36.08,33.476" /><path
         id="path122"
         style="fill:#5e5b5c;fill-opacity:1;fill-rule:nonzero;stroke:none"
         d="m 1522.99,662.801 c 0,10.234 3.23,26.465 18.26,26.465 13.35,0 13.46,-13.157 13.46,-22.942 v -42.578 h 20.77 v 50.332 c 0,17.981 -8.22,31.289 -27.12,31.289 -10.86,0 -19.68,-3.523 -26.18,-12.683 h -0.29 v 10.828 h -19.65 v -79.766 h 20.75 v 39.055" /><path
         id="path124"
         style="fill:#5e5b5c;fill-opacity:1;fill-rule:nonzero;stroke:none"
         d="m 1957.36,634.586 h 0.32 v -10.84 h 19.66 v 79.766 h -20.76 V 664.5 c 0,-10.215 -3.26,-26.477 -18.26,-26.477 -13.32,0 -13.46,13.165 -13.46,22.922 v 42.567 h -20.78 v -50.321 c 0,-17.961 8.24,-31.289 27.07,-31.289 10.9,0 19.83,4.961 26.21,12.684" /><path
         id="path126"
         style="fill:#5e5b5c;fill-opacity:1;fill-rule:nonzero;stroke:none"
         d="m 1865.08,644.195 c -3.28,-4.324 -8.19,-7.129 -14.53,-7.129 -7.48,0 -13.21,2.95 -13.21,9.778 0,12.234 13.81,13.769 23.09,13.769 h 8.95 c 0,-6.191 -0.92,-11.914 -4.3,-16.418 z m 23.53,-2.636 c -0.15,5.918 -0.33,11.953 -0.33,19.98 v 10.234 c 0,23.536 -10.06,33.594 -34.37,33.594 -8.81,0 -19.67,-2.312 -27.72,-6.043 l 0.63,-17.773 c 6.99,5.262 15.8,8.66 24.64,8.66 12.21,0 17.92,-4.344 17.92,-17.176 h -11.45 c -8.65,0 -18.87,-0.82 -26.8,-4.668 -7.87,-3.867 -13.63,-10.832 -13.63,-22.773 0,-15.168 13.81,-23.692 27.87,-23.692 9.43,0 19.84,4.961 24.65,13.789 h 0.29 c 0.16,-2.461 0.16,-7.734 0.92,-11.945 h 18.32 c -0.49,6.203 -0.78,11.789 -0.94,17.813" /><path
         id="path128"
         style="fill:#5e5b5c;fill-opacity:1;fill-rule:nonzero;stroke:none"
         d="m 1758.85,685.699 h -7.13 v 29.133 h 7.13 c 10.86,0 22.93,-1.074 22.93,-14.102 0,-13.468 -12.29,-15.031 -22.93,-15.031 z m 34.67,-19.676 c -2.19,4.805 -5.61,10.711 -11.51,11.172 v 0.301 c 13.83,1.867 22.33,12.395 22.33,25.109 0,30.028 -27.68,29.278 -50.9,29.278 h -23.42 V 623.746 h 21.7 v 44.934 h 6.91 c 9.16,0 11.98,-3.117 15.08,-11.145 l 12.97,-33.789 h 24.16 l -17.32,42.277" /><path
         id="path130"
         style="fill:#5e5b5c;fill-opacity:1;fill-rule:nonzero;stroke:none"
         d="m 1680.63,869.098 c 11.6,0 16.23,-8.66 16.83,-18.739 h -35.32 c 0.94,10.664 6.82,18.739 18.49,18.739 z m -18.49,-32.996 h 55.15 c 0,27.898 -8.33,48.183 -37.93,48.183 -24.78,0 -37.06,-19.055 -37.06,-42.14 0,-26.192 15.38,-41.336 41.72,-41.336 11.16,0 19.79,2.148 27.43,6.328 v 16.894 c -7.8,-4.375 -16.45,-8.078 -26.53,-8.078 -12.83,0 -21.84,7.297 -22.78,20.149" /><path
         id="path132"
         style="fill:#5e5b5c;fill-opacity:1;fill-rule:nonzero;stroke:none"
         d="m 576.035,685.074 h 7.149 c 10.644,0 22.89,1.543 22.89,15 0,12.989 -12.082,14.094 -22.89,14.094 h -7.149 v -29.094 z m -21.664,46.125 h 23.356 c 23.218,0 50.941,0.762 50.941,-29.269 0,-12.676 -8.523,-23.211 -22.289,-25.059 v -0.312 c 5.883,-0.45 9.285,-6.348 11.453,-11.133 l 17.32,-42.266 H 611.02 l -12.997,33.75 c -3.105,8.047 -5.906,11.125 -15.015,11.125 h -6.973 V 623.16 h -21.664 v 108.039 z m -83.039,0 h 21.691 v -91.015 h 41.922 V 623.16 h -63.613 v 108.039 z m -93.191,-91.015 h 12.054 c 18.102,0 35.606,13.464 35.606,37 0,23.515 -17.504,36.984 -35.606,36.984 h -12.054 v -73.984 z m -21.676,91.015 h 29.558 c 33.118,0 62.368,-11.172 62.368,-54.015 0,-42.879 -29.25,-54.024 -62.368,-54.024 H 356.465 V 731.199 Z M 491.5,874.078 h -98.812 l 71.542,71.641 h 98.844 L 491.5,874.078 Z m -150.273,0 H 239.789 l 71.535,71.641 H 412.805 L 341.227,874.078 Z M 214.184,747.027 v 90.598 h 90.379 L 214.184,747.027 Z M 87.8242,874.078 159.375,945.719 H 259.691 L 188.098,874.078 H 87.8242 Z M 437.086,1071.46 V 982.137 H 347.77 l 89.316,89.323 z m 36.348,-89.218 V 1159.44 L 296.488,982.242 H 144.652 L 0,837.566 178.113,837.555 V 659.91 L 355.852,837.625 H 506.355 L 650.906,982.242 H 473.434 v 0" /><path
         id="path134"
         style="fill:#5e5b5c;fill-opacity:1;fill-rule:nonzero;stroke:none"
         d="m 797.043,265.004 h 17.5 V 177.75 h -17.5 v 87.254" /><path
         id="path136"
         style="fill:#5e5b5c;fill-opacity:1;fill-rule:nonzero;stroke:none"
         d="m 831.793,242.125 h 15.875 v -8.75 h 0.254 c 5.332,6.914 12.371,10.332 21.121,10.25 7.582,-0.082 13.164,-2.457 16.75,-7.125 3.418,-4.668 5.125,-10.707 5.125,-18.125 V 177.75 h -16.746 v 34.375 c 0,2.082 -0.047,4.211 -0.129,6.375 -0.082,2.164 -0.496,4.125 -1.25,5.879 -0.586,1.91 -1.625,3.457 -3.125,4.621 -1.582,1.086 -3.711,1.629 -6.375,1.629 -3,0 -5.418,-0.711 -7.246,-2.129 -1.836,-1.418 -3.336,-3.211 -4.504,-5.371 -1.082,-2.168 -1.836,-4.461 -2.25,-6.875 -0.5,-2.5 -0.746,-4.836 -0.746,-7.004 v -31.5 h -16.754 v 64.375" /><path
         id="path138"
         style="fill:#5e5b5c;fill-opacity:1;fill-rule:nonzero;stroke:none"
         d="m 946.418,228.625 c -2.418,0.918 -4.754,1.625 -7,2.125 -2.25,0.418 -4.922,0.625 -8,0.625 -2.336,0 -4.5,-0.461 -6.5,-1.371 -2.168,-1.086 -3.293,-3.004 -3.375,-5.754 0.082,-2.418 1.625,-4.125 4.625,-5.125 1.414,-0.582 2.996,-1.125 4.75,-1.621 1.75,-0.504 3.5,-1.086 5.25,-1.754 1.914,-0.582 3.75,-1.336 5.496,-2.25 1.672,-0.996 3.172,-2.164 4.504,-3.496 1.414,-1.422 2.539,-3.125 3.375,-5.129 0.75,-2.086 1.125,-4.625 1.125,-7.625 -0.172,-7.418 -2.918,-12.789 -8.25,-16.125 -5.332,-3.25 -11.582,-4.871 -18.75,-4.871 -6.418,0.082 -12.75,0.996 -19,2.746 l 1,13.75 c 5.25,-2.832 10.75,-4.25 16.5,-4.25 2.328,0 4.707,0.586 7.125,1.75 2.5,1.086 3.789,3.125 3.875,6.125 0,1.668 -0.375,3.039 -1.125,4.125 -0.836,1 -1.961,1.793 -3.375,2.375 -2.922,1.164 -6.25,2.25 -10,3.25 -1.75,0.582 -3.5,1.293 -5.25,2.125 -1.754,0.836 -3.336,1.918 -4.75,3.25 -1.418,1.336 -2.5,3 -3.254,5 -0.918,1.914 -1.371,4.293 -1.371,7.125 0.082,7.004 2.703,12.086 7.875,15.25 4.828,3.168 10.625,4.75 17.375,4.75 3.914,0 7.332,-0.211 10.25,-0.625 2.828,-0.496 5.5,-1.086 8,-1.746 l -1.125,-12.629" /><path
         id="path140"
         style="fill:#5e5b5c;fill-opacity:1;fill-rule:nonzero;stroke:none"
         d="m 969.164,229.875 h -12.371 v 12.25 h 12.371 v 12.879 l 16.75,5.371 v -18.25 h 14.876 v -12.25 h -14.876 v -30 c -0.086,-2.832 0.457,-5.25 1.625,-7.25 1.082,-2.168 3.168,-3.293 6.25,-3.375 3.168,0 5.707,0.582 7.631,1.75 l 0.49,-13.25 c -3.332,-1 -7.453,-1.496 -12.367,-1.496 -13.504,0.332 -20.297,7.289 -20.379,20.871 v 32.75" /><path
         id="path142"
         style="fill:#5e5b5c;fill-opacity:1;fill-rule:nonzero;stroke:none"
         d="m 1012.67,242.125 h 16.74 V 177.75 h -16.74 z m 0,27.75 h 16.74 v -16 h -16.74 v 16" /><path
         id="path144"
         style="fill:#5e5b5c;fill-opacity:1;fill-rule:nonzero;stroke:none"
         d="m 1052.54,229.875 h -12.37 v 12.25 h 12.37 v 12.879 l 16.75,5.371 v -18.25 h 14.88 v -12.25 h -14.88 v -30 c -0.09,-2.832 0.46,-5.25 1.62,-7.25 1.09,-2.168 3.17,-3.293 6.25,-3.375 3.17,0 5.71,0.582 7.63,1.75 l 0.5,-13.25 c -3.34,-1 -7.46,-1.496 -12.37,-1.496 -13.51,0.332 -20.3,7.289 -20.38,20.871 v 32.75" /><path
         id="path146"
         style="fill:#5e5b5c;fill-opacity:1;fill-rule:nonzero;stroke:none"
         d="m 1154.79,177.75 h -15.88 v 8.75 h -0.25 c -5.25,-6.668 -12.29,-10.082 -21.12,-10.246 -7.58,0.082 -13.09,2.5 -16.5,7.246 -3.58,4.664 -5.38,10.668 -5.38,18 v 40.625 h 16.75 V 207.75 c 0,-0.918 0.09,-1.875 0.25,-2.875 0,-1 0.05,-2.039 0.13,-3.125 0.16,-2.168 0.54,-4.211 1.12,-6.121 0.75,-1.84 1.84,-3.336 3.25,-4.504 1.5,-1.25 3.54,-1.875 6.13,-1.875 3.08,0 5.62,0.789 7.62,2.375 1.92,1.418 3.38,3.207 4.38,5.375 1.17,2.168 1.91,4.457 2.25,6.875 0.33,2.414 0.5,4.668 0.5,6.754 v 31.496 h 16.75 V 177.75" /><path
         id="path148"
         style="fill:#5e5b5c;fill-opacity:1;fill-rule:nonzero;stroke:none"
         d="m 1177.54,229.875 h -12.38 v 12.25 h 12.38 v 12.879 l 16.75,5.371 v -18.25 h 14.87 v -12.25 h -14.87 v -30 c -0.09,-2.832 0.46,-5.25 1.62,-7.25 1.08,-2.168 3.17,-3.293 6.25,-3.375 3.17,0 5.71,0.582 7.63,1.75 l 0.5,-13.25 c -3.34,-1 -7.46,-1.496 -12.38,-1.496 -13.5,0.332 -20.29,7.289 -20.37,20.871 v 32.75" /><path
         id="path150"
         style="fill:#5e5b5c;fill-opacity:1;fill-rule:nonzero;stroke:none"
         d="m 1261.04,216.254 c -0.17,4.246 -1.3,7.785 -3.38,10.625 -2.17,2.914 -5.58,4.41 -10.25,4.496 -4.58,-0.086 -8.12,-1.5 -10.62,-4.25 -2.5,-2.832 -3.92,-6.461 -4.26,-10.871 z m 11.25,-34.879 c -5.92,-3.418 -13.3,-5.121 -22.13,-5.121 -22.17,0.332 -33.37,11.453 -33.62,33.371 0,9.582 2.5,17.625 7.5,24.129 5,6.414 12.45,9.707 22.37,9.871 11.75,-0.082 19.87,-3.707 24.38,-10.875 4.24,-7.168 6.33,-16.496 6.25,-28 h -44.51 c 0.42,-5.168 2.3,-9.121 5.63,-11.875 3.33,-2.918 7.58,-4.375 12.75,-4.375 4.09,0 7.92,0.668 11.5,2 3.5,1.168 6.79,2.664 9.88,4.504 v -13.629" /><path
         id="path152"
         style="fill:#5e5b5c;fill-opacity:1;fill-rule:nonzero;stroke:none"
         d="m 1338.29,211.5 c 0,-1.25 0.08,-2.5 0.25,-3.75 0.16,-1.414 0.37,-2.746 0.62,-3.996 0.5,-2.672 1.33,-5.086 2.5,-7.254 1.25,-2.168 2.92,-3.875 5,-5.125 2,-1.418 4.59,-2.125 7.75,-2.125 3.25,0 5.96,0.668 8.12,2.004 2.09,1.25 3.75,2.953 5,5.121 1.25,2.168 2.09,4.586 2.5,7.25 0.42,2.582 0.63,5.211 0.63,7.875 0,5.168 -1.29,9.625 -3.87,13.375 -2.75,3.75 -6.88,5.668 -12.38,5.754 -5.33,-0.086 -9.33,-2.047 -12,-5.879 -2.75,-3.75 -4.12,-8.164 -4.12,-13.25 z m -17.5,-2 c 0.08,10.75 3.33,19.125 9.75,25.125 6.25,5.918 14.2,8.918 23.87,9 9.83,-0.082 17.88,-3.082 24.13,-9 6.33,-6 9.54,-14.375 9.62,-25.125 0,-9.414 -2.92,-17.25 -8.75,-23.5 -5.83,-6.336 -14.17,-9.582 -25,-9.746 -10.66,0.164 -18.92,3.41 -24.75,9.746 -5.91,6.25 -8.87,14.086 -8.87,23.5" /><path
         id="path154"
         style="fill:#5e5b5c;fill-opacity:1;fill-rule:nonzero;stroke:none"
         d="m 1407.41,229.875 h -12.38 v 12.25 h 12.38 v 9 c 0,6.582 1.79,11.875 5.37,15.875 3.42,3.914 8.46,5.918 15.13,6 4.58,-0.082 8.67,-0.543 12.25,-1.375 l -1.38,-13.875 c -0.74,0.582 -1.66,1.125 -2.74,1.629 -1.09,0.414 -2.59,0.625 -4.51,0.625 -2.75,-0.086 -4.66,-1.086 -5.74,-3.004 -1.09,-1.996 -1.63,-4.293 -1.63,-6.875 v -8 h 14.62 v -12.25 h -14.62 V 177.75 h -16.75 v 52.125" /><path
         id="path156"
         style="fill:#5e5b5c;fill-opacity:1;fill-rule:nonzero;stroke:none"
         d="m 797.668,115 h 21.504 l 33.246,-65.25 h 0.25 V 115 h 16.75 V 27.75 H 848.043 L 814.668,93 h -0.25 V 27.75 h -16.75 V 115" /><path
         id="path158"
         style="fill:#5e5b5c;fill-opacity:1;fill-rule:nonzero;stroke:none"
         d="m 927.668,66.25 c -0.168,4.25 -1.297,7.7891 -3.375,10.6289 -2.168,2.9102 -5.586,4.4102 -10.25,4.4922 -4.586,-0.082 -8.125,-1.5 -10.625,-4.2422 -2.5,-2.8398 -3.922,-6.457 -4.254,-10.8789 z m 11.25,-34.8789 C 932.996,27.9609 925.625,26.25 916.793,26.25 c -22.168,0.3281 -33.375,11.4609 -33.629,33.3789 0,9.582 2.5,17.6211 7.5,24.1211 5,6.4219 12.461,9.7109 22.379,9.8711 11.746,-0.082 19.871,-3.6992 24.375,-10.8711 4.246,-7.1719 6.332,-16.5 6.25,-28 h -44.504 c 0.414,-5.1719 2.289,-9.1211 5.625,-11.8711 3.336,-2.918 7.582,-4.3789 12.75,-4.3789 4.082,0 7.922,0.6719 11.504,2 3.496,1.1719 6.785,2.6719 9.875,4.5 V 31.3711" /><path
         id="path160"
         style="fill:#5e5b5c;fill-opacity:1;fill-rule:nonzero;stroke:none"
         d="m 962.289,79.8711 h -12.371 v 12.2578 h 12.371 V 105 l 16.754,5.379 V 92.1289 h 14.875 V 79.8711 h -14.875 v -30 c -0.09,-2.832 0.453,-5.2422 1.621,-7.25 1.082,-2.1602 3.168,-3.293 6.25,-3.3711 3.168,0 5.707,0.5781 7.629,1.75 l 0.496,-13.25 c -3.328,-1 -7.457,-1.5 -12.371,-1.5 -13.504,0.3281 -20.297,7.2891 -20.379,20.8789 v 32.7422" /><path
         id="path162"
         style="fill:#5e5b5c;fill-opacity:1;fill-rule:nonzero;stroke:none"
         d="m 998.164,92.1289 h 17.746 L 1030.17,44.5 h 0.25 l 12.99,47.6289 h 19.51 L 1076.91,44.5 h 0.25 l 13.38,47.6289 h 16 L 1086.79,27.75 h -19.75 l -14,49.1289 h -0.25 L 1039.04,27.75 h -19.12 l -21.756,64.3789" /><path
         id="path164"
         style="fill:#5e5b5c;fill-opacity:1;fill-rule:nonzero;stroke:none"
         d="m 1129.91,61.5 c 0,-1.25 0.09,-2.5 0.26,-3.75 0.16,-1.4219 0.37,-2.75 0.62,-4 0.5,-2.6719 1.33,-5.0781 2.5,-7.25 1.25,-2.1719 2.92,-3.8789 5,-5.1289 2,-1.4102 4.58,-2.1211 7.75,-2.1211 3.25,0 5.96,0.6719 8.13,2 2.08,1.25 3.75,2.9609 5,5.1211 1.25,2.168 2.08,4.5898 2.5,7.25 0.41,2.5898 0.62,5.207 0.62,7.8789 0,5.1719 -1.29,9.6211 -3.88,13.3711 -2.75,3.75 -6.87,5.668 -12.37,5.7578 -5.34,-0.0898 -9.34,-2.0508 -12,-5.8789 -2.75,-3.75 -4.13,-8.1719 -4.13,-13.25 z m -17.5,-2 c 0.09,10.75 3.34,19.1211 9.75,25.1289 6.25,5.9102 14.21,8.9102 23.88,8.9922 9.83,-0.082 17.88,-3.082 24.13,-8.9922 6.32,-6.0078 9.54,-14.3789 9.62,-25.1289 0,-9.4219 -2.92,-17.25 -8.75,-23.5 -5.83,-6.3398 -14.17,-9.5781 -25,-9.75 -10.67,0.1719 -18.92,3.4102 -24.75,9.75 -5.92,6.25 -8.88,14.0781 -8.88,23.5" /><path
         id="path166"
         style="fill:#5e5b5c;fill-opacity:1;fill-rule:nonzero;stroke:none"
         d="m 1193.29,92.1289 h 14.87 V 77.5 h 0.25 c 0.5,3.3281 2.34,6.7891 5.5,10.3789 3.09,3.6602 7.13,5.582 12.13,5.7422 1.67,0 3.37,-0.1602 5.12,-0.4922 V 76.25 c -1.75,0.9102 -4.25,1.3711 -7.5,1.3711 -3.33,0 -5.92,-0.9102 -7.75,-2.75 -1.83,-1.7422 -3.2,-4.043 -4.12,-6.8711 -0.84,-2.6719 -1.34,-5.5 -1.5,-8.5 -0.17,-2.9219 -0.25,-5.6289 -0.25,-8.1289 V 27.75 h -16.75 v 64.3789" /><path
         id="path168"
         style="fill:#5e5b5c;fill-opacity:1;fill-rule:nonzero;stroke:none"
         d="m 1241.91,121.5 h 16.75 V 66.3711 h 0.25 l 20,25.7578 h 19.75 l -24,-28.75 27,-35.6289 h -21.25 L 1258.91,59 h -0.25 V 27.75 h -16.75 v 93.75" /><path
         id="path170"
         style="fill:#5e5b5c;fill-opacity:1;fill-rule:nonzero;stroke:none"
         d="m 1351.41,66.25 c -0.16,4.25 -1.29,7.7891 -3.37,10.6289 -2.17,2.9102 -5.59,4.4102 -10.25,4.4922 -4.59,-0.082 -8.13,-1.5 -10.63,-4.2422 -2.5,-2.8398 -3.92,-6.457 -4.25,-10.8789 z m 11.25,-34.8789 c -5.92,-3.4102 -13.29,-5.1211 -22.12,-5.1211 -22.17,0.3281 -33.38,11.4609 -33.63,33.3789 0,9.582 2.5,17.6211 7.5,24.1211 5,6.4219 12.46,9.7109 22.38,9.8711 11.75,-0.082 19.87,-3.6992 24.37,-10.8711 4.25,-7.1719 6.34,-16.5 6.25,-28 h -44.5 c 0.42,-5.1719 2.3,-9.1211 5.63,-11.8711 3.33,-2.918 7.58,-4.3789 12.75,-4.3789 4.08,0 7.91,0.6719 11.5,2 3.5,1.1719 6.79,2.6719 9.87,4.5 V 31.3711" /><path
         id="path172"
         style="fill:#5e5b5c;fill-opacity:1;fill-rule:nonzero;stroke:none"
         d="m 1393.91,60.1211 c -0.08,-4.6602 0.92,-9.2422 3,-13.75 1.08,-1.9922 2.54,-3.6602 4.38,-5 1.75,-1.4102 4,-2.1211 6.75,-2.1211 2.91,0 5.29,0.7109 7.12,2.1211 1.92,1.3398 3.42,3.0078 4.5,5 1.17,2.0898 2,4.3398 2.5,6.7578 0.42,2.4102 0.63,4.75 0.63,6.9922 0,4.8398 -1.13,9.3789 -3.38,13.6289 -1.25,2.0781 -2.79,3.75 -4.62,5 -1.92,1.25 -4.25,1.8789 -7,1.8789 -5.25,-0.168 -8.92,-2.457 -11,-6.8789 -1,-2 -1.71,-4.2109 -2.13,-6.6211 -0.5,-2.418 -0.75,-4.7578 -0.75,-7.0078 z M 1423.41,35 h -0.25 c -5.17,-5.9219 -11.75,-8.8281 -19.75,-8.75 -9.75,0.1719 -16.71,3.6211 -20.87,10.3789 -4.17,6.582 -6.21,14.4102 -6.13,23.4922 -0.08,9.168 1.96,17.0078 6.13,23.5 4.16,6.5 11.12,9.8398 20.87,10 8.08,0 14.5,-2.9922 19.25,-8.9922 h 0.25 V 121.5 h 16.75 V 27.75 h -16.25 V 35" /><path
         id="path174"
         style="fill:#5e5b5c;fill-opacity:1;fill-rule:nonzero;stroke:none"
         d="m 1493.16,115 h 51.5 v -13.75 h -34 v -21.5 h 31.13 V 66 h -31.13 V 41.5 h 34.25 V 27.75 h -51.75 V 115" /><path
         id="path176"
         style="fill:#5e5b5c;fill-opacity:1;fill-rule:nonzero;stroke:none"
         d="m 1561.16,92.1289 h 15.88 v -8.75 h 0.25 c 5.33,6.9102 12.37,10.332 21.12,10.2422 7.58,-0.082 13.17,-2.4492 16.75,-7.1211 3.42,-4.6719 5.13,-10.7109 5.13,-18.1211 V 27.75 h -16.75 v 34.3789 c 0,2.082 -0.05,4.1992 -0.13,6.3711 -0.08,2.1719 -0.5,4.1211 -1.25,5.8789 -0.58,1.9102 -1.62,3.4492 -3.12,4.6211 -1.59,1.0781 -3.71,1.6289 -6.38,1.6289 -3,0 -5.42,-0.707 -7.25,-2.1289 -1.83,-1.4219 -3.33,-3.2109 -4.5,-5.3711 -1.08,-2.168 -1.83,-4.457 -2.25,-6.8789 -0.5,-2.5 -0.75,-4.8281 -0.75,-7 v -31.5 h -16.75 v 64.3789" /><path
         id="path178"
         style="fill:#5e5b5c;fill-opacity:1;fill-rule:nonzero;stroke:none"
         d="m 1677.91,66.25 c -0.17,4.25 -1.29,7.7891 -3.38,10.6289 -2.17,2.9102 -5.58,4.4102 -10.24,4.4922 -4.59,-0.082 -8.13,-1.5 -10.63,-4.2422 -2.5,-2.8398 -3.92,-6.457 -4.25,-10.8789 z m 11.25,-34.8789 c -5.92,-3.4102 -13.29,-5.1211 -22.12,-5.1211 -22.17,0.3281 -33.38,11.4609 -33.63,33.3789 0,9.582 2.5,17.6211 7.5,24.1211 5,6.4219 12.46,9.7109 22.38,9.8711 11.75,-0.082 19.87,-3.6992 24.37,-10.8711 4.25,-7.1719 6.33,-16.5 6.25,-28 h -44.5 c 0.41,-5.1719 2.29,-9.1211 5.62,-11.8711 3.34,-2.918 7.59,-4.3789 12.75,-4.3789 4.09,0 7.92,0.6719 11.51,2 3.49,1.1719 6.78,2.6719 9.87,4.5 V 31.3711" /><path
         id="path180"
         style="fill:#5e5b5c;fill-opacity:1;fill-rule:nonzero;stroke:none"
         d="m 1707.41,92.1289 h 14.88 V 77.5 h 0.25 c 0.5,3.3281 2.32,6.7891 5.5,10.3789 3.07,3.6602 7.12,5.582 12.12,5.7422 1.67,0 3.38,-0.1602 5.12,-0.4922 V 76.25 c -1.74,0.9102 -4.24,1.3711 -7.5,1.3711 -3.33,0 -5.91,-0.9102 -7.74,-2.75 -1.84,-1.7422 -3.21,-4.043 -4.13,-6.8711 -0.83,-2.6719 -1.33,-5.5 -1.5,-8.5 -0.17,-2.9219 -0.25,-5.6289 -0.25,-8.1289 V 27.75 h -16.75 v 64.3789" /><path
         id="path182"
         style="fill:#5e5b5c;fill-opacity:1;fill-rule:nonzero;stroke:none"
         d="m 1783.28,40.75 c 5.26,0.0781 9.04,2.0781 11.38,6 2.24,3.75 3.38,8.3711 3.38,13.8789 0,5.6602 -1.09,10.3711 -3.25,14.1211 -2.34,3.8281 -5.92,5.7891 -10.76,5.8789 -5.58,-0.168 -9.46,-2.3008 -11.62,-6.3789 -2.33,-4.0781 -3.46,-8.75 -3.38,-14 0,-4.6719 1.21,-9 3.63,-13 1.25,-1.9219 2.75,-3.4609 4.5,-4.6289 1.75,-1.25 3.79,-1.8711 6.12,-1.8711 z m 31.51,51.3789 V 34 c 0,-2.0781 -0.09,-4.2109 -0.26,-6.3789 -0.24,-2.1602 -0.62,-4.2422 -1.12,-6.25 -1.09,-4.082 -2.92,-7.6992 -5.5,-10.8711 -2.42,-3.16016 -5.88,-5.66016 -10.38,-7.5 -4.41,-1.91016 -10,-2.921875 -16.75,-3 -6.75,-0.078125 -14.17,1.37109 -22.24,4.37891 l 1.37,14.24219 c 2.75,-1.4102 5.87,-2.6602 9.38,-3.75 3.49,-1.1602 6.62,-1.793 9.37,-1.8711 4.58,0.0781 8.24,0.8711 11,2.3789 2.58,1.582 4.5,3.582 5.75,5.9922 1.25,2.5 2.04,5.207 2.37,8.1289 0.17,2.9219 0.26,5.75 0.26,8.5 h -0.26 c -1.58,-2.8281 -4.08,-5.2109 -7.5,-7.1211 -3.49,-2.0898 -7.66,-3.1289 -12.5,-3.1289 -9.41,0.1719 -16.12,3.4609 -20.12,9.8711 -4.17,6.168 -6.21,13.707 -6.13,22.6289 -0.08,8.1602 2.08,15.7109 6.51,22.6289 4.32,6.9102 11.25,10.5 20.74,10.7422 8.51,0.0898 15.09,-3.332 19.76,-10.2422 h 0.24 v 8.75 h 16.01" /><path
         id="path184"
         style="fill:#5e5b5c;fill-opacity:1;fill-rule:nonzero;stroke:none"
         d="m 1858.78,45.1211 h 0.25 l 15.5,47.0078 h 17 L 1867.41,28.25 c -1.25,-3.5 -2.55,-6.9219 -3.87,-10.25 -1.34,-3.4102 -2.96,-6.4609 -4.88,-9.12891 -1.83,-2.66015 -4.17,-4.79296 -7,-6.37109 -3,-1.660156 -6.67,-2.5 -11.01,-2.5 -3.99,0 -7.95,0.578125 -11.87,1.75 l 1.13,12.3789 c 1.92,-0.75 4.79,-1.1289 8.63,-1.1289 3.41,0.0781 6.08,1.1719 7.99,3.25 1.92,2.0898 2.87,4.8398 2.87,8.25 l -24.61,67.6289 h 18.49 l 15.5,-47.0078" /><path
         id="path186"
         style="fill:#5e5b5c;fill-opacity:1;fill-rule:nonzero;stroke:none"
         d="m 1966.9,102.75 c -1.49,0 -2.99,-0.172 -4.49,-0.5 -1.59,-0.328 -3.08,-0.961 -4.5,-1.871 -1.34,-0.8399 -2.46,-2.0899 -3.38,-3.7501 -0.92,-1.5898 -1.38,-3.5898 -1.38,-6 0,-1.8398 0.59,-3.3789 1.76,-4.6289 1.16,-1.25 2.62,-2.3789 4.38,-3.3789 1.91,-0.9922 3.99,-1.9102 6.25,-2.75 2.16,-0.9102 4.45,-1.8711 6.87,-2.8711 2.41,-0.9219 4.75,-2 6.99,-3.25 2.34,-1.3281 4.38,-2.9609 6.14,-4.8789 1.75,-1.832 3.2,-4.043 4.37,-6.6211 1,-2.6719 1.5,-5.8789 1.5,-9.6289 -0.17,-9.4102 -3.37,-16.1602 -9.62,-20.25 -6.25,-4.082 -13.97,-6.1211 -23.13,-6.1211 -4.5,0 -8.3,0.3281 -11.37,1 -3.18,0.5781 -6.84,1.3711 -11.01,2.3789 l 1.63,15.75 c 6.16,-3.5 12.74,-5.3008 19.75,-5.3789 3.58,0 7.04,0.9102 10.38,2.75 3.33,1.8281 5.04,4.6719 5.11,8.5 0,2.0781 -0.49,3.8711 -1.49,5.3789 -1.17,1.5 -2.63,2.75 -4.37,3.75 -3.84,1.9922 -8.22,3.9102 -13.13,5.7422 -2.42,1.0078 -4.71,2.168 -6.87,3.5078 -2.26,1.25 -4.34,2.7422 -6.25,4.5 -1.75,1.832 -3.22,4.043 -4.38,6.6211 -1.17,2.5781 -1.75,5.6211 -1.75,9.1211 0.17,9.668 3.37,16.5899 9.62,20.7579 6.01,3.91 12.96,5.871 20.88,5.871 7.5,0 14.45,-1.039 20.87,-3.121 L 1984.66,99 c -5.59,2.422 -11.51,3.672 -17.76,3.75" /><path
         id="path188"
         style="fill:#5e5b5c;fill-opacity:1;fill-rule:nonzero;stroke:none"
         d="m 2032.53,45.1211 h 0.25 l 15.5,47.0078 h 17 L 2041.16,28.25 c -1.25,-3.5 -2.55,-6.9219 -3.87,-10.25 -1.34,-3.4102 -2.96,-6.4609 -4.88,-9.12891 -1.83,-2.66015 -4.17,-4.79296 -7,-6.37109 -3,-1.660156 -6.67,-2.5 -11.01,-2.5 -3.99,0 -7.95,0.578125 -11.87,1.75 l 1.13,12.3789 c 1.92,-0.75 4.79,-1.1289 8.63,-1.1289 3.41,0.0781 6.08,1.1719 7.99,3.25 1.92,2.0898 2.87,4.8398 2.87,8.25 l -24.61,67.6289 h 18.49 l 15.5,-47.0078" /><path
         id="path190"
         style="fill:#5e5b5c;fill-opacity:1;fill-rule:nonzero;stroke:none"
         d="m 2113.54,78.6211 c -2.43,0.918 -4.76,1.6289 -7.01,2.1289 -2.24,0.4219 -4.92,0.6211 -7.99,0.6211 -2.34,0 -4.51,-0.4609 -6.51,-1.3711 -2.17,-1.0781 -3.29,-3 -3.37,-5.75 0.08,-2.4219 1.62,-4.1289 4.62,-5.1211 1.42,-0.5898 3,-1.1289 4.76,-1.6289 1.75,-0.5 3.49,-1.0781 5.24,-1.75 1.92,-0.5781 3.75,-1.3281 5.5,-2.25 1.67,-1 3.17,-2.1719 4.5,-3.5 1.42,-1.4219 2.54,-3.1211 3.38,-5.1289 0.75,-2.082 1.12,-4.6211 1.12,-7.6211 -0.16,-7.4219 -2.92,-12.7891 -8.25,-16.1289 -5.33,-3.2422 -11.58,-4.8711 -18.75,-4.8711 -6.41,0.0781 -12.74,1 -18.99,2.75 l 0.99,13.75 c 5.26,-2.8281 10.76,-4.25 16.51,-4.25 2.32,0 4.7,0.5781 7.12,1.75 2.5,1.0781 3.79,3.1289 3.87,6.1211 0,1.668 -0.37,3.0508 -1.12,4.1289 -0.84,1 -1.96,1.7891 -3.38,2.3789 -2.92,1.1602 -6.25,2.2422 -10,3.2422 -1.75,0.5898 -3.49,1.3008 -5.24,2.1289 -1.76,0.8281 -3.34,1.9219 -4.76,3.25 -1.41,1.3281 -2.5,3 -3.25,5 -0.92,1.9102 -1.37,4.2891 -1.37,7.1211 0.08,7.0078 2.71,12.0898 7.87,15.25 4.84,3.168 10.63,4.75 17.38,4.75 3.91,0 7.33,-0.2109 10.25,-0.6211 2.83,-0.5 5.5,-1.0781 8,-1.75 l -1.12,-12.6289" /><path
         id="path192"
         style="fill:#5e5b5c;fill-opacity:1;fill-rule:nonzero;stroke:none"
         d="m 2136.28,79.8711 h -12.37 v 12.2578 h 12.37 V 105 l 16.75,5.379 V 92.1289 h 14.88 V 79.8711 h -14.88 v -30 c -0.08,-2.832 0.46,-5.2422 1.63,-7.25 1.08,-2.1602 3.16,-3.293 6.25,-3.3711 3.16,0 5.7,0.5781 7.63,1.75 l 0.49,-13.25 c -3.34,-1 -7.46,-1.5 -12.37,-1.5 -13.51,0.3281 -20.29,7.2891 -20.38,20.8789 v 32.7422" /><path
         id="path194"
         style="fill:#5e5b5c;fill-opacity:1;fill-rule:nonzero;stroke:none"
         d="m 2219.78,66.25 c -0.17,4.25 -1.29,7.7891 -3.37,10.6289 -2.17,2.9102 -5.59,4.4102 -10.26,4.4922 -4.58,-0.082 -8.12,-1.5 -10.62,-4.2422 -2.5,-2.8398 -3.92,-6.457 -4.25,-10.8789 z m 11.25,-34.8789 c -5.92,-3.4102 -13.3,-5.1211 -22.12,-5.1211 -22.17,0.3281 -33.38,11.4609 -33.63,33.3789 0,9.582 2.5,17.6211 7.5,24.1211 5,6.4219 12.45,9.7109 22.38,9.8711 11.74,-0.082 19.87,-3.6992 24.37,-10.8711 4.25,-7.1719 6.33,-16.5 6.25,-28 h -44.5 c 0.42,-5.1719 2.29,-9.1211 5.62,-11.8711 3.33,-2.918 7.58,-4.3789 12.76,-4.3789 4.08,0 7.91,0.6719 11.49,2 3.51,1.1719 6.8,2.6719 9.88,4.5 V 31.3711" /><path
         id="path196"
         style="fill:#5e5b5c;fill-opacity:1;fill-rule:nonzero;stroke:none"
         d="m 2248.65,92.1289 h 15.63 v -9 h 0.25 c 2.75,3.9102 5.83,6.6602 9.25,8.2422 3.42,1.5078 6.71,2.25 9.87,2.25 9.01,0.0898 15.33,-3.6992 19.01,-11.3711 2.08,3.9219 5,6.7891 8.75,8.6289 3.58,1.832 7.37,2.7422 11.37,2.7422 7.84,-0.082 13.25,-2.4492 16.25,-7.1211 2.84,-4.6719 4.2,-10.7109 4.12,-18.1211 V 27.75 h -16.74 v 38.3711 c 0.07,3.2578 -0.3,6.418 -1.13,9.5078 -0.58,1.5 -1.5,2.6992 -2.75,3.6211 -1.34,0.9219 -3.25,1.3789 -5.75,1.3789 -2.75,0 -4.91,-0.707 -6.5,-2.1289 -1.75,-1.4219 -3.04,-3.25 -3.87,-5.5 -0.84,-2.1719 -1.38,-4.4609 -1.63,-6.8789 -0.34,-2.582 -0.5,-4.9492 -0.5,-7.1211 V 27.75 h -16.75 v 38.3711 c 0.08,3.2578 -0.29,6.418 -1.12,9.5078 -0.59,1.5 -1.51,2.6992 -2.76,3.6211 -1.33,0.9219 -3.25,1.3789 -5.75,1.3789 -2.74,0 -4.91,-0.707 -6.49,-2.1289 -1.75,-1.4219 -3.05,-3.25 -3.88,-5.5 -0.83,-2.1719 -1.38,-4.4609 -1.62,-6.8789 -0.34,-2.582 -0.51,-4.9492 -0.51,-7.1211 V 27.75 h -16.75 v 64.3789" /><path
         id="path198"
         style="fill:#5e5b5c;fill-opacity:1;fill-rule:nonzero;stroke:none"
         d="m 2398.28,78.6211 c -2.42,0.918 -4.75,1.6289 -7,2.1289 -2.25,0.4219 -4.92,0.6211 -8,0.6211 -2.33,0 -4.5,-0.4609 -6.5,-1.3711 -2.17,-1.0781 -3.29,-3 -3.37,-5.75 0.08,-2.4219 1.62,-4.1289 4.62,-5.1211 1.41,-0.5898 3,-1.1289 4.75,-1.6289 1.75,-0.5 3.5,-1.0781 5.25,-1.75 1.91,-0.5781 3.75,-1.3281 5.5,-2.25 1.67,-1 3.17,-2.1719 4.5,-3.5 1.41,-1.4219 2.54,-3.1211 3.38,-5.1289 0.75,-2.082 1.12,-4.6211 1.12,-7.6211 -0.17,-7.4219 -2.92,-12.7891 -8.25,-16.1289 -5.33,-3.2422 -11.58,-4.8711 -18.75,-4.8711 -6.42,0.0781 -12.75,1 -19,2.75 l 1,13.75 c 5.25,-2.8281 10.75,-4.25 16.5,-4.25 2.33,0 4.71,0.5781 7.12,1.75 2.5,1.0781 3.79,3.1289 3.88,6.1211 0,1.668 -0.37,3.0508 -1.12,4.1289 -0.84,1 -1.97,1.7891 -3.38,2.3789 -2.92,1.1602 -6.25,2.2422 -10,3.2422 -1.75,0.5898 -3.5,1.3008 -5.25,2.1289 -1.75,0.8281 -3.34,1.9219 -4.75,3.25 -1.42,1.3281 -2.5,3 -3.25,5 -0.92,1.9102 -1.37,4.2891 -1.37,7.1211 0.08,7.0078 2.7,12.0898 7.87,15.25 4.83,3.168 10.62,4.75 17.37,4.75 3.92,0 7.34,-0.2109 10.26,-0.6211 2.83,-0.5 5.49,-1.0781 7.99,-1.75 l -1.12,-12.6289" /></g></g></svg>