<?xml version="1.0" encoding="UTF-8"?>
<svg width="453.55pt" height="461.07pt" version="1.2" viewBox="0 0 453.55 461.07" xmlns="http://www.w3.org/2000/svg" xmlns:cc="http://creativecommons.org/ns#" xmlns:dc="http://purl.org/dc/elements/1.1/" xmlns:rdf="http://www.w3.org/1999/02/22-rdf-syntax-ns#">
 <metadata>
  <rdf:RDF>
   <cc:Work rdf:about="">
    <dc:format>image/svg+xml</dc:format>
    <dc:type rdf:resource="http://purl.org/dc/dcmitype/StillImage"/>
    <dc:title/>
   </cc:Work>
  </rdf:RDF>
 </metadata>
 <path transform="scale(.75)" d="m302.37 0c-167 0-302.37 135.37-302.37 302.36 0 98.942 47.522 186.78 120.98 241.94l56.809-75.752c-50.991-37.883-84.037-98.566-84.037-166.97 0-114.8 93.069-207.87 207.87-207.87 114.81 0 207.88 93.069 207.88 207.87 0 67.956-32.609 128.29-83.029 166.22l57.336 76.463c73.426-55.166 120.92-142.98 120.92-241.9 0-166.99-135.37-302.36-302.36-302.36z" fill="#1e547a" fill-rule="evenodd" stroke-width="1.3333"/>
 <g fill="#1e547a" fill-rule="evenodd">
  <path d="m156.04 280.66c0-39.141 31.73-70.871 70.871-70.871s70.859 31.73 70.859 70.871c0 39.129-31.719 70.859-70.859 70.859-39.141 0-70.871-31.73-70.871-70.859z" fill-opacity=".54902"/>
  <path d="m107.7 195.61c0-39.137 31.73-70.867 70.859-70.867 39.141 0 70.871 31.73 70.871 70.867 0 39.141-31.73 70.863-70.871 70.863-39.129 0-70.859-31.723-70.859-70.863z" fill-opacity=".25098"/>
  <path d="m204.32 195.61c0-39.137 31.73-70.867 70.871-70.867 39.129 0 70.859 31.73 70.859 70.867 0 39.141-31.73 70.863-70.859 70.863-39.141 0-70.871-31.723-70.871-70.863z" fill-opacity=".41176"/>
 </g>
 <g transform="matrix(1.1277 0 0 1.1277 -153.85 -65.783)" aria-label="open_eGo">
  <path d="m279.05 467.19q-11.672 0-18.891-6.9375-7.2188-6.9844-7.2188-18.141v-1.3125q0-7.7812 2.8594-13.734 2.9062-5.9531 8.4375-9.1875 5.5312-3.2812 13.125-3.2812 10.688 0 16.875 6.6562 6.1875 6.6094 6.1875 18.469v6.1406h-31.406q0.84375 4.2656 3.7031 6.7031 2.8594 2.4375 7.4062 2.4375 7.5 0 11.719-5.25l7.2188 8.5312q-2.9531 4.0781-8.3906 6.5156-5.3906 2.3906-11.625 2.3906zm-1.7812-40.406q-6.9375 0-8.25 9.1875h15.938v-1.2188q0.0937-3.7969-1.9219-5.8594-2.0156-2.1094-5.7656-2.1094z"/>
  <path d="m363.42 457.81q-3.7969 4.2188-11.109 6.7969-7.3125 2.5781-16.031 2.5781-13.406 0-21.422-8.2031-8.0156-8.2031-8.5781-22.828l-0.0469-5.9062q0-10.078 3.5625-17.578 3.5625-7.5469 10.172-11.578 6.6562-4.0781 15.375-4.0781 12.75 0 19.781 5.8594 7.0781 5.8125 8.25 17.391h-15.844q-0.84375-5.7188-3.6562-8.1562t-7.9688-2.4375q-6.1875 0-9.5625 5.25t-3.4219 15v4.125q0 10.219 3.4688 15.375 3.5156 5.1094 11.016 5.1094 6.4219 0 9.5625-2.8594v-10.594h-11.438v-11.297h27.891z"/>
  <path d="m370.27 440.42q0-7.5938 2.9531-13.5 2.9531-5.9531 8.4844-9.1406t12.984-3.1875q11.391 0 17.953 7.0781 6.5625 7.0312 6.5625 19.172v0.5625q0 11.859-6.6094 18.844-6.5625 6.9375-17.812 6.9375-10.828 0-17.391-6.4688-6.5625-6.5156-7.0781-17.625zm15.797 0.98437q0 7.0312 2.2031 10.312 2.2031 3.2812 6.5156 3.2812 8.4375 0 8.625-12.984v-1.5938q0-13.641-8.7188-13.641-7.9219 0-8.5781 11.766z"/>
 </g>
</svg>
