<?xml version="1.0" encoding="UTF-8" standalone="no"?>
<svg
   xmlns:dc="http://purl.org/dc/elements/1.1/"
   xmlns:cc="http://creativecommons.org/ns#"
   xmlns:rdf="http://www.w3.org/1999/02/22-rdf-syntax-ns#"
   xmlns:svg="http://www.w3.org/2000/svg"
   xmlns="http://www.w3.org/2000/svg"
   xmlns:sodipodi="http://sodipodi.sourceforge.net/DTD/sodipodi-0.dtd"
   xmlns:inkscape="http://www.inkscape.org/namespaces/inkscape"
   width="393.25195mm"
   height="144.10075mm"
   viewBox="0 0 393.25196 144.10076"
   version="1.1"
   id="svg1068"
   sodipodi:docname="logo_egon_top_nav.svg"
   inkscape:version="0.92.3 (2405546, 2018-03-11)">
  <sodipodi:namedview
     pagecolor="#ffffff"
     bordercolor="#666666"
     borderopacity="1"
     objecttolerance="10"
     gridtolerance="10"
     guidetolerance="10"
     inkscape:pageopacity="0"
     inkscape:pageshadow="2"
     inkscape:window-width="1853"
     inkscape:window-height="1025"
     id="namedview28"
     showgrid="false"
     fit-margin-top="0"
     fit-margin-left="0"
     fit-margin-right="0"
     fit-margin-bottom="0"
     inkscape:zoom="0.061913015"
     inkscape:cx="446.06746"
     inkscape:cy="272.31635"
     inkscape:window-x="67"
     inkscape:window-y="27"
     inkscape:window-maximized="1"
     inkscape:current-layer="layer1" />
  <defs
     id="defs1062" />
  <metadata
     id="metadata1065">
    <rdf:RDF>
      <cc:Work
         rdf:about="">
        <dc:format>image/svg+xml</dc:format>
        <dc:type
           rdf:resource="http://purl.org/dc/dcmitype/StillImage" />
        <dc:title></dc:title>
      </cc:Work>
    </rdf:RDF>
  </metadata>
  <g
     id="layer1"
     transform="translate(232.67925,47.872094)">
    <ellipse
       ry="28.583344"
       rx="28.216768"
       cy="-29.15081"
       cx="-152.79349"
       id="circle872"
       style="opacity:1;fill:#7ca7c6;fill-opacity:1;stroke:none;stroke-width:4.65620947;stroke-linecap:round;stroke-linejoin:round;stroke-miterlimit:4;stroke-dasharray:none;stroke-dashoffset:0;stroke-opacity:1;paint-order:fill markers stroke"
       transform="scale(1,-1)" />
    <path
       style="display:inline;fill:#1f567d;fill-opacity:1;fill-rule:evenodd;stroke:none;stroke-width:0.26458332;enable-background:new"
       d="m -152.72387,-47.872094 -2.0314,0.04237 -2.07429,0.08475 -2.0314,0.126607 -2.03192,0.169499 -1.98903,0.211873 -1.98954,0.296106 -1.98954,0.338481 -1.98903,0.380855 -1.90479,0.42323 -1.94717,0.465605 -1.90479,0.507979 -1.90479,0.550354 -1.86242,0.634587 -1.82005,0.635103 -1.86242,0.676961 -1.77766,0.761711 -1.77767,0.762227 -1.77767,0.84646 -1.7353,0.84646 -1.69292,0.888835 -1.69343,0.973067 -1.69292,0.973584 -1.60869,1.015959 -1.60817,1.057816 -1.60869,1.100708 -1.52342,1.142566 -1.52394,1.142566 -1.52394,1.227832 -1.43867,1.227316 -1.43919,1.26969 -1.39681,1.312064 -1.39682,1.354439 -1.35443,1.353923 -1.26969,1.396814 -1.31259,1.439188 -1.22731,1.481048 -1.18494,1.481563 -1.18546,1.523421 -1.14257,1.566312 -1.1007,1.608172 -1.05782,1.608169 -1.01596,1.6086878 -0.97358,1.650545 -0.93121,1.69292 -0.93121,1.735294 -0.84646,1.735296 -0.84646,1.73529402 -0.76223,1.81952598 -0.71933,1.77767 -0.71986,1.820044 -0.63458,1.862418 -0.63511,1.861902 -0.55035,1.9047942 -0.50746,1.904794 -0.46561,1.904275 -0.42375,1.947169 -0.38085,1.989026 -0.33848,1.947167 -0.25373,1.989026 -0.25425,2.0314 -0.16898,2.031402 -0.12713,2.031918 -0.0848,2.031399 v 2.073775 2.073775 l 0.0848,2.031918 0.12713,2.0314 0.16898,2.031402 0.25425,2.031918 0.25373,1.989023 0.33848,1.989027 0.38085,1.947169 0.42375,1.946651 0.46561,1.904793 0.50746,1.904278 0.55035,1.90479 0.63511,1.86242 0.63458,1.8619 0.71986,1.82005 0.71933,1.82004 0.76223,1.77767 0.84646,1.73529 0.84646,1.7353 0.93121,1.73529 0.93121,1.69292 0.97358,1.65055 1.01596,1.65054 1.05782,1.60817 1.1007,1.56632 1.14257,1.56579 1.18546,1.52342 1.18494,1.48157 1.22731,1.48156 1.31259,1.43867 1.26969,1.39682 1.35443,1.35444 1.39682,1.35443 1.39681,1.31207 1.43919,1.26969 1.43867,1.22732 1.52394,1.22731 1.50844,1.17305 15.01355,-20.00963 -0.0568,-0.0398 -2.07378,-1.60817 -1.98954,-1.73529 -1.90479,-1.82005 -1.82005,-1.90479 -1.73529,-2.0314 -1.65055,-2.07378 -1.52393,-2.15852 -1.43919,-2.2009 -1.31207,-2.32802 -0.6351,-1.14257 -0.59221,-1.22731 -0.55036,-1.18494 -0.55035,-1.22784 -0.50798,-1.26969 -0.4656,-1.227311 -0.46561,-1.26969 -0.42323,-1.312066 -0.38085,-1.269688 -0.33849,-1.312066 -0.33899,-1.354439 -0.29611,-1.312064 -0.25373,-1.353923 -0.21187,-1.354439 -0.21136,-1.354439 -0.12712,-1.396815 -0.12713,-1.396815 -0.0848,-1.396296 -0.0847,-1.396815 V 32.119912 30.68124 l 0.0847,-1.396814 0.0848,-1.396813 0.12713,-1.396814 0.12712,-1.354439 0.21136,-1.396297 0.21187,-1.354439 0.25373,-1.354439 0.29611,-1.312066 0.33899,-1.354439 0.33849,-1.312064 0.38085,-1.26969 0.42323,-1.312066 0.46561,-1.269691 0.4656,-1.227314 0.50798,-1.269691 0.55035,-1.2273152 0.55036,-1.184939 0.59221,-1.185457 0.6351,-1.184942 1.31207,-2.328024 1.43919,-2.200381 1.52393,-2.15852298 1.65055,-2.07429402 1.73529,-1.989026 1.82005,-1.946651 1.90479,-1.820042 1.98954,-1.6929208 2.07378,-1.650545 2.15852,-1.523939 2.24379,-1.439188 2.28565,-1.312066 1.18494,-0.634585 1.18494,-0.59273 1.22784,-0.549836 1.22731,-0.550354 1.22732,-0.507979 1.2702,-0.465606 1.26969,-0.465603 1.26969,-0.42323 1.31207,-0.380857 1.31206,-0.338479 1.31207,-0.338482 1.31258,-0.296622 1.35444,-0.253732 1.35444,-0.211873 1.39681,-0.211357 1.35444,-0.127124 1.39682,-0.126607 1.39681,-0.08475 1.43867,-0.08475 h 1.39681 1.43919 l 1.39682,0.08475 1.39681,0.08475 1.39681,0.126607 1.39682,0.127124 1.35444,0.211357 1.35444,0.211873 1.35444,0.253732 1.35443,0.296622 1.31207,0.338482 1.31206,0.338479 1.31259,0.380857 1.26969,0.42323 1.26968,0.465603 1.26969,0.465606 1.22783,0.507979 1.22732,0.550354 1.22731,0.549836 1.18546,0.59273 1.18494,0.634585 2.28565,1.312066 2.24327,1.439188 2.15853,1.523939 2.07429,1.650545 1.98954,1.6929208 1.90428,1.820042 1.82004,1.946651 1.73581,1.989026 1.60817,2.07429402 1.56632,2.15852298 1.39681,2.200381 1.35444,2.328024 0.59221,1.184942 0.59273,1.185457 0.59273,1.184939 0.50798,1.2273152 0.50798,1.269691 0.50746,1.227314 0.42375,1.269691 0.42323,1.312066 0.380854,1.26969 0.38086,1.312064 0.2961,1.354439 0.29663,1.312066 0.25373,1.354439 0.25424,1.354439 0.16899,1.396297 0.1695,1.354439 0.12712,1.396814 0.0842,1.396813 0.0424,1.396814 0.0424,1.438672 -0.0424,1.439188 -0.0424,1.396815 -0.0842,1.396296 -0.12712,1.396815 -0.1695,1.396815 -0.16899,1.354439 -0.25424,1.354439 -0.25373,1.353923 -0.29663,1.312064 -0.2961,1.354439 -0.38086,1.312066 -0.380854,1.269688 -0.42323,1.312066 -0.42375,1.26969 -0.50746,1.227311 -0.50798,1.26969 -0.50798,1.22784 -0.59273,1.18494 -0.59273,1.22731 -0.59221,1.14257 -1.35444,2.32802 -1.39681,2.2009 -1.56632,2.15852 -1.60817,2.07378 -1.73581,2.0314 -1.82004,1.90479 -1.90428,1.82005 -1.98954,1.73529 -2.07429,1.60817 -0.0439,0.031 15.00632,20.01428 1.50275,-1.16892 1.48157,-1.22731 1.48156,-1.22732 1.439194,-1.26969 1.39681,-1.31207 1.39681,-1.35443 1.31207,-1.35444 1.31206,-1.39682 1.26969,-1.43867 1.26969,-1.48156 1.18546,-1.48157 1.18494,-1.52342 1.10071,-1.56579 1.10019,-1.56632 1.05833,-1.60817 1.01596,-1.65054 1.01596,-1.65055 0.93121,-1.69292 0.88883,-1.73529 0.88884,-1.7353 0.80408,-1.73529 0.80409,-1.77767 0.71985,-1.82004 0.67696,-1.82005 0.67748,-1.8619 0.59221,-1.86242 0.55036,-1.90479 0.55035,-1.904278 0.46561,-1.904793 0.42323,-1.946651 0.38085,-1.947169 0.29663,-1.989027 0.2961,-1.989023 0.21187,-2.031918 0.21136,-2.031402 0.12713,-2.0314 0.0424,-2.031918 0.0424,-2.073775 -0.0424,-2.073775 -0.0424,-2.031399 -0.12713,-2.031918 -0.21136,-2.031402 -0.21187,-2.0314 -0.2961,-1.989026 -0.29663,-1.947167 -0.38085,-1.989026 -0.42323,-1.947169 -0.46561,-1.904275 -0.55035,-1.904794 -0.55036,-1.9047942 -0.59221,-1.861902 -0.67748,-1.862418 -0.67696,-1.820044 -0.71985,-1.77767 -0.80409,-1.81952598 -0.80408,-1.73529402 -0.88884,-1.735296 -0.88883,-1.735294 -0.93121,-1.69292 -1.01596,-1.650545 -1.01596,-1.6086878 -1.05833,-1.608169 -1.10019,-1.608172 -1.10071,-1.566312 -1.18494,-1.523421 -1.18546,-1.481563 -1.26969,-1.481048 -1.26969,-1.439188 -1.31206,-1.396814 -1.31207,-1.353923 -1.39681,-1.354439 -1.39681,-1.312064 -1.439194,-1.26969 -1.48156,-1.227316 -1.48157,-1.227832 -1.52342,-1.142566 -1.56631,-1.142566 -1.5658,-1.100708 -1.60869,-1.057816 -1.65057,-1.015939 -1.65106,-0.973584 -1.69292,-0.973067 -1.69292,-0.888835 -1.7353,-0.84646 -1.77818,-0.84646 -1.77767,-0.762227 -1.82005,-0.761711 -1.82004,-0.676961 -1.86242,-0.635103 -1.86242,-0.634587 -1.86242,-0.550354 -1.90427,-0.507979 -1.94717,-0.465605 -1.94717,-0.42323 -1.94716,-0.380855 -1.98903,-0.338481 -1.98954,-0.296106 -2.0314,-0.211873 -1.98954,-0.169499 -2.03192,-0.126607 -2.07378,-0.08475 z"
       id="path6869"
       inkscape:connector-curvature="0" />
    <g
       transform="matrix(2.9681154,0,0,2.9681154,518.30934,-297.69577)"
       id="text6879"
       style="font-style:normal;font-variant:normal;font-weight:700;font-size:25.39999962px;line-height:125%;font-family:'Roboto Black';text-align:start;letter-spacing:0px;word-spacing:0px;text-anchor:start;display:inline;fill:#000000;fill-opacity:1;stroke:none;stroke-width:0.26458332;enable-background:new"
       aria-label="eGo">
      <path
         id="path838"
         style="stroke-width:0.26458332"
         d="m -170.51468,111.14687 v 1.26504 h -10.38076 q 0.16123,1.56269 1.12861,2.34404 0.96739,0.78135 2.70371,0.78135 1.40147,0 2.86494,-0.40928 1.47588,-0.42168 3.02618,-1.26504 v 3.42305 q -1.5751,0.59531 -3.1502,0.89297 -1.5751,0.31005 -3.15019,0.31005 -3.77032,0 -5.86631,-1.90996 -2.0836,-1.92236 -2.0836,-5.38261 0,-3.39825 2.04639,-5.34541 2.05879,-1.94717 5.65547,-1.94717 3.27422,0 5.23379,1.97197 1.97197,1.97197 1.97197,5.271 z m -4.56406,-1.47588 q 0,-1.26504 -0.74414,-2.03399 -0.73174,-0.78134 -1.92237,-0.78134 -1.28984,0 -2.09599,0.73173 -0.80615,0.71934 -1.00459,2.0836 z"
         inkscape:connector-curvature="0" />
      <path
         id="path840"
         style="stroke-width:0.26458332"
         d="m -150.32366,116.75273 q -1.78594,0.86816 -3.7083,1.30224 -1.92237,0.43408 -3.96875,0.43408 -4.62608,0 -7.32979,-2.57968 -2.70371,-2.59209 -2.70371,-7.01973 0,-4.47725 2.75332,-7.04453 2.75332,-2.567285 7.54062,-2.567285 1.84795,0 3.53467,0.347265 1.69912,0.347266 3.19981,1.02939 v 3.83233 q -1.5503,-0.88057 -3.08819,-1.31465 -1.52548,-0.43408 -3.06338,-0.43408 -2.85253,0 -4.40283,1.5999 -1.53789,1.5875 -1.53789,4.55166 0,2.93936 1.48828,4.53926 1.48828,1.5999 4.2292,1.5999 0.74414,0 1.37666,-0.0868 0.64492,-0.0992 1.15342,-0.29765 v -3.59668 h -2.91455 v -3.19981 h 7.44141 z"
         inkscape:connector-curvature="0" />
      <path
         id="path842"
         style="stroke-width:0.26458332"
         d="m -139.71966,107.0789 q -1.47588,0 -2.25722,1.0666 -0.76895,1.0542 -0.76895,3.05098 0,1.99677 0.76895,3.06338 0.78134,1.05419 2.25722,1.05419 1.45108,0 2.22002,-1.05419 0.76895,-1.06661 0.76895,-3.06338 0,-1.99678 -0.76895,-3.05098 -0.76894,-1.0666 -2.22002,-1.0666 z m 0,-3.175 q 3.58428,0 5.59346,1.93476 2.02158,1.93477 2.02158,5.35782 0,3.42304 -2.02158,5.35781 -2.00918,1.93476 -5.59346,1.93476 -3.59668,0 -5.63066,-1.93476 -2.02158,-1.93477 -2.02158,-5.35781 0,-3.42305 2.02158,-5.35782 2.03398,-1.93476 5.63066,-1.93476 z"
         inkscape:connector-curvature="0" />
    </g>
    <circle
       transform="scale(1,-1)"
       style="opacity:1;fill:#1f567d;fill-opacity:1;stroke:none;stroke-width:2.42568207;stroke-linecap:round;stroke-linejoin:round;stroke-miterlimit:4;stroke-dasharray:none;stroke-dashoffset:0;stroke-opacity:1;paint-order:fill markers stroke"
       id="circle1207"
       cx="-179.88113"
       cy="-48.286907"
       r="14.794883" />
    <g
       transform="matrix(2.9681154,0,0,2.9681154,518.30934,-297.69577)"
       id="text862"
       style="font-style:normal;font-variant:normal;font-weight:700;font-size:25.39999962px;line-height:125%;font-family:'Roboto Black';text-align:start;letter-spacing:0px;word-spacing:0px;text-anchor:start;display:inline;fill:#000000;fill-opacity:1;stroke:none;stroke-width:0.26458332;enable-background:new"
       aria-label="n">
      <path
         id="path835"
         style="font-size:16.93333435px;stroke-width:0.26458332"
         d="m -120.52652,103.49621 v 5.63894 h -2.97656 v -0.91778 -3.39824 q 0,-1.19889 -0.0579,-1.65364 -0.0496,-0.45476 -0.1819,-0.66973 -0.17363,-0.28939 -0.47129,-0.44649 -0.29766,-0.16536 -0.678,-0.16536 -0.92604,0 -1.4552,0.71934 -0.52917,0.71106 -0.52917,1.9761 v 4.5558 h -2.96003 v -9.26042 h 2.96003 v 1.35599 q 0.66973,-0.81029 1.42213,-1.19063 0.75241,-0.388602 1.66192,-0.388602 1.60404,0 2.43086,0.983922 0.83509,0.98392 0.83509,2.8608 z"
         inkscape:connector-curvature="0" />
    </g>
    <g
       transform="matrix(0.26298507,0,0,0.26298507,-193.03039,35.252353)"
       id="g968"
       style="fill:#ffffff;fill-opacity:1">
      <path
         style="fill:#ffffff;fill-opacity:1"
         d="M 70.74,12.53 65.83,18 c 0.07,0.06 6.74,6.24 6.93,14.54 0.11,5.1 -2.26,10.12 -7.06,14.91 -6.29,6.29 -9.38,13.13 -9.19,20.34 0.3,11.46 9,19.39 9.33,19.72 L 70.74,82 c -0.07,-0.06 -6.7,-6.25 -6.92,-14.47 -0.13,-5.12 2.24,-10.16 7.06,-15 6.29,-6.29 9.38,-13.13 9.19,-20.34 -0.3,-11.4 -8.97,-19.33 -9.33,-19.66 z"
         id="path951"
         inkscape:connector-curvature="0" />
      <path
         style="fill:#ffffff;fill-opacity:1"
         d="m 61.78,32.25 c -0.3,-11.46 -9,-19.39 -9.33,-19.72 L 47.55,18 c 0.07,0.06 6.7,6.25 6.91,14.47 0.14,5.12 -2.23,10.16 -7.05,15 -6.29,6.23 -9.41,13.07 -9.19,20.28 0.3,11.46 9,19.39 9.33,19.72 L 52.45,82 C 52.38,81.94 45.75,75.75 45.54,67.53 45.4,62.41 47.77,57.37 52.59,52.53 58.88,46.3 62,39.46 61.78,32.25 Z"
         id="path953"
         inkscape:connector-curvature="0" />
      <path
         style="fill:#ffffff;fill-opacity:1"
         d="m 43.49,32.25 c -0.3,-11.46 -9,-19.39 -9.33,-19.72 L 29.26,18 c 0.07,0.06 6.7,6.25 6.92,14.47 0.13,5.12 -2.24,10.16 -7.06,15 -6.29,6.29 -9.38,13.13 -9.19,20.34 0.3,11.46 9,19.39 9.33,19.72 L 34.17,82 C 34.1,82 27.43,75.8 27.24,67.5 27.13,62.4 29.5,57.38 34.3,52.59 40.59,46.3 43.68,39.46 43.49,32.25 Z"
         id="path955"
         inkscape:connector-curvature="0" />
    </g>
    <circle
       r="14.794883"
       cy="-48.286907"
       cx="-126.43571"
       id="circle1012"
       style="opacity:1;fill:#1f567d;fill-opacity:1;stroke:none;stroke-width:2.42568207;stroke-linecap:round;stroke-linejoin:round;stroke-miterlimit:4;stroke-dasharray:none;stroke-dashoffset:0;stroke-opacity:1;paint-order:fill markers stroke"
       transform="scale(1,-1)" />
    <g
       transform="matrix(0.35264533,0,0,0.35264533,-143.17032,30.983877)"
       id="g997"
       style="fill:#ffffff;fill-opacity:1">
      <g
         style="fill:#ffffff;fill-opacity:1"
         id="g985">
        <path
           style="fill:#ffffff;fill-opacity:1"
           d="m 47.31407,18.878 c 0,0 -36.572,51.986 0,61.563 37.204,-9.577 0,-61.563 0,-61.563 z m 0.083,53.084 c -14.791,-3.873 0,-24.907 0,-24.907 0,0 15.052,21.034 0,24.907 z"
           id="path983"
           inkscape:connector-curvature="0" />
      </g>
    </g>
    <circle
       transform="scale(1,-1)"
       style="opacity:1;fill:#1f567d;fill-opacity:1;stroke:none;stroke-width:2.42568207;stroke-linecap:round;stroke-linejoin:round;stroke-miterlimit:4;stroke-dasharray:none;stroke-dashoffset:0;stroke-opacity:1;paint-order:fill markers stroke"
       id="circle1014"
       cx="-152.62926"
       cy="-1.7202339"
       r="14.794883" />
    <g
       transform="matrix(0.19727378,0,0,0.19727378,-162.49295,-7.8627862)"
       id="g1010"
       style="fill:#ffffff;fill-opacity:1">
      <path
         style="fill:#ffffff;fill-opacity:1"
         d="m 99,38 c 0,-3.3 -2.7,-6 -6,-6 H 86.632 L 81.383,17.753 C 80.622,15.689 78.309,13.384 76.241,12.632 76.241,12.633 69,10 50,10 c -19,0 -26.241,2.633 -26.241,2.633 -2.068,0.752 -4.381,3.056 -5.142,5.121 L 13.368,32 H 7 c -3.3,0 -6,2.7 -6,6 0,3.3 2.7,6 6,6 H 8.947 L 7.383,48.247 C 6.622,50.311 6,53.8 6,56 v 26 c 0,4.4 3.6,8 8,8 4.4,0 8,-3.6 8,-8 v -4 h 56 v 4 c 0,4.4 3.6,8 8,8 4.4,0 8,-3.6 8,-8 V 56 c 0,-2.2 -0.622,-5.689 -1.383,-7.753 L 91.053,44 H 93 c 3.3,0 6,-2.7 6,-6 z M 27,20 h 46 l 6,18 H 21 Z m -7,42 c -3.313,0 -6,-2.688 -6,-6 0,-3.312 2.687,-6 6,-6 3.313,0 6,2.688 6,6 0,3.312 -2.687,6 -6,6 z m 60,0 c -3.314,0 -6,-2.686 -6,-6 0,-3.314 2.686,-6 6,-6 3.314,0 6,2.686 6,6 0,3.314 -2.686,6 -6,6 z"
         id="path999"
         inkscape:connector-curvature="0" />
    </g>
    <g
       transform="matrix(0.26523344,0,0,0.2714979,-165.29387,17.799468)"
       id="g981"
       style="fill:#5784a3;fill-opacity:1">
      <polygon
         style="fill:#ffffff;fill-opacity:1"
         points="17.351,95 75.635,50 58.311,50 82.648,5 24.364,50 41.691,50 "
         id="polygon970" />
    </g>
  </g>
</svg>
