<?xml version="1.0" encoding="UTF-8" standalone="no"?>
<!-- Created with Inkscape (http://www.inkscape.org/) -->

<svg
   xmlns:dc="http://purl.org/dc/elements/1.1/"
   xmlns:cc="http://creativecommons.org/ns#"
   xmlns:rdf="http://www.w3.org/1999/02/22-rdf-syntax-ns#"
   xmlns:svg="http://www.w3.org/2000/svg"
   xmlns="http://www.w3.org/2000/svg"
   xmlns:sodipodi="http://sodipodi.sourceforge.net/DTD/sodipodi-0.dtd"
   xmlns:inkscape="http://www.inkscape.org/namespaces/inkscape"
   width="360"
   height="360"
   id="svg4006"
   version="1.1"
   inkscape:version="0.48.5 r10040"
   sodipodi:docname="New document 12">
  <defs
     id="defs4008" />
  <sodipodi:namedview
     id="base"
     pagecolor="#ffffff"
     bordercolor="#666666"
     borderopacity="1.0"
     inkscape:pageopacity="0.0"
     inkscape:pageshadow="2"
     inkscape:zoom="0.35"
     inkscape:cx="159.1913"
     inkscape:cy="95.626287"
     inkscape:document-units="px"
     inkscape:current-layer="layer1"
     showgrid="false"
     fit-margin-top="20"
     fit-margin-left="20"
     fit-margin-right="20"
     fit-margin-bottom="20"
     showguides="true"
     inkscape:guide-bbox="true"
     inkscape:window-width="866"
     inkscape:window-height="564"
     inkscape:window-x="20"
     inkscape:window-y="46"
     inkscape:window-maximized="0" />
  <metadata
     id="metadata4011">
    <rdf:RDF>
      <cc:Work
         rdf:about="">
        <dc:format>image/svg+xml</dc:format>
        <dc:type
           rdf:resource="http://purl.org/dc/dcmitype/StillImage" />
        <dc:title></dc:title>
      </cc:Work>
    </rdf:RDF>
  </metadata>
  <g
     inkscape:label="Layer 1"
     inkscape:groupmode="layer"
     id="layer1"
     transform="translate(-382.79819,-267.98851)">
    <g
       transform="matrix(4.709109,0,0,4.709109,863.83643,638.12708)"
       id="g3857"
       style="fill:#32322a;fill-opacity:1">
      <path
         id="path3929-8"
         style="font-size:medium;font-style:normal;font-variant:normal;font-weight:normal;font-stretch:normal;text-indent:0;text-align:start;text-decoration:none;line-height:normal;letter-spacing:normal;word-spacing:normal;text-transform:none;direction:ltr;block-progression:tb;writing-mode:lr-tb;text-anchor:start;baseline-shift:baseline;color:#000000;fill:#32322a;fill-opacity:1;stroke:none;stroke-width:3.22848845;marker:none;visibility:visible;display:inline;overflow:visible;enable-background:accumulate;font-family:Sans;-inkscape-font-specification:Sans"
         d="M -67.28125,-41.59375 A 1.6144056,1.6144056 0 0 0 -67.5,-38.4375 c 0,0 3.931695,1.301049 10.625,1.84375 5.374689,0.435786 11.46875,-0.375 11.46875,-0.375 a 1.6144056,1.6144056 0 1 0 -0.40625,-3.1875 c 0,0 -5.961605,0.737066 -10.8125,0.34375 C -63.013171,-40.330461 -66.5,-41.5 -66.5,-41.5 a 1.6144056,1.6144056 0 0 0 -0.78125,-0.09375 z m 0,-8 A 1.6144056,1.6144056 0 0 0 -67.5,-46.4375 c 0,0 3.931695,1.301049 10.625,1.84375 5.374689,0.435786 11.46875,-0.375 11.46875,-0.375 a 1.6144056,1.6144056 0 1 0 -0.40625,-3.1875 c 0,0 -5.961605,0.737066 -10.8125,0.34375 C -63.013171,-48.330461 -66.5,-49.5 -66.5,-49.5 a 1.6144056,1.6144056 0 0 0 -0.78125,-0.09375 z m 0,-8 A 1.6144056,1.6144056 0 0 0 -67.5,-54.4375 c 0,0 3.931695,1.301049 10.625,1.84375 5.374689,0.435786 11.46875,-0.375 11.46875,-0.375 a 1.6144056,1.6144056 0 1 0 -0.40625,-3.1875 c 0,0 -5.961605,0.737066 -10.8125,0.34375 C -63.013171,-56.330461 -66.5,-57.5 -66.5,-57.5 a 1.6144056,1.6144056 0 0 0 -0.78125,-0.09375 z m 0,-8 A 1.6144056,1.6144056 0 0 0 -67.5,-62.4375 c 0,0 3.931695,1.301049 10.625,1.84375 5.374689,0.435786 11.46875,-0.375 11.46875,-0.375 a 1.6144056,1.6144056 0 1 0 -0.40625,-3.1875 c 0,0 -5.961605,0.737066 -10.8125,0.34375 C -63.013171,-64.330461 -66.5,-65.5 -66.5,-65.5 a 1.6144056,1.6144056 0 0 0 -0.78125,-0.09375 z m -11.207892,-8.437005 c -8.407221,0.05606 -11.539425,2.645057 -11.539425,2.645057 l 0,62.7837755 c 0,0 3.05858,-2.6415165 12.905554,-2.2381255 9.846974,0.403391 11.878255,3.8552765 23.979914,4.0983855 12.101659,0.243109 15.143679,-1.86026 15.143679,-1.86026 l 0.174399,-64.0045705 c 0,0 -5.446133,1.541392 -16.044742,1.627727 -10.598609,0.08634 -13.146074,-2.696144 -22.875385,-3.022922 -0.608082,-0.02042 -1.183512,-0.0328 -1.743994,-0.02907 z m 7.034109,4.098386 c 0,0 5.094376,1.68402 14.504214,2.150925 7.953019,0.39462 15.928477,-0.784797 15.928477,-0.784797 l 0,56.883263 c 0,0 -4.036665,2.1158549 -14.12635,1.395195 -7.819331,-0.558499 -16.422608,-3.517054 -16.422608,-3.517054 l 0.116267,-56.127532 z m -4.912249,1.482394 a 1.6277275,1.6277275 0 0 1 0,3.255455 c 0,0 -2.634985,0.01353 -4.243719,0.1744 -2.701025,0.270103 -4.534383,1.249862 -4.534383,1.249862 a 1.6251955,1.6251955 0 1 1 -1.511462,-2.87759 c 0,0 2.391605,-1.26521 5.726113,-1.598661 1.926801,-0.192699 4.563451,-0.203466 4.563451,-0.203466 z m -1.569595,8.022372 c 0.899775,-0.02279 1.569595,0 1.569595,0 a 1.625,1.625 0 0 1 0,3.226388 c 0,0 -2.634985,0.01352 -4.243719,0.174399 -2.701025,0.270104 -4.534383,1.249863 -4.534383,1.249863 a 1.6251955,1.6251955 0 0 1 -1.511462,-2.87759 c 0,0 2.391605,-1.26521 5.726113,-1.598661 0.963401,-0.09635 2.094081,-0.151612 2.993856,-0.174399 z m 1.569595,7.993304 a 1.6277275,1.6277275 0 0 1 0,3.255455 c 0,0 -2.634985,-0.01554 -4.243719,0.145333 -2.701025,0.270103 -4.534383,1.249862 -4.534383,1.249862 a 1.6251952,1.6251952 0 0 1 -1.511462,-2.877589 c 0,0 2.391605,-1.265211 5.726113,-1.598661 1.926801,-0.1927 4.563451,-0.1744 4.563451,-0.1744 z"
         inkscape:connector-curvature="0" />
    </g>
  </g>
</svg>
