<?xml version="1.0" encoding="UTF-8" standalone="no"?>
<svg
   xmlns:dc="http://purl.org/dc/elements/1.1/"
   xmlns:cc="http://creativecommons.org/ns#"
   xmlns:rdf="http://www.w3.org/1999/02/22-rdf-syntax-ns#"
   xmlns:svg="http://www.w3.org/2000/svg"
   xmlns="http://www.w3.org/2000/svg"
   viewBox="0 0 621.77332 230.66667"
   height="230.66667"
   width="621.77332"
   xml:space="preserve"
   id="svg2"
   version="1.1"><metadata
     id="metadata8"><rdf:RDF><cc:Work
         rdf:about=""><dc:format>image/svg+xml</dc:format><dc:type
           rdf:resource="http://purl.org/dc/dcmitype/StillImage" /></cc:Work></rdf:RDF></metadata><defs
     id="defs6" /><g
     transform="matrix(1.3333333,0,0,-1.3333333,0,230.66667)"
     id="g10"><g
       transform="scale(0.1)"
       id="g12"><path
         id="path14"
         style="fill:#5f6264;fill-opacity:1;fill-rule:nonzero;stroke:none"
         d="m 829.965,241.91 h -12.352 v 597.789 h 12.352 V 241.91" /><path
         id="path16"
         style="fill:#193959;fill-opacity:1;fill-rule:nonzero;stroke:none"
         d="m 232.234,1261.41 c -7.121,-7.53 -16.074,-20.51 -17.183,-26.78 8.387,2.4 49.996,21.98 46.898,42.41 -0.406,0.04 -16.035,-1.16 -29.715,-15.63" /><path
         id="path18"
         style="fill:#193959;fill-opacity:1;fill-rule:nonzero;stroke:none"
         d="m 688.113,1305.16 c 31.028,14 101.43,58.32 141.727,102.05 l -0.102,88.86 c -14.64,-16.01 -28.328,-32.58 -40.941,-49.61 -23.957,-32.6 -59.367,-80.41 -100.684,-141.3" /><path
         id="path20"
         style="fill:#193959;fill-opacity:1;fill-rule:nonzero;stroke:none"
         d="m 212.238,1271.18 c 19.532,22.11 38.582,32.32 56.367,32.32 6.196,0 13.188,-1.55 17.645,-6.96 5.109,-6.19 7.48,-13.18 6.813,-19.66 -0.93,-8.97 -3.922,-16.13 -11.61,-24.92 -7.223,-8.25 -18.183,-15.71 -26.156,-21.35 -13.414,-9.5 -21.981,-14.86 -39.473,-24.31 -0.461,-4.64 4.336,-11.14 9.754,-15.32 5.918,-3.96 14.512,-4.57 21.867,-4.57 20.887,0 50.637,10.76 90.965,36.92 3.36,2.18 10.551,10.14 18.414,17.58 12.465,11.8 25.692,30.03 47.789,51.57 2.051,2.61 8.914,8.3 9.633,8.8 4.024,2.78 7.91,1.57 7.91,1.57 4.774,-0.94 5.567,-2.89 6.949,-4.51 4.032,-4.74 -1.695,-12.63 -1.695,-12.63 -2.875,-3.7 -34.406,-40.97 -40.25,-51.14 -8.613,-15.34 -10.258,-19.31 -10.258,-27.64 0,-10.06 5.946,-14.25 12.395,-14.77 7.613,-0.62 10.629,1.18 20.769,6.81 13.649,7.57 20.028,14.05 28.286,20.59 8.281,6.58 20.918,18.6 41.832,39.92 23.679,24.15 28.488,29.48 33.285,32.73 5.004,3.39 17.801,-2.32 15.633,-10.68 -1.016,-3.92 -5.692,-8.14 -25.497,-30.25 -12.375,-13.82 -20.214,-24.96 -21.296,-32.34 -1.184,-8.09 0.496,-24.96 19.242,-26.26 7.711,-0.53 29.719,3.41 67.176,22.29 14.546,7.43 37.699,23.88 58.816,39.62 18.602,28.68 49.336,74.84 83.59,124.9 44.129,61.68 83.461,112.4 118.551,149.06 l 0.054,57.02 H 192.164 v -341.21 c 5.27,8.71 11.797,17.45 20.074,26.82" /><path
         id="path22"
         style="fill:#193959;fill-opacity:1;fill-rule:nonzero;stroke:none"
         d="m 553.969,1135.52 c 24.785,29.21 45.195,60.18 50.976,71.19 -1.828,0.03 -54.226,-53.34 -115.363,-49.94 -21.09,1.18 -38.801,17.03 -37.871,36.22 -10.945,-9.4 -35.031,-36.68 -68.566,-37.76 -8.54,-0.28 -27.399,1.39 -37.766,16.71 -5.168,7.63 -6.059,16.94 -6.039,17.65 -34.465,-25.29 -71.817,-41.48 -114.949,-33.43 -22.996,4.29 -28.446,17.25 -31.782,20.43 L 192.164,948 h 170.09 c 21.355,10.449 110.816,92.17 191.715,187.52" /><path
         id="path24"
         style="fill:#193959;fill-opacity:1;fill-rule:nonzero;stroke:none"
         d="m 794.41,1345.34 c -44.277,-34.84 -85.805,-62.04 -123.566,-81.15 -1.145,-0.95 -2.207,-1.79 -3.34,-2.73 l -18.395,-31.11 68.618,1.08 c 10.968,0 17.644,-2 17.644,-12.54 0,-4.45 -0.508,-9.09 -15.476,-9.91 l -80.079,-1.75 C 521.258,1037.34 405.59,952.156 400.637,948.129 L 829.738,948 v 426.18 c -11.582,-9.91 -23.355,-19.53 -35.328,-28.84" /><path
         id="path26"
         style="fill:#5f6264;fill-opacity:1;fill-rule:nonzero;stroke:none"
         d="m 968.469,684.82 v 135.746 h 18.152 V 684.82 h -18.152" /><path
         id="path28"
         style="fill:#5f6264;fill-opacity:1;fill-rule:nonzero;stroke:none"
         d="m 1076.38,684.82 v 73.403 c 0,15.976 -6.51,23.867 -23.87,23.867 -7.3,0 -13.22,-1.184 -18.74,-3.555 V 684.82 h -17.36 v 100.825 c 9.86,4.531 22.88,7.5 36.1,7.5 28.61,0 41.24,-12.43 41.24,-34.922 V 684.82 h -17.37" /><path
         id="path30"
         style="fill:#5f6264;fill-opacity:1;fill-rule:nonzero;stroke:none"
         d="m 1152.13,683.84 c -15.19,0 -25.45,9.281 -25.45,26.832 v 69.641 h -12.23 v 10.847 h 12.23 v 24.477 l 17.36,5.32 V 791.16 h 18.55 v -10.847 h -18.55 v -69.641 c 0,-9.274 4.54,-14.801 13.22,-14.801 1.97,0 3.75,0.199 5.33,0.789 v -11.039 c -2.77,-1.191 -6.32,-1.781 -10.46,-1.781" /><path
         id="path32"
         style="fill:#5f6264;fill-opacity:1;fill-rule:nonzero;stroke:none"
         d="m 1221.18,782.285 c -17.56,0 -26.63,-16.57 -26.63,-40.644 v -0.989 l 50.9,7.903 c -0.4,21.504 -7.7,33.73 -24.27,33.73 z m -25.84,-51.094 c 1.57,-21.902 12.62,-35.91 32.75,-35.91 9.66,0 19.92,2.77 25.85,6.309 l 4.53,-11.238 c -7.5,-4.34 -19.73,-7.5 -32.16,-7.5 -30.38,0 -47.75,20.918 -47.75,55.441 0,33.34 15.99,54.852 43.02,54.852 25.45,0 40.64,-16.582 40.64,-50.118 v -1.972 l -66.88,-9.864" /><path
         id="path34"
         style="fill:#5f6264;fill-opacity:1;fill-rule:nonzero;stroke:none"
         d="m 1327.71,779.531 c -3.16,1.184 -6.91,1.77 -10.85,1.77 -4.74,0 -9.67,-0.781 -13.42,-2.766 V 684.82 h -17.36 v 100.825 c 9.08,4.531 21.11,7.5 36.3,7.5 3.95,0 8.29,-0.403 9.28,-0.594 l -3.95,-13.02" /><path
         id="path36"
         style="fill:#5f6264;fill-opacity:1;fill-rule:nonzero;stroke:none"
         d="m 1405.63,780.117 c -4.14,1.184 -8.87,1.973 -13.41,1.973 -24.07,0 -32.16,-21.113 -32.16,-44.395 0,-25.047 8.48,-43.394 30.18,-43.394 7.11,0 11.84,0.98 15.39,2.961 z m -16.37,-97.265 c -30.58,0 -46.56,21.308 -46.56,53.078 0,31.367 15.78,56.425 46.56,56.425 5.32,0 10.65,-0.597 16.37,-2.179 v 49.519 h 17.17 V 690.352 c -7.1,-4.34 -19.53,-7.5 -33.54,-7.5" /><path
         id="path38"
         style="fill:#5f6264;fill-opacity:1;fill-rule:nonzero;stroke:none"
         d="m 1451.98,684.82 v 106.34 h 17.37 V 684.82 Z m 8.68,126.664 c -5.72,0 -10.45,4.344 -10.45,9.668 0,5.332 4.73,9.668 10.45,9.668 5.73,0 10.46,-4.336 10.46,-9.668 0,-5.324 -4.73,-9.668 -10.46,-9.668" /><path
         id="path40"
         style="fill:#5f6264;fill-opacity:1;fill-rule:nonzero;stroke:none"
         d="m 1521.23,682.852 c -10.46,0 -21.9,2.769 -28.61,7.296 l 4.93,11.051 c 6.32,-3.937 14.4,-6.109 21.9,-6.109 12.43,0 20.52,7.89 20.52,18.34 0,26.043 -44.98,15.59 -44.98,50.711 0,16.379 13.22,29.004 32.75,29.004 10.26,0 19.53,-2.571 26.64,-7.305 l -4.55,-10.266 c -5.52,3.559 -12.82,6.125 -19.72,6.125 -12.23,0 -17.96,-7.5 -17.96,-16.777 0,-24.27 45.38,-14.395 45.38,-50.703 0,-17.16 -14.6,-31.367 -36.3,-31.367" /><path
         id="path42"
         style="fill:#5f6264;fill-opacity:1;fill-rule:nonzero;stroke:none"
         d="m 1618.09,682.852 c -25.65,0 -41.23,22.687 -41.23,55.246 0,32.547 15.78,55.047 41.23,55.047 9.87,0 18.16,-2.571 23.87,-6.915 l -4.14,-10.253 c -4.14,3.156 -10.46,5.324 -16.77,5.324 -16.97,0 -26.44,-18.352 -26.44,-42.817 0,-24.074 9.67,-43.004 26.44,-43.004 6.31,0 12.43,1.969 16.57,5.129 l 4.34,-10.847 c -5.71,-4.34 -14,-6.91 -23.87,-6.91" /><path
         id="path44"
         style="fill:#5f6264;fill-opacity:1;fill-rule:nonzero;stroke:none"
         d="m 1664.05,684.82 v 106.34 h 17.36 V 684.82 Z m 8.68,126.664 c -5.72,0 -10.45,4.344 -10.45,9.668 0,5.332 4.73,9.668 10.45,9.668 5.72,0 10.46,-4.336 10.46,-9.668 0,-5.324 -4.74,-9.668 -10.46,-9.668" /><path
         id="path46"
         style="fill:#5f6264;fill-opacity:1;fill-rule:nonzero;stroke:none"
         d="m 1742.96,782.488 c -5.32,0 -11.05,-0.789 -15.19,-2.761 v -83.266 c 3.16,-1.18 7.69,-2.16 12.83,-2.16 21.69,0 32.74,16.371 32.74,44.586 0,26.633 -8.09,43.601 -30.38,43.601 z m 1.38,-99.25 c -6.11,0 -12.63,1.192 -16.57,2.571 v -43.411 h -17.16 V 785.84 c 9.07,4.734 20.71,7.305 32.94,7.305 30.39,0 47.16,-20.918 47.16,-53.274 0,-35.512 -18.35,-56.633 -46.37,-56.633" /><path
         id="path48"
         style="fill:#5f6264;fill-opacity:1;fill-rule:nonzero;stroke:none"
         d="m 1815.75,684.82 v 154.875 h 17.36 V 684.82 h -17.36" /><path
         id="path50"
         style="fill:#5f6264;fill-opacity:1;fill-rule:nonzero;stroke:none"
         d="m 1863.49,684.82 v 106.34 h 17.36 V 684.82 Z m 8.68,126.664 c -5.72,0 -10.46,4.344 -10.46,9.668 0,5.332 4.74,9.668 10.46,9.668 5.72,0 10.46,-4.336 10.46,-9.668 0,-5.324 -4.74,-9.668 -10.46,-9.668" /><path
         id="path52"
         style="fill:#5f6264;fill-opacity:1;fill-rule:nonzero;stroke:none"
         d="m 1970.02,684.82 v 73.403 c 0,15.976 -6.51,23.867 -23.87,23.867 -7.3,0 -13.22,-1.184 -18.74,-3.555 V 684.82 h -17.37 v 100.825 c 9.87,4.531 22.89,7.5 36.11,7.5 28.61,0 41.23,-12.43 41.23,-34.922 V 684.82 h -17.36" /><path
         id="path54"
         style="fill:#5f6264;fill-opacity:1;fill-rule:nonzero;stroke:none"
         d="m 2069.64,744.805 c -27.03,-3.164 -43.01,-10.657 -43.01,-29.407 0,-14.386 8.88,-22.488 25.45,-22.488 6.71,0 13.42,1.391 17.56,3.551 z m -19.14,-61.953 c -25.45,0 -40.44,11.046 -40.44,32.16 0,25.64 25.25,35.515 59.58,38.867 v 6.512 c 0,14.597 -7.89,21.113 -22.69,21.113 -9.27,0 -19.33,-2.766 -26.63,-6.707 l -4.15,10.652 c 8.88,4.531 20.92,7.696 32.36,7.696 23.09,0 37.29,-10.86 37.29,-34.532 v -68.261 c -8.49,-4.543 -21.11,-7.5 -35.32,-7.5" /><path
         id="path56"
         style="fill:#5f6264;fill-opacity:1;fill-rule:nonzero;stroke:none"
         d="m 2155.45,779.531 c -3.16,1.184 -6.91,1.77 -10.85,1.77 -4.74,0 -9.67,-0.781 -13.41,-2.766 V 684.82 h -17.37 v 100.825 c 9.08,4.531 21.11,7.5 36.31,7.5 3.94,0 8.28,-0.403 9.27,-0.594 l -3.95,-13.02" /><path
         id="path58"
         style="fill:#5f6264;fill-opacity:1;fill-rule:nonzero;stroke:none"
         d="m 2205.75,642.398 h -18.54 l 17.56,42.422 -35.71,106.34 h 18.54 l 22.29,-77.14 c 0.99,-3.348 2.18,-9.86 2.38,-13.219 h 0.39 c 0.4,3.359 1.97,10.07 2.96,13.219 l 23.08,77.14 h 16.38 l -49.33,-148.762" /><path
         id="path60"
         style="fill:#5f6264;fill-opacity:1;fill-rule:nonzero;stroke:none"
         d="m 2326.27,684.82 v 135.746 h 18.15 V 684.82 h -18.15" /><path
         id="path62"
         style="fill:#5f6264;fill-opacity:1;fill-rule:nonzero;stroke:none"
         d="m 2434.18,684.82 v 73.403 c 0,15.976 -6.51,23.867 -23.87,23.867 -7.3,0 -13.22,-1.184 -18.75,-3.555 V 684.82 h -17.36 v 100.825 c 9.87,4.531 22.89,7.5 36.11,7.5 28.61,0 41.23,-12.43 41.23,-34.922 V 684.82 h -17.36" /><path
         id="path64"
         style="fill:#5f6264;fill-opacity:1;fill-rule:nonzero;stroke:none"
         d="m 2502.24,682.852 c -10.46,0 -21.91,2.769 -28.62,7.296 l 4.93,11.051 c 6.32,-3.937 14.41,-6.109 21.91,-6.109 12.43,0 20.52,7.89 20.52,18.34 0,26.043 -44.98,15.59 -44.98,50.711 0,16.379 13.21,29.004 32.74,29.004 10.26,0 19.54,-2.571 26.64,-7.305 l -4.54,-10.266 c -5.52,3.559 -12.82,6.125 -19.73,6.125 -12.23,0 -17.96,-7.5 -17.96,-16.777 0,-24.27 45.39,-14.395 45.39,-50.703 0,-17.16 -14.6,-31.367 -36.3,-31.367" /><path
         id="path66"
         style="fill:#5f6264;fill-opacity:1;fill-rule:nonzero;stroke:none"
         d="m 2592.39,683.84 c -15.19,0 -25.45,9.281 -25.45,26.832 v 69.641 h -12.23 v 10.847 h 12.23 v 24.477 l 17.36,5.32 V 791.16 h 18.54 v -10.847 h -18.54 v -69.641 c 0,-9.274 4.54,-14.801 13.22,-14.801 1.97,0 3.75,0.199 5.32,0.789 v -11.039 c -2.75,-1.191 -6.31,-1.781 -10.45,-1.781" /><path
         id="path68"
         style="fill:#5f6264;fill-opacity:1;fill-rule:nonzero;stroke:none"
         d="m 2625.53,684.82 v 106.34 h 17.36 V 684.82 Z m 8.68,126.664 c -5.72,0 -10.46,4.344 -10.46,9.668 0,5.332 4.74,9.668 10.46,9.668 5.71,0 10.45,-4.336 10.45,-9.668 0,-5.324 -4.74,-9.668 -10.45,-9.668" /><path
         id="path70"
         style="fill:#5f6264;fill-opacity:1;fill-rule:nonzero;stroke:none"
         d="m 2703.45,683.84 c -15.2,0 -25.45,9.281 -25.45,26.832 v 69.641 h -12.24 V 791.16 H 2678 v 24.477 l 17.35,5.32 V 791.16 h 18.55 v -10.847 h -18.55 v -69.641 c 0,-9.274 4.54,-14.801 13.22,-14.801 1.98,0 3.75,0.199 5.33,0.789 v -11.039 c -2.76,-1.191 -6.31,-1.781 -10.45,-1.781" /><path
         id="path72"
         style="fill:#5f6264;fill-opacity:1;fill-rule:nonzero;stroke:none"
         d="m 2774.26,682.852 c -25.45,0 -38.87,10.847 -38.87,34.726 v 73.582 h 17.36 v -74.18 c 0,-14.789 6.91,-22.289 21.71,-22.289 6.71,0 14.4,1.18 18.94,3.547 v 92.922 h 17.36 V 690.738 c -8.08,-4.328 -22.68,-7.886 -36.5,-7.886" /><path
         id="path74"
         style="fill:#5f6264;fill-opacity:1;fill-rule:nonzero;stroke:none"
         d="m 2870.14,683.84 c -15.2,0 -25.45,9.281 -25.45,26.832 v 69.641 h -12.24 v 10.847 h 12.24 v 24.477 l 17.35,5.32 V 791.16 h 18.55 v -10.847 h -18.55 v -69.641 c 0,-9.274 4.54,-14.801 13.22,-14.801 1.98,0 3.75,0.199 5.33,0.789 v -11.039 c -2.76,-1.191 -6.31,-1.781 -10.45,-1.781" /><path
         id="path76"
         style="fill:#5f6264;fill-opacity:1;fill-rule:nonzero;stroke:none"
         d="m 2939.18,782.285 c -17.56,0 -26.63,-16.57 -26.63,-40.644 v -0.989 l 50.9,7.903 c -0.39,21.504 -7.7,33.73 -24.27,33.73 z m -25.85,-51.094 c 1.58,-21.902 12.63,-35.91 32.75,-35.91 9.67,0 19.94,2.77 25.85,6.309 l 4.53,-11.238 c -7.49,-4.34 -19.72,-7.5 -32.15,-7.5 -30.38,0 -47.75,20.918 -47.75,55.441 0,33.34 15.99,54.852 43.01,54.852 25.46,0 40.64,-16.582 40.64,-50.118 v -1.972 l -66.88,-9.864" /><path
         id="path78"
         style="fill:#5f6264;fill-opacity:1;fill-rule:nonzero;stroke:none"
         d="m 3096.4,782.09 c -18.55,0 -24.66,-19.922 -24.66,-43.606 0,-23.675 6.11,-43.996 24.66,-43.996 18.55,0 24.66,20.321 24.66,43.996 0,23.684 -6.11,43.606 -24.66,43.606 z m 0,-99.238 c -28.8,0 -42.02,23.277 -42.02,55.246 0,31.765 13.22,55.047 42.02,55.047 28.81,0 42.03,-23.282 42.03,-55.047 0,-31.969 -13.22,-55.246 -42.03,-55.246" /><path
         id="path80"
         style="fill:#5f6264;fill-opacity:1;fill-rule:nonzero;stroke:none"
         d="M 3184.38,780.313 V 684.82 h -17.36 v 95.493 h -12.23 v 10.847 h 12.23 v 15 c 0,20.129 11.05,33.742 32.36,33.742 1.18,0 1.37,0 3.54,-0.207 v -11.238 h -1.18 c -9.27,0 -17.36,-4.734 -17.36,-21.699 V 791.16 h 18.54 v -10.847 h -18.54" /><path
         id="path82"
         style="fill:#5f6264;fill-opacity:1;fill-rule:nonzero;stroke:none"
         d="m 3277.88,684.82 v 135.746 h 62.93 v -12.238 h -44.78 v -47.351 h 40.25 v -12.032 h -40.25 v -51.886 h 44.78 V 684.82 h -62.93" /><path
         id="path84"
         style="fill:#5f6264;fill-opacity:1;fill-rule:nonzero;stroke:none"
         d="m 3423.86,684.82 v 73.403 c 0,15.976 -6.52,23.867 -23.87,23.867 -7.3,0 -13.22,-1.184 -18.75,-3.555 V 684.82 h -17.36 v 100.825 c 9.87,4.531 22.89,7.5 36.11,7.5 28.6,0 41.23,-12.43 41.23,-34.922 V 684.82 h -17.36" /><path
         id="path86"
         style="fill:#5f6264;fill-opacity:1;fill-rule:nonzero;stroke:none"
         d="m 3510.65,684.82 h -15.78 l -35.11,106.34 h 18.54 l 22.1,-76.148 c 0.99,-3.352 1.78,-6.711 2.76,-13.813 h 0.39 c 0.99,7.102 1.78,10.461 2.77,13.813 l 23.08,76.148 h 16.37 l -35.12,-106.34" /><path
         id="path88"
         style="fill:#5f6264;fill-opacity:1;fill-rule:nonzero;stroke:none"
         d="m 3566.28,684.82 v 106.34 h 17.36 V 684.82 Z m 8.68,126.664 c -5.72,0 -10.46,4.344 -10.46,9.668 0,5.332 4.74,9.668 10.46,9.668 5.71,0 10.45,-4.336 10.45,-9.668 0,-5.324 -4.74,-9.668 -10.45,-9.668" /><path
         id="path90"
         style="fill:#5f6264;fill-opacity:1;fill-rule:nonzero;stroke:none"
         d="m 3654.45,779.531 c -3.15,1.184 -6.9,1.77 -10.85,1.77 -4.73,0 -9.66,-0.781 -13.41,-2.766 V 684.82 h -17.37 v 100.825 c 9.08,4.531 21.12,7.5 36.31,7.5 3.95,0 8.28,-0.403 9.27,-0.594 l -3.95,-13.02" /><path
         id="path92"
         style="fill:#5f6264;fill-opacity:1;fill-rule:nonzero;stroke:none"
         d="m 3711.46,782.09 c -18.55,0 -24.66,-19.922 -24.66,-43.606 0,-23.675 6.11,-43.996 24.66,-43.996 18.55,0 24.66,20.321 24.66,43.996 0,23.684 -6.11,43.606 -24.66,43.606 z m 0,-99.238 c -28.8,0 -42.03,23.277 -42.03,55.246 0,31.765 13.23,55.047 42.03,55.047 28.8,0 42.03,-23.282 42.03,-55.047 0,-31.969 -13.23,-55.246 -42.03,-55.246" /><path
         id="path94"
         style="fill:#5f6264;fill-opacity:1;fill-rule:nonzero;stroke:none"
         d="m 3837.31,684.82 v 73.403 c 0,15.976 -6.51,23.867 -23.86,23.867 -7.31,0 -13.23,-1.184 -18.75,-3.555 V 684.82 h -17.37 v 100.825 c 9.88,4.531 22.89,7.5 36.12,7.5 28.6,0 41.23,-12.43 41.23,-34.922 V 684.82 h -17.37" /><path
         id="path96"
         style="fill:#5f6264;fill-opacity:1;fill-rule:nonzero;stroke:none"
         d="m 4002.04,684.82 v 74.184 c 0,14.016 -6.31,23.086 -21.89,23.086 -8.69,0 -15.59,-3.945 -20.73,-10.059 V 684.82 h -17.15 v 76.95 c 0,12.234 -6.71,20.32 -22.49,20.32 -8.1,0 -14.02,-0.985 -19.94,-3.555 V 684.82 h -17.16 v 100.825 c 10.26,4.531 22.1,7.5 36.5,7.5 15.98,0 25.06,-4.344 31.96,-12.43 7.1,7.691 17.95,12.43 30.58,12.43 26.04,0 37.49,-14.012 37.49,-34.336 V 684.82 h -17.17" /><path
         id="path98"
         style="fill:#5f6264;fill-opacity:1;fill-rule:nonzero;stroke:none"
         d="m 4085.67,782.285 c -17.55,0 -26.63,-16.57 -26.63,-40.644 v -0.989 l 50.9,7.903 c -0.39,21.504 -7.69,33.73 -24.27,33.73 z m -25.85,-51.094 c 1.59,-21.902 12.63,-35.91 32.76,-35.91 9.67,0 19.93,2.77 25.85,6.309 l 4.53,-11.238 c -7.49,-4.34 -19.73,-7.5 -32.16,-7.5 -30.38,0 -47.74,20.918 -47.74,55.441 0,33.34 15.98,54.852 43,54.852 25.46,0 40.65,-16.582 40.65,-50.118 v -1.972 l -66.89,-9.864" /><path
         id="path100"
         style="fill:#5f6264;fill-opacity:1;fill-rule:nonzero;stroke:none"
         d="m 4210.55,684.82 v 73.403 c 0,15.976 -6.52,23.867 -23.87,23.867 -7.3,0 -13.22,-1.184 -18.75,-3.555 V 684.82 h -17.36 v 100.825 c 9.87,4.531 22.89,7.5 36.11,7.5 28.6,0 41.23,-12.43 41.23,-34.922 V 684.82 h -17.36" /><path
         id="path102"
         style="fill:#5f6264;fill-opacity:1;fill-rule:nonzero;stroke:none"
         d="m 4286.31,683.84 c -15.2,0 -25.45,9.281 -25.45,26.832 v 69.641 h -12.24 v 10.847 h 12.24 v 24.477 l 17.35,5.32 V 791.16 h 18.55 v -10.847 h -18.55 v -69.641 c 0,-9.274 4.54,-14.801 13.23,-14.801 1.97,0 3.75,0.199 5.32,0.789 v -11.039 c -2.76,-1.191 -6.31,-1.781 -10.45,-1.781" /><path
         id="path104"
         style="fill:#5f6264;fill-opacity:1;fill-rule:nonzero;stroke:none"
         d="m 4373.49,744.805 c -27.03,-3.164 -43.01,-10.657 -43.01,-29.407 0,-14.386 8.88,-22.488 25.45,-22.488 6.71,0 13.42,1.391 17.56,3.551 z m -19.13,-61.953 c -25.46,0 -40.45,11.046 -40.45,32.16 0,25.64 25.25,35.515 59.58,38.867 v 6.512 c 0,14.597 -7.89,21.113 -22.69,21.113 -9.28,0 -19.34,-2.766 -26.64,-6.707 l -4.14,10.652 c 8.88,4.531 20.92,7.696 32.36,7.696 23.08,0 37.29,-10.86 37.29,-34.532 v -68.261 c -8.49,-4.543 -21.12,-7.5 -35.31,-7.5" /><path
         id="path106"
         style="fill:#5f6264;fill-opacity:1;fill-rule:nonzero;stroke:none"
         d="m 4418.86,684.82 v 154.875 h 17.36 V 684.82 h -17.36" /><path
         id="path108"
         style="fill:#5f6264;fill-opacity:1;fill-rule:nonzero;stroke:none"
         d="m 4465.4,656.219 h -10.65 l 15.19,44.39 c 2.37,3.551 6.32,5.719 10.85,5.719 4.54,0 7.5,-2.367 8.29,-5.719 l -23.68,-44.39" /><path
         id="path110"
         style="fill:#5f6264;fill-opacity:1;fill-rule:nonzero;stroke:none"
         d="m 994.711,460.922 c -12.824,0 -25.059,2.566 -33.344,7.5 l 5.328,12.219 c 7.297,-4.332 16.965,-6.301 26.633,-6.301 16.772,0 25.842,10.051 25.842,23.281 0,33.527 -56.225,23.277 -56.225,67.66 0,21.309 16.375,35.328 40.645,35.328 11.24,0 21.7,-3.16 29,-7.5 l -4.73,-11.05 c -5.73,3.55 -14.8,6.113 -22.89,6.113 -15.197,0 -24.072,-7.891 -24.072,-21.703 0,-32.938 56.822,-22.098 56.822,-67.867 0,-21.711 -16.97,-37.68 -43.009,-37.68" /><path
         id="path112"
         style="fill:#5f6264;fill-opacity:1;fill-rule:nonzero;stroke:none"
         d="m 1100.05,560.16 c -18.54,0 -24.66,-19.93 -24.66,-43.609 0,-23.672 6.12,-43.992 24.66,-43.992 18.55,0 24.67,20.32 24.67,43.992 0,23.679 -6.12,43.609 -24.67,43.609 z m 0,-99.238 c -28.8,0 -42.02,23.277 -42.02,55.238 0,31.77 13.22,55.051 42.02,55.051 28.81,0 42.03,-23.281 42.03,-55.051 0,-31.961 -13.22,-55.238 -42.03,-55.238" /><path
         id="path114"
         style="fill:#5f6264;fill-opacity:1;fill-rule:nonzero;stroke:none"
         d="m 1203.02,460.922 c -25.65,0 -41.23,22.68 -41.23,55.238 0,32.551 15.78,55.051 41.23,55.051 9.87,0 18.16,-2.57 23.87,-6.91 l -4.14,-10.262 c -4.14,3.16 -10.46,5.332 -16.77,5.332 -16.97,0 -26.43,-18.351 -26.43,-42.82 0,-24.071 9.66,-43.012 26.43,-43.012 6.31,0 12.43,1.981 16.57,5.133 l 4.34,-10.852 c -5.71,-4.332 -14,-6.898 -23.87,-6.898" /><path
         id="path116"
         style="fill:#5f6264;fill-opacity:1;fill-rule:nonzero;stroke:none"
         d="M 1248.98,462.891 V 569.23 h 17.36 V 462.891 Z m 8.68,126.66 c -5.72,0 -10.45,4.347 -10.45,9.668 0,5.332 4.73,9.672 10.45,9.672 5.72,0 10.46,-4.34 10.46,-9.672 0,-5.321 -4.74,-9.668 -10.46,-9.668" /><path
         id="path118"
         style="fill:#5f6264;fill-opacity:1;fill-rule:nonzero;stroke:none"
         d="m 1349.79,522.871 c -27.03,-3.16 -43.01,-10.652 -43.01,-29.402 0,-14.399 8.88,-22.489 25.45,-22.489 6.71,0 13.42,1.379 17.56,3.551 z m -19.14,-61.949 c -25.44,0 -40.44,11.039 -40.44,32.156 0,25.641 25.25,35.512 59.58,38.863 v 6.52 c 0,14.598 -7.89,21.109 -22.69,21.109 -9.27,0 -19.33,-2.761 -26.63,-6.711 l -4.15,10.661 c 8.89,4.531 20.92,7.691 32.36,7.691 23.09,0 37.29,-10.859 37.29,-34.531 v -68.258 c -8.48,-4.543 -21.11,-7.5 -35.32,-7.5" /><path
         id="path120"
         style="fill:#5f6264;fill-opacity:1;fill-rule:nonzero;stroke:none"
         d="m 1395.16,462.891 v 154.871 h 17.36 V 462.891 h -17.36" /><path
         id="path122"
         style="fill:#5f6264;fill-opacity:1;fill-rule:nonzero;stroke:none"
         d="m 1550.42,522.871 c -27.04,-3.16 -43.02,-10.652 -43.02,-29.402 0,-14.399 8.88,-22.489 25.45,-22.489 6.71,0 13.42,1.379 17.57,3.551 z m -19.15,-61.949 c -25.44,0 -40.44,11.039 -40.44,32.156 0,25.641 25.25,35.512 59.59,38.863 v 6.52 c 0,14.598 -7.9,21.109 -22.7,21.109 -9.27,0 -19.33,-2.761 -26.63,-6.711 l -4.15,10.661 c 8.89,4.531 20.92,7.691 32.36,7.691 23.09,0 37.29,-10.859 37.29,-34.531 v -68.258 c -8.48,-4.543 -21.11,-7.5 -35.32,-7.5" /><path
         id="path124"
         style="fill:#5f6264;fill-opacity:1;fill-rule:nonzero;stroke:none"
         d="m 1654.57,462.891 v 73.398 c 0,15.981 -6.51,23.871 -23.87,23.871 -7.3,0 -13.22,-1.191 -18.74,-3.558 v -93.711 h -17.37 v 100.82 c 9.87,4.527 22.89,7.5 36.11,7.5 28.61,0 41.23,-12.43 41.23,-34.922 v -73.398 h -17.36" /><path
         id="path126"
         style="fill:#5f6264;fill-opacity:1;fill-rule:nonzero;stroke:none"
         d="m 1758.73,558.18 c -4.15,1.191 -8.88,1.98 -13.42,1.98 -24.06,0 -32.16,-21.121 -32.16,-44.398 0,-25.051 8.49,-43.403 30.19,-43.403 7.1,0 11.84,0.993 15.39,2.961 z m -16.38,-97.258 c -30.58,0 -46.56,21.308 -46.56,53.066 0,31.371 15.79,56.434 46.56,56.434 5.33,0 10.66,-0.602 16.38,-2.184 v 49.524 h 17.16 v -149.34 c -7.1,-4.352 -19.53,-7.5 -33.54,-7.5" /><path
         id="path128"
         style="fill:#5f6264;fill-opacity:1;fill-rule:nonzero;stroke:none"
         d="m 1928.77,462.891 v 64.121 h -51.09 v -64.121 h -18.16 v 135.738 h 18.16 v -59.59 h 51.09 v 59.59 h 18.15 V 462.891 h -18.15" /><path
         id="path130"
         style="fill:#5f6264;fill-opacity:1;fill-rule:nonzero;stroke:none"
         d="m 2014.98,460.922 c -25.46,0 -38.87,10.848 -38.87,34.719 v 73.589 h 17.36 v -74.179 c 0,-14.801 6.91,-22.301 21.7,-22.301 6.71,0 14.41,1.191 18.94,3.559 v 92.921 h 17.36 V 468.809 c -8.09,-4.34 -22.69,-7.887 -36.49,-7.887" /><path
         id="path132"
         style="fill:#5f6264;fill-opacity:1;fill-rule:nonzero;stroke:none"
         d="m 2198.84,462.891 v 74.179 c 0,14.012 -6.31,23.09 -21.9,23.09 -8.68,0 -15.59,-3.949 -20.71,-10.058 v -87.211 h -17.17 v 76.941 c 0,12.238 -6.71,20.328 -22.49,20.328 -8.09,0 -14.01,-0.988 -19.93,-3.558 v -93.711 h -17.16 v 100.82 c 10.26,4.527 22.09,7.5 36.5,7.5 15.98,0 25.06,-4.34 31.96,-12.43 7.1,7.688 17.95,12.43 30.58,12.43 26.04,0 37.49,-14.012 37.49,-34.34 v -73.98 h -17.17" /><path
         id="path134"
         style="fill:#5f6264;fill-opacity:1;fill-rule:nonzero;stroke:none"
         d="m 2298.25,522.871 c -27.03,-3.16 -43.01,-10.652 -43.01,-29.402 0,-14.399 8.88,-22.489 25.45,-22.489 6.71,0 13.42,1.379 17.56,3.551 z m -19.13,-61.949 c -25.46,0 -40.45,11.039 -40.45,32.156 0,25.641 25.26,35.512 59.58,38.863 v 6.52 c 0,14.598 -7.89,21.109 -22.68,21.109 -9.28,0 -19.34,-2.761 -26.64,-6.711 l -4.14,10.661 c 8.87,4.531 20.91,7.691 32.36,7.691 23.07,0 37.28,-10.859 37.28,-34.531 v -68.258 c -8.48,-4.543 -21.11,-7.5 -35.31,-7.5" /><path
         id="path136"
         style="fill:#5f6264;fill-opacity:1;fill-rule:nonzero;stroke:none"
         d="m 2402.41,462.891 v 73.398 c 0,15.981 -6.51,23.871 -23.87,23.871 -7.3,0 -13.22,-1.191 -18.75,-3.558 v -93.711 h -17.36 v 100.82 c 9.87,4.527 22.89,7.5 36.11,7.5 28.61,0 41.24,-12.43 41.24,-34.922 v -73.398 h -17.37" /><path
         id="path138"
         style="fill:#5f6264;fill-opacity:1;fill-rule:nonzero;stroke:none"
         d="m 2530.23,460.922 c -12.82,0 -25.05,2.566 -33.34,7.5 l 5.33,12.219 c 7.3,-4.332 16.97,-6.301 26.64,-6.301 16.77,0 25.84,10.051 25.84,23.281 0,33.527 -56.22,23.277 -56.22,67.66 0,21.309 16.36,35.328 40.63,35.328 11.25,0 21.71,-3.16 29.01,-7.5 l -4.74,-11.05 c -5.72,3.55 -14.8,6.113 -22.88,6.113 -15.2,0 -24.07,-7.891 -24.07,-21.703 0,-32.938 56.82,-22.098 56.82,-67.867 0,-21.711 -16.97,-37.68 -43.02,-37.68" /><path
         id="path140"
         style="fill:#5f6264;fill-opacity:1;fill-rule:nonzero;stroke:none"
         d="m 2634.79,460.922 c -25.65,0 -41.24,22.68 -41.24,55.238 0,32.551 15.79,55.051 41.24,55.051 9.87,0 18.15,-2.57 23.87,-6.91 l -4.14,-10.262 c -4.14,3.16 -10.46,5.332 -16.77,5.332 -16.97,0 -26.44,-18.351 -26.44,-42.82 0,-24.071 9.67,-43.012 26.44,-43.012 6.31,0 12.43,1.981 16.58,5.133 l 4.33,-10.852 c -5.72,-4.332 -14,-6.898 -23.87,-6.898" /><path
         id="path142"
         style="fill:#5f6264;fill-opacity:1;fill-rule:nonzero;stroke:none"
         d="M 2680.75,462.891 V 569.23 h 17.37 V 462.891 Z m 8.68,126.66 c -5.72,0 -10.46,4.347 -10.46,9.668 0,5.332 4.74,9.672 10.46,9.672 5.72,0 10.45,-4.34 10.45,-9.672 0,-5.321 -4.73,-9.668 -10.45,-9.668" /><path
         id="path144"
         style="fill:#5f6264;fill-opacity:1;fill-rule:nonzero;stroke:none"
         d="m 2765.77,560.352 c -17.56,0 -26.63,-16.571 -26.63,-40.641 v -0.992 l 50.9,7.902 c -0.39,21.5 -7.7,33.731 -24.27,33.731 z m -25.85,-51.09 c 1.58,-21.91 12.63,-35.91 32.76,-35.91 9.66,0 19.93,2.757 25.85,6.308 l 4.53,-11.238 c -7.49,-4.352 -19.73,-7.5 -32.16,-7.5 -30.38,0 -47.75,20.918 -47.75,55.437 0,33.34 15.99,54.852 43.01,54.852 25.46,0 40.65,-16.582 40.65,-50.121 v -1.969 l -66.89,-9.859" /><path
         id="path146"
         style="fill:#5f6264;fill-opacity:1;fill-rule:nonzero;stroke:none"
         d="m 2890.64,462.891 v 73.398 c 0,15.981 -6.51,23.871 -23.86,23.871 -7.31,0 -13.23,-1.191 -18.75,-3.558 v -93.711 h -17.37 v 100.82 c 9.88,4.527 22.89,7.5 36.12,7.5 28.6,0 41.23,-12.43 41.23,-34.922 v -73.398 h -17.37" /><path
         id="path148"
         style="fill:#5f6264;fill-opacity:1;fill-rule:nonzero;stroke:none"
         d="m 2973.11,460.922 c -25.66,0 -41.24,22.68 -41.24,55.238 0,32.551 15.78,55.051 41.24,55.051 9.86,0 18.14,-2.57 23.86,-6.91 l -4.14,-10.262 c -4.14,3.16 -10.46,5.332 -16.77,5.332 -16.97,0 -26.44,-18.351 -26.44,-42.82 0,-24.071 9.67,-43.012 26.44,-43.012 6.31,0 12.43,1.981 16.58,5.133 l 4.33,-10.852 c -5.72,-4.332 -14,-6.898 -23.86,-6.898" /><path
         id="path150"
         style="fill:#5f6264;fill-opacity:1;fill-rule:nonzero;stroke:none"
         d="m 3053.19,560.352 c -17.56,0 -26.63,-16.571 -26.63,-40.641 v -0.992 l 50.9,7.902 c -0.39,21.5 -7.69,33.731 -24.27,33.731 z m -25.85,-51.09 c 1.59,-21.91 12.63,-35.91 32.76,-35.91 9.67,0 19.93,2.757 25.85,6.308 l 4.53,-11.238 c -7.49,-4.352 -19.73,-7.5 -32.16,-7.5 -30.38,0 -47.74,20.918 -47.74,55.437 0,33.34 15.98,54.852 43,54.852 25.46,0 40.65,-16.582 40.65,-50.121 v -1.969 l -66.89,-9.859" /><path
         id="path152"
         style="fill:#5f6264;fill-opacity:1;fill-rule:nonzero;stroke:none"
         d="m 3140.78,460.922 c -10.46,0 -21.9,2.758 -28.61,7.289 l 4.93,11.059 c 6.32,-3.95 14.4,-6.122 21.9,-6.122 12.44,0 20.52,7.891 20.52,18.34 0,26.051 -44.98,15.602 -44.98,50.723 0,16.371 13.21,29 32.75,29 10.26,0 19.54,-2.57 26.64,-7.301 l -4.55,-10.269 c -5.51,3.558 -12.82,6.129 -19.72,6.129 -12.24,0 -17.96,-7.5 -17.96,-16.782 0,-24.269 45.38,-14.398 45.38,-50.699 0,-17.16 -14.6,-31.367 -36.3,-31.367" /><path
         id="path154"
         style="fill:#5f6264;fill-opacity:1;fill-rule:nonzero;stroke:none"
         d="m 990.723,359.91 c -4.883,0 -10.364,-0.89 -13.172,-2.078 v -82.141 c 2.808,-1.191 8.289,-2.082 13.172,-2.082 18.947,0 28.267,15.551 28.267,43.231 0,27.672 -9.32,43.07 -28.267,43.07 z m -0.293,-95.769 c -9.18,0 -18.797,1.781 -26.348,5.48 v 93.84 c 7.551,3.699 17.168,5.48 26.348,5.48 26.79,0 42.48,-19.691 42.48,-52.402 0,-32.711 -15.69,-52.398 -42.48,-52.398" /><path
         id="path156"
         style="fill:#5f6264;fill-opacity:1;fill-rule:nonzero;stroke:none"
         d="m 1080.23,338.738 c -13.17,0 -19.98,-12.429 -19.98,-30.488 v -0.738 l 38.19,5.918 c -0.3,16.14 -5.77,25.308 -18.21,25.308 z m -19.39,-38.328 c 1.19,-16.441 9.48,-26.941 24.58,-26.941 7.25,0 14.95,2.07 19.38,4.73 l 3.41,-8.429 c -5.63,-3.258 -14.8,-5.629 -24.13,-5.629 -22.79,0 -35.81,15.691 -35.81,41.589 0,25.02 11.98,41.149 32.26,41.149 19.09,0 30.49,-12.43 30.49,-37.59 v -1.48 l -50.18,-7.399" /><path
         id="path158"
         style="fill:#5f6264;fill-opacity:1;fill-rule:nonzero;stroke:none"
         d="m 1153.17,338.891 c -4,0 -8.29,-0.59 -11.4,-2.071 v -62.461 c 2.37,-0.89 5.78,-1.629 9.63,-1.629 16.28,0 24.57,12.282 24.57,33.45 0,19.98 -6.07,32.711 -22.8,32.711 z m 1.04,-74.45 c -4.59,0 -9.47,0.891 -12.44,1.93 v -32.57 H 1128.9 V 341.41 c 6.81,3.551 15.54,5.469 24.71,5.469 22.8,0 35.38,-15.688 35.38,-39.957 0,-26.652 -13.77,-42.481 -34.78,-42.481" /><path
         id="path160"
         style="fill:#5f6264;fill-opacity:1;fill-rule:nonzero;stroke:none"
         d="m 1247.57,310.621 c -20.28,-2.371 -32.27,-7.992 -32.27,-22.062 0,-10.797 6.66,-16.868 19.09,-16.868 5.04,0 10.07,1.039 13.18,2.668 z m -14.36,-46.48 c -19.09,0 -30.34,8.289 -30.34,24.129 0,19.242 18.95,26.64 44.7,29.16 v 4.879 c 0,10.953 -5.92,15.839 -17.02,15.839 -6.96,0 -14.51,-2.078 -19.98,-5.027 l -3.11,7.988 c 6.66,3.403 15.69,5.77 24.27,5.77 17.32,0 27.98,-8.141 27.98,-25.899 v -51.21 c -6.37,-3.399 -15.84,-5.629 -26.5,-5.629" /><path
         id="path162"
         style="fill:#5f6264;fill-opacity:1;fill-rule:nonzero;stroke:none"
         d="m 1311.92,336.672 c -2.36,0.887 -5.18,1.328 -8.14,1.328 -3.55,0 -7.25,-0.59 -10.06,-2.07 v -70.309 h -13.03 v 75.641 c 6.81,3.398 15.84,5.617 27.24,5.617 2.96,0 6.22,-0.297 6.95,-0.438 l -2.96,-9.769" /><path
         id="path164"
         style="fill:#5f6264;fill-opacity:1;fill-rule:nonzero;stroke:none"
         d="m 1353.5,264.879 c -11.4,0 -19.1,6.973 -19.1,20.133 v 52.258 h -9.18 v 8.128 h 9.18 v 18.364 l 13.03,3.988 v -22.352 h 13.91 v -8.128 h -13.91 v -52.258 c 0,-6.953 3.4,-11.09 9.91,-11.09 1.48,0 2.82,0.137 4,0.578 v -8.281 c -2.07,-0.887 -4.74,-1.34 -7.84,-1.34" /><path
         id="path166"
         style="fill:#5f6264;fill-opacity:1;fill-rule:nonzero;stroke:none"
         d="m 1467,265.621 v 55.66 c 0,10.508 -4.74,17.309 -16.43,17.309 -6.51,0 -11.69,-2.961 -15.54,-7.551 v -65.418 h -12.88 v 57.731 c 0,9.179 -5.03,15.238 -16.87,15.238 -6.07,0 -10.51,-0.738 -14.95,-2.66 v -70.309 h -12.88 v 75.641 c 7.7,3.398 16.58,5.617 27.38,5.617 11.99,0 18.8,-3.258 23.98,-9.32 5.33,5.769 13.47,9.32 22.94,9.32 19.54,0 28.12,-10.5 28.12,-25.75 V 265.621 H 1467" /><path
         id="path168"
         style="fill:#5f6264;fill-opacity:1;fill-rule:nonzero;stroke:none"
         d="m 1529.71,338.738 c -13.18,0 -19.98,-12.429 -19.98,-30.488 v -0.738 l 38.19,5.918 c -0.3,16.14 -5.78,25.308 -18.21,25.308 z m -19.39,-38.328 c 1.18,-16.441 9.47,-26.941 24.57,-26.941 7.25,0 14.95,2.07 19.39,4.73 l 3.4,-8.429 c -5.62,-3.258 -14.8,-5.629 -24.13,-5.629 -22.79,0 -35.81,15.691 -35.81,41.589 0,25.02 11.99,41.149 32.26,41.149 19.1,0 30.49,-12.43 30.49,-37.59 v -1.48 l -50.17,-7.399" /><path
         id="path170"
         style="fill:#5f6264;fill-opacity:1;fill-rule:nonzero;stroke:none"
         d="m 1623.36,265.621 v 55.059 c 0,12 -4.88,17.91 -17.91,17.91 -5.47,0 -9.91,-0.879 -14.05,-2.66 v -70.309 h -13.03 v 75.641 c 7.4,3.398 17.17,5.617 27.08,5.617 21.47,0 30.94,-9.32 30.94,-26.199 v -55.059 h -13.03" /><path
         id="path172"
         style="fill:#5f6264;fill-opacity:1;fill-rule:nonzero;stroke:none"
         d="m 1680.17,264.879 c -11.4,0 -19.09,6.973 -19.09,20.133 v 52.258 h -9.18 v 8.128 h 9.18 v 18.364 l 13.02,3.988 v -22.352 h 13.91 v -8.128 h -13.91 v -52.258 c 0,-6.953 3.4,-11.09 9.92,-11.09 1.48,0 2.81,0.137 3.99,0.578 v -8.281 c -2.07,-0.887 -4.73,-1.34 -7.84,-1.34" /><path
         id="path174"
         style="fill:#5f6264;fill-opacity:1;fill-rule:nonzero;stroke:none"
         d="m 1773.38,338.59 c -13.91,0 -18.5,-14.949 -18.5,-32.711 0,-17.758 4.59,-33 18.5,-33 13.91,0 18.5,15.242 18.5,33 0,17.762 -4.59,32.711 -18.5,32.711 z m 0,-74.449 c -21.61,0 -31.52,17.468 -31.52,41.449 0,23.82 9.91,41.289 31.52,41.289 21.61,0 31.53,-17.469 31.53,-41.289 0,-23.981 -9.92,-41.449 -31.53,-41.449" /><path
         id="path176"
         style="fill:#5f6264;fill-opacity:1;fill-rule:nonzero;stroke:none"
         d="m 1839.36,337.27 v -71.649 h -13.02 v 71.649 h -9.18 v 8.128 h 9.18 v 11.25 c 0,15.102 8.28,25.313 24.27,25.313 0.89,0 1.04,0 2.66,-0.141 v -8.441 h -0.88 c -6.96,0 -13.03,-3.559 -13.03,-16.277 v -11.704 h 13.91 v -8.128 h -13.91" /><path
         id="path178"
         style="fill:#5f6264;fill-opacity:1;fill-rule:nonzero;stroke:none"
         d="m 1909.48,265.621 v 101.84 h 47.22 v -9.18 h -33.6 V 322.75 h 30.2 v -9.02 h -30.2 v -38.929 h 33.6 v -9.18 h -47.22" /><path
         id="path180"
         style="fill:#5f6264;fill-opacity:1;fill-rule:nonzero;stroke:none"
         d="m 2018.98,265.621 v 55.059 c 0,12 -4.88,17.91 -17.91,17.91 -5.47,0 -9.92,-0.879 -14.06,-2.66 v -70.309 h -13.03 v 75.641 c 7.41,3.398 17.17,5.617 27.09,5.617 21.46,0 30.94,-9.32 30.94,-26.199 v -55.059 h -13.03" /><path
         id="path182"
         style="fill:#5f6264;fill-opacity:1;fill-rule:nonzero;stroke:none"
         d="m 2081.85,338.738 c -13.17,0 -19.98,-12.429 -19.98,-30.488 v -0.738 l 38.19,5.918 c -0.3,16.14 -5.78,25.308 -18.21,25.308 z m -19.39,-38.328 c 1.19,-16.441 9.47,-26.941 24.57,-26.941 7.25,0 14.95,2.07 19.39,4.73 l 3.4,-8.429 c -5.62,-3.258 -14.8,-5.629 -24.12,-5.629 -22.79,0 -35.82,15.691 -35.82,41.589 0,25.02 11.99,41.149 32.27,41.149 19.09,0 30.49,-12.43 30.49,-37.59 v -1.48 l -50.18,-7.399" /><path
         id="path184"
         style="fill:#5f6264;fill-opacity:1;fill-rule:nonzero;stroke:none"
         d="m 2161.74,336.672 c -2.36,0.887 -5.18,1.328 -8.14,1.328 -3.55,0 -7.25,-0.59 -10.06,-2.07 v -70.309 h -13.03 v 75.641 c 6.81,3.398 15.84,5.617 27.24,5.617 2.96,0 6.21,-0.297 6.95,-0.438 l -2.96,-9.769" /><path
         id="path186"
         style="fill:#5f6264;fill-opacity:1;fill-rule:nonzero;stroke:none"
         d="m 2220.2,336.82 c -2.96,1.481 -7.11,2.219 -11.4,2.219 -15.99,0 -22.8,-13.469 -22.8,-34.34 0,-20.277 6.51,-31.82 21.76,-31.82 5.03,0 9.48,1.48 12.44,3.25 z m 12.87,-72.379 c 0,-20.121 -11.25,-32.121 -30.78,-32.121 -9.48,0 -18.8,2.371 -24.58,5.629 l 3.85,8.582 c 4.59,-2.519 11.69,-4.59 18.5,-4.59 14.51,0 20.14,8.879 20.14,21.02 v 5.328 c -3.56,-2.07 -8.89,-3.551 -15.84,-3.551 -19.25,0 -31.38,15.242 -31.38,39.524 0,25.597 12.72,42.617 36.55,42.617 9.18,0 18.06,-2.219 23.54,-5.469 v -76.969" /><path
         id="path188"
         style="fill:#5f6264;fill-opacity:1;fill-rule:nonzero;stroke:none"
         d="m 2275.37,233.801 h -13.91 l 13.17,31.82 -26.79,79.777 h 13.91 l 16.73,-57.867 c 0.74,-2.519 1.63,-7.402 1.77,-9.91 h 0.3 c 0.29,2.508 1.48,7.551 2.21,9.91 l 17.33,57.867 h 12.28 l -37,-111.597" /><path
         id="path190"
         style="fill:#5f6264;fill-opacity:1;fill-rule:nonzero;stroke:none"
         d="m 2405.13,310.621 c -20.28,-2.371 -32.27,-7.992 -32.27,-22.062 0,-10.797 6.66,-16.868 19.09,-16.868 5.03,0 10.07,1.039 13.18,2.668 z m -14.36,-46.48 c -19.09,0 -30.34,8.289 -30.34,24.129 0,19.242 18.95,26.64 44.7,29.16 v 4.879 c 0,10.953 -5.92,15.839 -17.02,15.839 -6.96,0 -14.51,-2.078 -19.98,-5.027 l -3.11,7.988 c 6.66,3.403 15.68,5.77 24.27,5.77 17.32,0 27.98,-8.141 27.98,-25.899 v -51.21 c -6.37,-3.399 -15.84,-5.629 -26.5,-5.629" /><path
         id="path192"
         style="fill:#5f6264;fill-opacity:1;fill-rule:nonzero;stroke:none"
         d="m 2483.25,265.621 v 55.059 c 0,12 -4.89,17.91 -17.91,17.91 -5.48,0 -9.92,-0.879 -14.06,-2.66 v -70.309 h -13.03 v 75.641 c 7.4,3.398 17.17,5.617 27.09,5.617 21.46,0 30.93,-9.32 30.93,-26.199 v -55.059 h -13.02" /><path
         id="path194"
         style="fill:#5f6264;fill-opacity:1;fill-rule:nonzero;stroke:none"
         d="m 2561.37,337.109 c -3.12,0.891 -6.66,1.481 -10.07,1.481 -18.06,0 -24.12,-15.84 -24.12,-33.301 0,-18.801 6.36,-32.559 22.63,-32.559 5.34,0 8.89,0.739 11.56,2.219 z m -12.29,-72.968 c -22.95,0 -34.93,15.988 -34.93,39.82 0,23.527 11.84,42.328 34.93,42.328 4,0 7.99,-0.437 12.29,-1.629 v 37.16 h 12.87 V 269.77 c -5.32,-3.258 -14.65,-5.629 -25.16,-5.629" /><path
         id="path196"
         style="fill:#5f6264;fill-opacity:1;fill-rule:nonzero;stroke:none"
         d="m 2636.94,265.621 v 101.84 h 47.22 v -9.18 h -33.6 V 322.75 h 30.19 v -9.02 h -30.19 v -38.929 h 33.6 v -9.18 h -47.22" /><path
         id="path198"
         style="fill:#5f6264;fill-opacity:1;fill-rule:nonzero;stroke:none"
         d="m 2746.45,265.621 v 55.059 c 0,12 -4.9,17.91 -17.91,17.91 -5.48,0 -9.93,-0.879 -14.07,-2.66 v -70.309 h -13.02 v 75.641 c 7.4,3.398 17.16,5.617 27.09,5.617 21.45,0 30.92,-9.32 30.92,-26.199 v -55.059 h -13.01" /><path
         id="path200"
         style="fill:#5f6264;fill-opacity:1;fill-rule:nonzero;stroke:none"
         d="m 2811.53,265.621 h -11.84 l -26.34,79.777 h 13.91 l 16.58,-57.128 c 0.73,-2.52 1.33,-5.032 2.07,-10.36 h 0.29 c 0.74,5.328 1.34,7.84 2.07,10.36 l 17.33,57.128 h 12.28 l -26.35,-79.777" /><path
         id="path202"
         style="fill:#5f6264;fill-opacity:1;fill-rule:nonzero;stroke:none"
         d="m 2853.24,265.621 v 79.777 h 13.03 v -79.777 z m 6.52,95.02 c -4.3,0 -7.85,3.269 -7.85,7.257 0,3.993 3.55,7.262 7.85,7.262 4.28,0 7.84,-3.269 7.84,-7.262 0,-3.988 -3.56,-7.257 -7.84,-7.257" /><path
         id="path204"
         style="fill:#5f6264;fill-opacity:1;fill-rule:nonzero;stroke:none"
         d="m 2919.38,336.672 c -2.36,0.887 -5.17,1.328 -8.14,1.328 -3.54,0 -7.25,-0.59 -10.06,-2.07 v -70.309 h -13.03 v 75.641 c 6.81,3.398 15.84,5.617 27.24,5.617 2.96,0 6.21,-0.297 6.95,-0.438 l -2.96,-9.769" /><path
         id="path206"
         style="fill:#5f6264;fill-opacity:1;fill-rule:nonzero;stroke:none"
         d="m 2962.14,338.59 c -13.92,0 -18.5,-14.949 -18.5,-32.711 0,-17.758 4.58,-33 18.5,-33 13.91,0 18.5,15.242 18.5,33 0,17.762 -4.59,32.711 -18.5,32.711 z m 0,-74.449 c -21.61,0 -31.52,17.468 -31.52,41.449 0,23.82 9.91,41.289 31.52,41.289 21.61,0 31.52,-17.469 31.52,-41.289 0,-23.981 -9.91,-41.449 -31.52,-41.449" /><path
         id="path208"
         style="fill:#5f6264;fill-opacity:1;fill-rule:nonzero;stroke:none"
         d="m 3056.54,265.621 v 55.059 c 0,12 -4.89,17.91 -17.91,17.91 -5.48,0 -9.92,-0.879 -14.06,-2.66 v -70.309 h -13.03 v 75.641 c 7.41,3.398 17.17,5.617 27.09,5.617 21.46,0 30.93,-9.32 30.93,-26.199 v -55.059 h -13.02" /><path
         id="path210"
         style="fill:#5f6264;fill-opacity:1;fill-rule:nonzero;stroke:none"
         d="m 3180.1,265.621 v 55.66 c 0,10.508 -4.74,17.309 -16.44,17.309 -6.51,0 -11.69,-2.961 -15.53,-7.551 v -65.418 h -12.89 v 57.731 c 0,9.179 -5.03,15.238 -16.87,15.238 -6.07,0 -10.51,-0.738 -14.94,-2.66 v -70.309 h -12.88 v 75.641 c 7.69,3.398 16.58,5.617 27.38,5.617 11.99,0 18.8,-3.258 23.97,-9.32 5.34,5.769 13.48,9.32 22.95,9.32 19.53,0 28.12,-10.5 28.12,-25.75 v -55.508 h -12.87" /><path
         id="path212"
         style="fill:#5f6264;fill-opacity:1;fill-rule:nonzero;stroke:none"
         d="m 3242.8,338.738 c -13.17,0 -19.99,-12.429 -19.99,-30.488 v -0.738 l 38.2,5.918 c -0.31,16.14 -5.78,25.308 -18.21,25.308 z m -19.39,-38.328 c 1.18,-16.441 9.47,-26.941 24.57,-26.941 7.25,0 14.95,2.07 19.38,4.73 l 3.41,-8.429 c -5.62,-3.258 -14.8,-5.629 -24.12,-5.629 -22.79,0 -35.82,15.691 -35.82,41.589 0,25.02 11.98,41.149 32.27,41.149 19.09,0 30.48,-12.43 30.48,-37.59 v -1.48 l -50.17,-7.399" /><path
         id="path214"
         style="fill:#5f6264;fill-opacity:1;fill-rule:nonzero;stroke:none"
         d="m 3336.46,265.621 v 55.059 c 0,12 -4.89,17.91 -17.91,17.91 -5.47,0 -9.92,-0.879 -14.06,-2.66 v -70.309 h -13.03 v 75.641 c 7.41,3.398 17.17,5.617 27.09,5.617 21.46,0 30.93,-9.32 30.93,-26.199 v -55.059 h -13.02" /><path
         id="path216"
         style="fill:#5f6264;fill-opacity:1;fill-rule:nonzero;stroke:none"
         d="m 3393.26,264.879 c -11.39,0 -19.09,6.973 -19.09,20.133 v 52.258 h -9.18 v 8.128 h 9.18 v 18.364 l 13.03,3.988 v -22.352 h 13.9 v -8.128 h -13.9 v -52.258 c 0,-6.953 3.4,-11.09 9.91,-11.09 1.48,0 2.81,0.137 3.99,0.578 v -8.281 c -2.07,-0.887 -4.73,-1.34 -7.84,-1.34" /><path
         id="path218"
         style="fill:#5f6264;fill-opacity:1;fill-rule:nonzero;stroke:none"
         d="m 3458.66,310.621 c -20.27,-2.371 -32.26,-7.992 -32.26,-22.062 0,-10.797 6.66,-16.868 19.09,-16.868 5.03,0 10.07,1.039 13.17,2.668 z m -14.35,-46.48 c -19.1,0 -30.35,8.289 -30.35,24.129 0,19.242 18.95,26.64 44.7,29.16 v 4.879 c 0,10.953 -5.92,15.839 -17.02,15.839 -6.95,0 -14.5,-2.078 -19.98,-5.027 l -3.11,7.988 c 6.66,3.403 15.69,5.77 24.27,5.77 17.33,0 27.98,-8.141 27.98,-25.899 v -51.21 c -6.37,-3.399 -15.84,-5.629 -26.49,-5.629" /><path
         id="path220"
         style="fill:#5f6264;fill-opacity:1;fill-rule:nonzero;stroke:none"
         d="M 3492.68,265.621 V 381.82 h 13.02 V 265.621 h -13.02" /><path
         id="path222"
         style="fill:#5f6264;fill-opacity:1;fill-rule:nonzero;stroke:none"
         d="m 3652.78,265.621 -7.69,76.231 c -0.44,3.699 -0.6,7.699 -0.74,11.988 h -0.3 c -0.45,-2.371 -1.77,-8.289 -2.81,-11.988 l -21.76,-76.231 h -8.73 l -21.46,76.231 c -1.04,3.847 -1.63,6.218 -2.82,11.988 h -0.29 c -0.14,-5.031 -0.45,-8.731 -0.74,-11.988 l -7.99,-76.231 h -11.7 l 12.14,101.84 h 14.36 l 20.72,-73.422 c 1.18,-4.141 1.92,-7.687 2.66,-12.578 h 0.3 c 0.74,4.891 1.48,8.437 2.66,12.578 l 20.73,73.422 h 14.5 l 11.99,-101.84 h -13.03" /><path
         id="path224"
         style="fill:#5f6264;fill-opacity:1;fill-rule:nonzero;stroke:none"
         d="m 3726.3,310.621 c -20.27,-2.371 -32.27,-7.992 -32.27,-22.062 0,-10.797 6.66,-16.868 19.1,-16.868 5.02,0 10.06,1.039 13.17,2.668 z m -14.36,-46.48 c -19.09,0 -30.34,8.289 -30.34,24.129 0,19.242 18.95,26.64 44.7,29.16 v 4.879 c 0,10.953 -5.92,15.839 -17.02,15.839 -6.96,0 -14.5,-2.078 -19.98,-5.027 l -3.11,7.988 c 6.66,3.403 15.69,5.77 24.27,5.77 17.32,0 27.98,-8.141 27.98,-25.899 v -51.21 c -6.37,-3.399 -15.84,-5.629 -26.5,-5.629" /><path
         id="path226"
         style="fill:#5f6264;fill-opacity:1;fill-rule:nonzero;stroke:none"
         d="m 3804.42,265.621 v 55.059 c 0,12 -4.89,17.91 -17.91,17.91 -5.47,0 -9.92,-0.879 -14.06,-2.66 v -70.309 h -13.03 v 75.641 c 7.41,3.398 17.17,5.617 27.09,5.617 21.46,0 30.93,-9.32 30.93,-26.199 v -55.059 h -13.02" /><path
         id="path228"
         style="fill:#5f6264;fill-opacity:1;fill-rule:nonzero;stroke:none"
         d="m 3879.13,310.621 c -20.27,-2.371 -32.26,-7.992 -32.26,-22.062 0,-10.797 6.66,-16.868 19.09,-16.868 5.03,0 10.07,1.039 13.17,2.668 z m -14.35,-46.48 c -19.1,0 -30.35,8.289 -30.35,24.129 0,19.242 18.95,26.64 44.7,29.16 v 4.879 c 0,10.953 -5.92,15.839 -17.02,15.839 -6.95,0 -14.5,-2.078 -19.98,-5.027 l -3.11,7.988 c 6.66,3.403 15.69,5.77 24.27,5.77 17.33,0 27.98,-8.141 27.98,-25.899 v -51.21 c -6.37,-3.399 -15.84,-5.629 -26.49,-5.629" /><path
         id="path230"
         style="fill:#5f6264;fill-opacity:1;fill-rule:nonzero;stroke:none"
         d="m 3956.37,336.82 c -2.96,1.481 -7.11,2.219 -11.4,2.219 -15.99,0 -22.79,-13.469 -22.79,-34.34 0,-20.277 6.5,-31.82 21.76,-31.82 5.02,0 9.47,1.48 12.43,3.25 z m 12.87,-72.379 c 0,-20.121 -11.25,-32.121 -30.78,-32.121 -9.48,0 -18.8,2.371 -24.57,5.629 l 3.84,8.582 c 4.59,-2.519 11.69,-4.59 18.5,-4.59 14.51,0 20.14,8.879 20.14,21.02 v 5.328 c -3.56,-2.07 -8.89,-3.551 -15.84,-3.551 -19.24,0 -31.38,15.242 -31.38,39.524 0,25.597 12.73,42.617 36.55,42.617 9.18,0 18.06,-2.219 23.54,-5.469 v -76.969" /><path
         id="path232"
         style="fill:#5f6264;fill-opacity:1;fill-rule:nonzero;stroke:none"
         d="m 4019.09,338.738 c -13.17,0 -19.99,-12.429 -19.99,-30.488 v -0.738 l 38.19,5.918 c -0.3,16.14 -5.77,25.308 -18.2,25.308 z M 3999.7,300.41 c 1.18,-16.441 9.47,-26.941 24.57,-26.941 7.25,0 14.95,2.07 19.38,4.73 l 3.41,-8.429 c -5.62,-3.258 -14.8,-5.629 -24.12,-5.629 -22.79,0 -35.82,15.691 -35.82,41.589 0,25.02 11.98,41.149 32.26,41.149 19.1,0 30.49,-12.43 30.49,-37.59 v -1.48 l -50.17,-7.399" /><path
         id="path234"
         style="fill:#5f6264;fill-opacity:1;fill-rule:nonzero;stroke:none"
         d="m 4157.3,265.621 v 55.66 c 0,10.508 -4.73,17.309 -16.43,17.309 -6.51,0 -11.69,-2.961 -15.54,-7.551 v -65.418 h -12.88 v 57.731 c 0,9.179 -5.03,15.238 -16.87,15.238 -6.07,0 -10.51,-0.738 -14.95,-2.66 v -70.309 h -12.88 v 75.641 c 7.7,3.398 16.59,5.617 27.39,5.617 11.99,0 18.8,-3.258 23.97,-9.32 5.33,5.769 13.48,9.32 22.95,9.32 19.53,0 28.12,-10.5 28.12,-25.75 v -55.508 h -12.88" /><path
         id="path236"
         style="fill:#5f6264;fill-opacity:1;fill-rule:nonzero;stroke:none"
         d="m 4220.01,338.738 c -13.17,0 -19.99,-12.429 -19.99,-30.488 v -0.738 l 38.19,5.918 c -0.3,16.14 -5.77,25.308 -18.2,25.308 z m -19.39,-38.328 c 1.18,-16.441 9.47,-26.941 24.57,-26.941 7.25,0 14.95,2.07 19.38,4.73 l 3.41,-8.429 c -5.63,-3.258 -14.81,-5.629 -24.12,-5.629 -22.8,0 -35.82,15.691 -35.82,41.589 0,25.02 11.98,41.149 32.26,41.149 19.09,0 30.49,-12.43 30.49,-37.59 v -1.48 l -50.17,-7.399" /><path
         id="path238"
         style="fill:#5f6264;fill-opacity:1;fill-rule:nonzero;stroke:none"
         d="m 4313.67,265.621 v 55.059 c 0,12 -4.89,17.91 -17.91,17.91 -5.48,0 -9.92,-0.879 -14.06,-2.66 v -70.309 h -13.03 v 75.641 c 7.4,3.398 17.17,5.617 27.09,5.617 21.46,0 30.93,-9.32 30.93,-26.199 v -55.059 h -13.02" /><path
         id="path240"
         style="fill:#5f6264;fill-opacity:1;fill-rule:nonzero;stroke:none"
         d="m 4370.48,264.879 c -11.4,0 -19.09,6.973 -19.09,20.133 v 52.258 h -9.18 v 8.128 h 9.18 v 18.364 l 13.02,3.988 v -22.352 h 13.91 v -8.128 h -13.91 v -52.258 c 0,-6.953 3.4,-11.09 9.92,-11.09 1.48,0 2.81,0.137 3.99,0.578 v -8.281 c -2.07,-0.887 -4.74,-1.34 -7.84,-1.34" /><path
         id="path242"
         style="fill:#5f6264;fill-opacity:1;fill-rule:nonzero;stroke:none"
         d="m 963.168,1224.94 v 184.03 h 89.612 v -22.74 h -55.635 v -55.64 h 49.485 v -22.47 h -49.485 v -60.45 h 55.635 v -22.73 h -89.612" /><path
         id="path244"
         style="fill:#5f6264;fill-opacity:1;fill-rule:nonzero;stroke:none"
         d="m 1134.49,1222 c -37.99,0 -57.51,14.98 -57.51,48.94 v 98.18 h 32.63 v -99.24 c 0,-16.86 8.29,-25.95 25.41,-25.95 7.49,0 16.05,1.34 21.13,4.02 v 121.17 h 32.63 v -136.16 c -12.3,-6.15 -33.7,-10.96 -54.29,-10.96" /><path
         id="path246"
         style="fill:#5f6264;fill-opacity:1;fill-rule:nonzero;stroke:none"
         d="m 1285.63,1347.71 c -4.28,1.88 -9.63,2.95 -14.72,2.95 -5.88,0 -11.76,-1.07 -15.51,-2.95 v -122.77 h -32.63 v 136.69 c 12.84,6.15 30.76,10.15 54.03,10.15 5.89,0 12.84,-0.53 15.51,-0.8 l -6.68,-23.27" /><path
         id="path248"
         style="fill:#5f6264;fill-opacity:1;fill-rule:nonzero;stroke:none"
         d="m 1363.24,1351.72 c -21.13,0 -28.35,-23.81 -28.35,-54.03 0,-30.23 7.22,-54.03 28.35,-54.03 21.14,0 28.36,23.8 28.36,54.03 0,29.96 -7.22,54.03 -28.36,54.03 z m 0,-129.72 c -40.92,0 -60.98,31.56 -60.98,75.15 0,43.34 20.06,74.9 60.98,74.9 40.93,0 60.99,-31.56 60.99,-74.9 0,-43.59 -20.06,-75.15 -60.99,-75.15" /><path
         id="path250"
         style="fill:#5f6264;fill-opacity:1;fill-rule:nonzero;stroke:none"
         d="m 1501.79,1352.26 c -5.89,0 -12.31,-0.8 -16.86,-2.94 v -104.05 c 3.48,-1.34 8.83,-2.41 14.45,-2.41 25.68,0 38.25,19.79 38.25,55.1 0,33.97 -9.63,54.3 -35.84,54.3 z m 4.81,-129.46 c -8.56,0 -16.85,1.6 -21.67,3.21 v -58.58 h -32.36 v 194.2 c 14.17,6.95 31.56,10.42 49.75,10.42 43.07,0 67.68,-27.28 67.68,-73.28 0,-47.35 -25.68,-75.97 -63.4,-75.97" /><path
         id="path252"
         style="fill:#5f6264;fill-opacity:1;fill-rule:nonzero;stroke:none"
         d="m 1671.51,1303.04 c -32.09,-3.47 -49.75,-13.1 -49.75,-35.31 0,-17.65 10.44,-27.28 30.23,-27.28 7.49,0 14.98,1.6 19.52,4.02 z M 1649.85,1222 c -37.98,0 -58.85,15.24 -58.85,44.66 0,35.31 35.04,47.89 80.51,52.16 v 7.76 c 0,16.85 -9.36,24.34 -27.55,24.34 -12.84,0 -27.28,-4.01 -37.44,-9.09 l -7.23,19.26 c 13.38,6.15 31.57,10.96 48.69,10.96 33.17,0 54.03,-14.98 54.03,-49.75 v -89.87 c -12.04,-6.16 -30.5,-10.43 -52.16,-10.43" /><path
         id="path254"
         style="fill:#5f6264;fill-opacity:1;fill-rule:nonzero;stroke:none"
         d="m 1733.13,1300.9 v 24.61 h 65.27 v -24.61 h -65.27" /><path
         id="path256"
         style="fill:#5f6264;fill-opacity:1;fill-rule:nonzero;stroke:none"
         d="m 1893.72,1222 c -36.65,0 -61.26,23.27 -61.26,56.43 v 130.54 h 33.98 v -130.8 c 0,-18.73 13.1,-29.96 28.61,-29.96 15.52,0 28.36,11.23 28.36,29.96 v 130.8 h 31.56 v -130.54 c 0,-33.16 -24.61,-56.43 -61.25,-56.43" /><path
         id="path258"
         style="fill:#5f6264;fill-opacity:1;fill-rule:nonzero;stroke:none"
         d="m 2071.95,1224.94 v 98.7 c 0,18.72 -7.49,27.82 -27.55,27.82 -8.03,0 -14.98,-1.07 -21.13,-3.75 v -122.77 h -32.64 v 136.41 c 14.99,6.43 33.71,10.43 53.77,10.43 41.99,0 60.18,-17.64 60.18,-48.4 v -98.44 h -32.63" /><path
         id="path260"
         style="fill:#5f6264;fill-opacity:1;fill-rule:nonzero;stroke:none"
         d="m 2138.43,1224.94 v 144.18 h 32.63 v -144.18 z m 16.32,168.77 c -9.9,0 -18.19,7.23 -18.19,16.33 0,9.1 8.29,16.59 18.19,16.59 9.89,0 18.19,-7.49 18.19,-16.59 0,-9.1 -8.3,-16.33 -18.19,-16.33" /><path
         id="path262"
         style="fill:#5f6264;fill-opacity:1;fill-rule:nonzero;stroke:none"
         d="m 2271.8,1224.94 h -30.5 l -47.61,144.18 h 35.04 l 25.14,-93.63 c 1.61,-5.88 2.67,-12.3 3.48,-20.59 h 0.53 c 0.81,7.75 1.88,14.44 3.75,20.59 l 26.75,93.63 h 31.02 l -47.6,-144.18" /><path
         id="path264"
         style="fill:#5f6264;fill-opacity:1;fill-rule:nonzero;stroke:none"
         d="m 2391.81,1352.52 c -20.6,0 -31.04,-19.52 -31.04,-47.88 v -2.94 l 59.39,9.37 c -0.27,26.21 -8.83,41.45 -28.35,41.45 z m -29.16,-67.4 c 2.41,-25.14 16.58,-40.12 40.39,-40.12 13.1,0 27.28,3.75 35.57,8.29 l 7.76,-20.86 c -11.77,-6.16 -29.69,-10.43 -47.88,-10.43 -43.6,0 -67.67,30.22 -67.67,75.43 0,45.2 23,74.62 62.05,74.62 37.45,0 58.59,-24.6 58.59,-69.55 v -4.27 l -88.81,-13.11" /><path
         id="path266"
         style="fill:#5f6264;fill-opacity:1;fill-rule:nonzero;stroke:none"
         d="m 2541.76,1347.71 c -4.28,1.88 -9.63,2.95 -14.71,2.95 -5.89,0 -11.77,-1.07 -15.52,-2.95 v -122.77 h -32.63 v 136.69 c 12.84,6.15 30.76,10.15 54.03,10.15 5.89,0 12.84,-0.53 15.52,-0.8 l -6.69,-23.27" /><path
         id="path268"
         style="fill:#5f6264;fill-opacity:1;fill-rule:nonzero;stroke:none"
         d="m 2601.41,1222 c -15.26,0 -31.84,4.27 -41.73,10.43 l 9.09,20.33 c 9.09,-5.63 19.52,-8.29 28.89,-8.29 14.44,0 23.54,8.82 23.54,20.32 0,29.96 -58.05,18.73 -58.05,65.27 0,24.6 20.33,41.99 47.35,41.99 16.04,0 29.15,-3.47 40.12,-10.42 l -8.3,-18.46 c -7.75,4.81 -17.11,8.02 -25.67,8.02 -14.18,0 -21.4,-8.3 -21.4,-18.99 0,-28.36 59.38,-17.93 59.38,-65.27 0,-24.88 -20.86,-44.93 -53.22,-44.93" /><path
         id="path270"
         style="fill:#5f6264;fill-opacity:1;fill-rule:nonzero;stroke:none"
         d="m 2680.94,1224.94 v 144.18 h 32.63 v -144.18 z m 16.32,168.77 c -9.91,0 -18.2,7.23 -18.2,16.33 0,9.1 8.29,16.59 18.2,16.59 9.89,0 18.18,-7.49 18.18,-16.59 0,-9.1 -8.29,-16.33 -18.18,-16.33" /><path
         id="path272"
         style="fill:#5f6264;fill-opacity:1;fill-rule:nonzero;stroke:none"
         d="m 2792.58,1223.06 c -24.07,0 -38.52,14.44 -38.52,39.85 v 85.6 h -16.05 v 20.61 h 16.05 v 31.82 l 32.63,9.1 v -40.92 h 23.54 v -20.61 h -23.54 v -85.6 c 0,-10.96 5.35,-17.38 15.52,-17.38 2.94,0 5.61,0.54 8.02,1.34 v -20.6 c -4.28,-2.13 -10.44,-3.21 -17.65,-3.21" /><path
         id="path274"
         style="fill:#5f6264;fill-opacity:1;fill-rule:nonzero;stroke:none"
         d="m 2913.79,1386.76 c -8.03,0 -14.44,6.43 -14.44,14.45 0,8.02 6.41,14.45 14.44,14.45 8.03,0 14.44,-6.43 14.44,-14.45 0,-8.02 -6.41,-14.45 -14.44,-14.45 z m -3.21,-83.72 c -32.1,-3.47 -49.75,-13.1 -49.75,-35.31 0,-17.65 10.43,-27.28 30.22,-27.28 7.49,0 14.99,1.6 19.53,4.02 z m -42.8,83.72 c -8.02,0 -14.44,6.43 -14.44,14.45 0,8.02 6.42,14.45 14.44,14.45 8.02,0 14.45,-6.43 14.45,-14.45 0,-8.02 -6.43,-14.45 -14.45,-14.45 z M 2888.92,1222 c -37.99,0 -58.85,15.24 -58.85,44.66 0,35.31 35.04,47.89 80.51,52.16 v 7.76 c 0,16.85 -9.36,24.34 -27.55,24.34 -12.84,0 -27.29,-4.01 -37.45,-9.09 l -7.22,19.26 c 13.37,6.15 31.56,10.96 48.68,10.96 33.17,0 54.03,-14.98 54.03,-49.75 v -89.87 c -12.04,-6.16 -30.49,-10.43 -52.15,-10.43" /><path
         id="path276"
         style="fill:#5f6264;fill-opacity:1;fill-rule:nonzero;stroke:none"
         d="m 3017.91,1223.06 c -24.07,0 -38.52,14.44 -38.52,39.85 v 85.6 h -16.05 v 20.61 h 16.05 v 31.82 l 32.63,9.1 v -40.92 h 23.55 v -20.61 h -23.55 v -85.6 c 0,-10.96 5.35,-17.38 15.52,-17.38 2.94,0 5.61,0.54 8.03,1.34 v -20.6 c -4.29,-2.13 -10.44,-3.21 -17.66,-3.21" /><path
         id="path278"
         style="fill:#5f6264;fill-opacity:1;fill-rule:nonzero;stroke:none"
         d="m 997.145,1108.87 v -55.64 h 49.215 v -22.47 h -49.215 v -83.186 h -33.977 v 184.036 h 89.342 v -22.74 h -55.365" /><path
         id="path280"
         style="fill:#5f6264;fill-opacity:1;fill-rule:nonzero;stroke:none"
         d="m 1077.93,947.574 v 209.976 h 32.64 V 947.574 h -32.64" /><path
         id="path282"
         style="fill:#5f6264;fill-opacity:1;fill-rule:nonzero;stroke:none"
         d="m 1200.14,1075.16 c -20.59,0 -31.02,-19.52 -31.02,-47.88 v -2.94 l 59.38,9.37 c -0.27,26.21 -8.83,41.45 -28.36,41.45 z m -29.15,-67.4 c 2.4,-25.147 16.58,-40.127 40.39,-40.127 13.1,0 27.28,3.75 35.57,8.289 l 7.76,-20.859 c -11.77,-6.153 -29.69,-10.43 -47.88,-10.43 -43.6,0 -67.67,30.226 -67.67,75.427 0,45.21 23,74.63 62.05,74.63 37.45,0 58.58,-24.61 58.58,-69.55 v -4.28 l -88.8,-13.1" /><path
         id="path284"
         style="fill:#5f6264;fill-opacity:1;fill-rule:nonzero;stroke:none"
         d="m 1368.56,947.574 v 98.696 c 0,18.73 -7.49,27.83 -27.55,27.83 -8.03,0 -14.98,-1.08 -21.13,-3.75 V 947.574 h -32.63 v 136.416 c 14.98,6.42 33.7,10.43 53.76,10.43 41.99,0 60.19,-17.65 60.19,-48.41 v -98.436 h -32.64" /><path
         id="path286"
         style="fill:#5f6264;fill-opacity:1;fill-rule:nonzero;stroke:none"
         d="m 1466.98,944.633 c -15.25,0 -31.83,4.277 -41.73,10.43 l 9.1,20.332 c 9.09,-5.625 19.52,-8.29 28.88,-8.29 14.45,0 23.54,8.817 23.54,20.321 0,29.964 -58.04,18.734 -58.04,65.274 0,24.6 20.33,41.99 47.34,41.99 16.05,0 29.16,-3.48 40.13,-10.43 l -8.29,-18.46 c -7.76,4.82 -17.12,8.02 -25.68,8.02 -14.18,0 -21.4,-8.29 -21.4,-18.98 0,-28.36 59.38,-17.93 59.38,-65.274 0,-24.875 -20.86,-44.933 -53.23,-44.933" /><path
         id="path288"
         style="fill:#5f6264;fill-opacity:1;fill-rule:nonzero;stroke:none"
         d="m 1597.5,1074.63 c -6.96,0 -13.64,-1.33 -18.99,-4.01 V 967.633 c 4.28,-1.867 10.7,-2.676 16.58,-2.676 25.41,0 36.11,22.207 36.11,55.903 0,33.98 -11.77,53.77 -33.7,53.77 z m -4.01,-129.997 c -19.26,0 -36.65,4.277 -47.35,10.43 v 202.487 h 32.37 v -69.28 c 7.75,3.75 17.38,5.62 27.28,5.62 35.04,0 57.78,-27.28 57.78,-70.35 0,-48.419 -24.88,-78.907 -70.08,-78.907" /><path
         id="path290"
         style="fill:#5f6264;fill-opacity:1;fill-rule:nonzero;stroke:none"
         d="m 1748.54,944.633 c -37.99,0 -57.51,14.98 -57.51,48.945 v 98.172 h 32.63 v -99.234 c 0,-16.856 8.29,-25.95 25.41,-25.95 7.49,0 16.05,1.34 21.13,4.016 v 121.168 h 32.63 V 955.602 c -12.3,-6.153 -33.7,-10.969 -54.29,-10.969" /><path
         id="path292"
         style="fill:#5f6264;fill-opacity:1;fill-rule:nonzero;stroke:none"
         d="m 1899.68,1070.35 c -4.28,1.87 -9.63,2.95 -14.71,2.95 -5.89,0 -11.77,-1.08 -15.52,-2.95 V 947.574 h -32.63 v 136.686 c 12.84,6.15 30.76,10.16 54.03,10.16 5.89,0 12.84,-0.53 15.52,-0.8 l -6.69,-23.27" /><path
         id="path294"
         style="fill:#5f6264;fill-opacity:1;fill-rule:nonzero;stroke:none"
         d="m 2000.41,1072.22 c -4.28,2.14 -10.43,3.21 -16.86,3.21 -24.87,0 -35.84,-21.4 -35.84,-56.44 0,-34.24 10.43,-52.697 34.24,-52.697 7.22,0 13.91,1.875 18.46,4.551 z m -27.55,-184.825 c -18.99,0 -37.72,4.277 -48.95,10.425 l 8.56,21.403 c 8.82,-4.813 21.93,-8.301 34.77,-8.301 24.07,0 33.17,13.644 33.17,33.176 v 8.027 c -5.62,-3.215 -14.71,-5.352 -27.02,-5.352 -35.3,0 -58.04,27.012 -58.04,70.617 0,47.61 24.87,77.3 70.61,77.3 17.66,0 35.58,-4.28 46.81,-10.43 V 947.309 c 0,-38.789 -22.73,-59.914 -59.91,-59.914" /></g></g></svg>