<?xml version="1.0" encoding="UTF-8" standalone="no"?>
<svg
   xmlns:dc="http://purl.org/dc/elements/1.1/"
   xmlns:cc="http://creativecommons.org/ns#"
   xmlns:rdf="http://www.w3.org/1999/02/22-rdf-syntax-ns#"
   xmlns:svg="http://www.w3.org/2000/svg"
   xmlns="http://www.w3.org/2000/svg"
   viewBox="0 0 226.77333 151.2"
   height="151.2"
   width="226.77333"
   xml:space="preserve"
   id="svg2"
   version="1.1"><metadata
     id="metadata8"><rdf:RDF><cc:Work
         rdf:about=""><dc:format>image/svg+xml</dc:format><dc:type
           rdf:resource="http://purl.org/dc/dcmitype/StillImage" /></cc:Work></rdf:RDF></metadata><defs
     id="defs6" /><g
     transform="matrix(1.3333333,0,0,-1.3333333,0,151.2)"
     id="g10"><g
       transform="scale(0.1)"
       id="g12"><path
         id="path14"
         style="fill:#393536;fill-opacity:1;fill-rule:nonzero;stroke:none"
         d="m 579.617,554.395 v 16.085 h 8.84 v 69.743 h -8.84 v 16.086 h 37.77 v -16.086 h -8.793 v -24.918 h 38.152 v 24.918 h -8.797 v 16.086 h 37.789 v -16.086 h -8.902 V 570.48 h 8.902 v -16.085 h -37.789 v 16.085 h 8.797 v 28.454 H 608.594 V 570.48 h 8.793 v -16.085 h -37.77" /><path
         id="path16"
         style="fill:#393536;fill-opacity:1;fill-rule:nonzero;stroke:none"
         d="m 721.426,612.824 c -10.836,0 -16.071,-4.808 -16.071,-21.847 0,-18.418 4.649,-22.778 15.758,-22.778 11.117,0 16.028,3.781 16.028,22.239 0,17.578 -4.02,22.386 -15.715,22.386 z m -0.789,-59.933 c -22.703,0 -34.696,7.097 -34.696,37.832 0,31.765 15.567,37.793 35.758,37.793 21.949,0 34.754,-5.743 34.754,-37.254 0,-30.739 -11.957,-38.371 -35.816,-38.371" /><path
         id="path18"
         style="fill:#393536;fill-opacity:1;fill-rule:nonzero;stroke:none"
         d="m 804.926,569.063 c 10.344,0 17.285,2.625 21.359,4.367 l 4.43,-14.883 c -6.172,-3.352 -15.844,-5.656 -27.387,-5.656 -22.383,0 -34.933,7.91 -34.933,36.668 0,27.796 9.375,38.957 35.523,38.957 12.992,0 21.477,-2.629 24.48,-12.004 1.602,-4.703 1.911,-9.422 1.911,-14.371 h -17.606 c -0.16,2.441 -0.16,5.535 -1.437,7.632 -1.028,1.942 -3.633,3.051 -8.961,3.051 -11.778,0 -14.395,-6.89 -14.395,-22.433 0,-13.657 3.281,-21.328 17.016,-21.328" /><path
         id="path20"
         style="fill:#393536;fill-opacity:1;fill-rule:nonzero;stroke:none"
         d="m 839.57,554.395 v 15.828 h 8.41 v 76.156 h -8.41 v 15.844 h 27.743 v -43.082 c 3.167,6.125 12.652,9.375 22.339,9.375 13.817,0 18.317,-3.485 20.485,-9.086 1.429,-3.828 1.429,-9.078 1.429,-14.578 v -30.836 c 0,-2.914 1.012,-4.078 3.469,-4.078 1.844,0 4.164,0.238 5.625,0.542 l 0.863,-15.851 c -2.453,-0.566 -8.226,-1.399 -12.285,-1.399 -6.035,0 -10.914,1.118 -13.687,3.504 -2.43,2.379 -3.321,6.403 -3.321,11.993 v 32.246 c 0,2.484 -0.144,5.543 -0.714,7.289 -1.141,2.961 -4.289,4.023 -9.508,4.023 -5.039,0 -9.098,-1.699 -10.653,-2.512 -1.039,-0.585 -2.617,-1.511 -3.347,-2.964 -0.426,-1.11 -0.695,-2.036 -0.695,-4.961 v -31.625 h 8.351 V 554.395 H 839.57" /><path
         id="path22"
         style="fill:#393536;fill-opacity:1;fill-rule:nonzero;stroke:none"
         d="m 949.652,584.156 c -12.422,1.676 -18.605,7.446 -18.605,21.25 0,14.282 9.086,23.11 30.398,23.11 11.879,0 23.946,-1.746 28.008,-10.547 1.477,-2.891 2.434,-7.918 2.434,-13.938 l -17.27,-0.574 c 0,2.184 -0.137,4.523 -1.597,6.594 -1.161,2.047 -4.313,3.344 -11.575,3.344 -9.183,0 -11.644,-2.758 -11.644,-7.168 0,-4.161 1.312,-5.594 8.961,-6.754 l 15.148,-2.328 c 14.375,-2.223 19.012,-8.211 19.012,-21.665 0,-14.093 -8.359,-22.589 -32.18,-22.589 -13.23,0 -26.836,2.031 -30.57,14.211 -0.848,2.793 -1.41,6.914 -1.598,10.488 l 17.024,0.59 c 0.187,-2.41 0.89,-5.043 1.914,-6.25 1.863,-2.621 5.144,-4.02 13.933,-4.02 10.153,0 12.465,3.156 12.465,7.57 0,3.204 -1.152,5.243 -8.242,6.407 l -16.016,2.269" /><path
         id="path24"
         style="fill:#393536;fill-opacity:1;fill-rule:nonzero;stroke:none"
         d="m 1040.68,569.063 c 10.34,0 17.27,2.625 21.32,4.367 l 4.5,-14.883 c -6.24,-3.352 -15.87,-5.656 -27.42,-5.656 -22.34,0 -34.93,7.91 -34.93,36.668 0,27.796 9.37,38.957 35.52,38.957 12.93,0 21.47,-2.629 24.52,-12.004 1.53,-4.703 1.86,-9.422 1.86,-14.371 h -17.59 c -0.12,2.441 -0.12,5.535 -1.49,7.632 -0.95,1.942 -3.59,3.051 -8.91,3.051 -11.83,0 -14.42,-6.89 -14.42,-22.433 0,-13.657 3.32,-21.328 17.04,-21.328" /><path
         id="path26"
         style="fill:#393536;fill-opacity:1;fill-rule:nonzero;stroke:none"
         d="m 1073.68,554.395 v 15.828 h 8.35 v 76.156 h -8.35 v 15.844 h 27.68 v -43.082 c 3.23,6.125 12.72,9.375 22.34,9.375 13.88,0 18.39,-3.485 20.48,-9.086 1.48,-3.828 1.48,-9.078 1.48,-14.578 v -30.836 c 0,-2.914 0.99,-4.078 3.48,-4.078 1.86,0 4.19,0.238 5.58,0.542 l 0.91,-15.851 c -2.45,-0.566 -8.22,-1.399 -12.27,-1.399 -6.08,0 -10.97,1.118 -13.74,3.504 -2.44,2.379 -3.28,6.403 -3.28,11.993 v 32.246 c 0,2.484 -0.16,5.543 -0.73,7.289 -1.13,2.961 -4.34,4.023 -9.54,4.023 -5.01,0 -9.04,-1.699 -10.65,-2.512 -1.04,-0.585 -2.57,-1.511 -3.35,-2.964 -0.39,-1.11 -0.71,-2.036 -0.71,-4.961 v -31.625 h 8.37 v -15.828 h -36.05" /><path
         id="path28"
         style="fill:#393536;fill-opacity:1;fill-rule:nonzero;stroke:none"
         d="m 1191.01,552.891 c -13.43,0 -17.74,3.687 -20.16,9.129 -1.62,3.5 -1.73,9.621 -1.73,14.91 v 34 h -8.54 v 15.84 h 27.86 v -46.586 c 0,-2.375 0.11,-5.586 0.7,-7.09 1.14,-3.156 4.5,-4.309 9.66,-4.309 5.15,0 8.96,1.738 10.37,2.61 1.02,0.535 2.64,1.457 3.35,2.914 0.57,1.066 0.81,2.035 0.81,4.714 v 31.907 h -8.62 v 15.84 h 27.95 v -51.7 c 0,-3.726 1.49,-5.132 4.19,-5.132 1.34,0 3.78,0.238 5.2,0.285 l 1.02,-15.246 c -3.13,-0.868 -8.52,-1.5 -14.44,-1.5 -11.12,0 -12.65,5.636 -13.39,10.246 -2.85,-7.426 -12.68,-10.832 -24.23,-10.832" /><path
         id="path30"
         style="fill:#393536;fill-opacity:1;fill-rule:nonzero;stroke:none"
         d="m 1253.55,554.395 v 15.828 h 8.35 v 76.156 h -8.35 v 15.844 h 27.68 v -92 h 8.35 v -15.828 h -36.03" /><path
         id="path32"
         style="fill:#393536;fill-opacity:1;fill-rule:nonzero;stroke:none"
         d="m 1346.14,599.188 c 0.12,0.625 0.12,2.019 0.12,2.66 0,8.789 -2.16,12.945 -12.97,12.945 -10.39,0 -14.12,-4.785 -14.42,-15.605 z m -9.5,-30.762 c 11.48,0 19.15,2.383 23.35,4.387 l 4.32,-13.969 c -7.2,-3.922 -18.87,-5.953 -31.02,-5.953 -26.7,0 -34.34,11.929 -34.34,37.5 0,27.871 10.4,38.125 34.61,38.125 27.27,0 30.62,-12.328 30.62,-33.996 0,-2.122 -0.19,-6.707 -0.44,-9.528 h -45.15 c 0.72,-13.062 5.91,-16.566 18.05,-16.566" /><path
         id="path34"
         style="fill:#393536;fill-opacity:1;fill-rule:nonzero;stroke:none"
         d="m 579.617,381.32 v 16.004 h 8.84 v 69.781 h -8.84 v 16.067 h 71.281 v -27.453 h -15.035 l -0.582,11.386 h -26.687 v -26.968 h 28.785 v -16.239 h -28.785 v -26.574 h 11.383 V 381.32 h -40.36" /><path
         id="path36"
         style="fill:#393536;fill-opacity:1;fill-rule:nonzero;stroke:none"
         d="m 656.992,381.32 v 15.868 h 8.422 v 76.132 h -8.422 v 15.914 h 27.738 v -92.046 h 8.305 V 381.32 h -36.043" /><path
         id="path38"
         style="fill:#393536;fill-opacity:1;fill-rule:nonzero;stroke:none"
         d="m 749.59,426.035 c 0.18,0.68 0.18,2.051 0.18,2.727 0,8.789 -2.219,13.015 -13.032,13.015 -10.332,0 -14.109,-4.902 -14.402,-15.742 z m -9.453,-30.711 c 11.484,0 19.121,2.449 23.277,4.324 l 4.352,-13.808 c -7.176,-4.043 -18.844,-6.113 -31.028,-6.113 -26.687,0 -34.32,12.023 -34.32,37.515 0,27.953 10.434,38.168 34.59,38.168 27.285,0 30.668,-12.355 30.668,-34.012 0,-2.101 -0.215,-6.601 -0.492,-9.464 h -45.133 c 0.754,-13.129 5.894,-16.61 18.086,-16.61" /><path
         id="path40"
         style="fill:#393536;fill-opacity:1;fill-rule:nonzero;stroke:none"
         d="m 779.336,381.32 v 15.868 h 8.227 v 36.492 c 0,2.898 -0.766,4.457 -3.364,4.457 -1.449,0 -3.433,0 -4.863,-0.328 l -1.043,15.617 c 3.199,0.574 10.406,1.144 13.547,1.144 11.871,0 14.012,-3.984 14.293,-9.785 2.75,7.238 13.539,10.625 23.097,10.625 13.821,0 18.293,-3.387 20.493,-9.066 1.425,-3.875 1.425,-9.117 1.425,-14.512 v -30.937 c 0,-2.868 1.149,-4.008 3.446,-4.008 1.883,0 4.195,0.176 5.664,0.437 l 0.957,-15.844 c -2.426,-0.582 -8.219,-1.312 -12.387,-1.312 -5.894,0 -10.973,1.051 -13.562,3.465 -2.457,2.469 -3.442,6.387 -3.442,11.965 v 32.269 c 0,2.539 -0.168,5.531 -0.754,7.278 -1.152,2.992 -4.289,4.07 -9.472,4.07 -5.075,0 -9.098,-1.754 -10.739,-2.559 -0.953,-0.554 -2.406,-1.511 -3.132,-2.976 -0.575,-0.977 -0.832,-2.024 -0.832,-4.739 v -31.753 h 8.316 V 381.32 h -35.875" /><path
         id="path42"
         style="fill:#393536;fill-opacity:1;fill-rule:nonzero;stroke:none"
         d="m 889.34,411.09 c -12.375,1.738 -18.539,7.402 -18.539,21.301 0,14.132 9.054,23.019 30.414,23.019 11.816,0 23.887,-1.711 27.933,-10.519 1.461,-2.821 2.446,-7.926 2.446,-13.903 l -17.285,-0.582 c 0,2.106 -0.125,4.43 -1.582,6.559 -1.161,2.015 -4.325,3.41 -11.512,3.41 -9.242,0 -11.668,-2.824 -11.668,-7.293 0,-4.141 1.269,-5.582 8.906,-6.738 l 15.164,-2.313 c 14.371,-2.156 19.016,-8.215 19.016,-21.656 0,-14.098 -8.363,-22.648 -32.168,-22.648 -13.238,0 -26.817,2.07 -30.559,14.347 -0.859,2.676 -1.429,6.821 -1.625,10.528 l 17.008,0.562 c 0.199,-2.519 0.895,-5.098 1.938,-6.359 1.839,-2.637 5.168,-3.895 13.988,-3.895 10.09,0 12.402,3 12.402,7.465 0,3.168 -1.172,5.223 -8.226,6.383 l -16.051,2.332" /><path
         id="path44"
         style="fill:#393536;fill-opacity:1;fill-rule:nonzero;stroke:none"
         d="m 967.688,405.855 c 0,-3.562 0.714,-5.628 2,-7.05 1.324,-1.617 4.929,-3.793 11.089,-3.793 14.325,0 16.895,6.386 16.895,23.121 0,14.832 -1.879,21.652 -14.711,21.652 -8.344,0 -13.68,-2.234 -14.824,-7.082 -0.324,-1.144 -0.449,-3.445 -0.449,-4.535 z m -2.883,-24.636 h -16.442 v 92.101 h -8.23 v 15.914 h 27.555 v -43.285 c 3.718,6.352 11.554,9.461 22.785,9.461 18.627,0 26.637,-9.738 26.637,-36.347 0,-32.657 -10.22,-39.336 -32.547,-39.336 -9.508,0 -17.333,3.808 -19.321,8.679 l -0.437,-7.187" /><path
         id="path46"
         style="fill:#393536;fill-opacity:1;fill-rule:nonzero;stroke:none"
         d="m 1057.83,379.727 c -13.43,0 -17.72,3.808 -20.23,9.234 -1.53,3.461 -1.72,9.523 -1.72,14.84 v 34.008 h -8.49 v 15.89 h 27.82 v -46.574 c 0,-2.422 0.18,-5.645 0.76,-7.164 1.17,-3.074 4.42,-4.172 9.64,-4.172 5.18,0 8.91,1.668 10.39,2.547 1.04,0.469 2.56,1.418 3.32,2.871 0.57,1.086 0.85,2.016 0.85,4.777 v 31.825 h -8.67 v 15.89 h 27.98 V 401.98 c 0,-3.761 1.45,-5.093 4.19,-5.093 1.28,0 3.78,0.176 5.19,0.301 l 1.05,-15.282 c -3.23,-0.898 -8.56,-1.593 -14.46,-1.593 -11.09,0 -12.69,5.789 -13.42,10.289 -2.88,-7.372 -12.65,-10.875 -24.2,-10.875" /><path
         id="path48"
         style="fill:#393536;fill-opacity:1;fill-rule:nonzero;stroke:none"
         d="m 1119.12,381.32 v 15.868 h 8.23 v 36.789 c 0,2.601 -0.75,4.16 -3.64,4.16 -1.15,0 -3.15,0 -4.59,-0.328 l -0.98,15.617 c 3,0.574 10.77,1.144 13.79,1.144 11.67,0 13.75,-4.238 14,-10.519 1.59,7.512 9.24,11.574 17.45,11.574 4.63,0 7.98,-0.785 9.68,-1.465 L 1170,436.965 c -2.88,0.769 -7.07,1.43 -11.1,1.43 -4.58,0 -7.76,-1.247 -9.51,-2.676 -0.81,-0.574 -1.59,-1.602 -2.16,-2.754 -0.28,-0.723 -0.57,-2.777 -0.57,-4.203 v -31.574 h 11.28 V 381.32 h -38.82" /><path
         id="path50"
         style="fill:#393536;fill-opacity:1;fill-rule:nonzero;stroke:none"
         d="m 1208.45,441.617 c -7.49,0 -12.51,-2.711 -12.51,-11.707 0,-10.262 4.89,-12.097 12.24,-12.097 7.64,0 12.43,2.726 12.43,12.019 0,9.383 -4.37,11.785 -12.16,11.785 z m -30.28,-12.293 c 0,18.754 11.44,26.086 31.14,26.086 5.64,0 12,-0.66 16.31,-3.265 1.01,4.14 4.49,7.91 12.12,7.91 3.03,0 6.04,-0.27 8.68,-0.649 l -1.48,-16.488 c -1.99,0.289 -4.06,0.43 -5.77,0.43 -2.9,0 -3.6,-0.996 -3.6,-2.41 0,-0.801 0.44,-1.723 0.9,-3.129 0.95,-2.399 1.41,-5.106 1.41,-7.899 0,-15.262 -7.64,-25.523 -29.54,-25.523 -5.9,0 -7.64,0.777 -9.94,0.777 -1.32,0 -2.31,-0.301 -2.89,-0.894 -1.04,-1.133 -1.27,-2.563 -1.27,-4.622 0,-3.023 1.85,-3.48 3.84,-3.859 1.84,-0.32 7.04,-0.465 16.87,-0.465 24.66,-0.109 30.43,-4.457 30.43,-23.957 0,-15.859 -8.09,-25.801 -36.93,-25.801 -29.83,0 -33.43,10.106 -33.43,22.223 0,2.438 0.72,5.797 1.29,7.793 l 18.28,-0.742 c -0.35,-1.742 -0.69,-3.902 -0.69,-5.895 0,-5.047 3.18,-8.398 15.28,-8.398 14.89,0 16.87,3.922 16.87,9.812 0,5.633 -1.98,7.227 -10.4,7.629 -8.78,0.582 -22.32,0.582 -28.5,1.739 -6.68,1.281 -9.69,6.226 -9.69,14.699 0,7.64 2.6,13.285 8.69,15.769 -5.68,3.473 -7.98,9.684 -7.98,19.129" /><path
         id="path52"
         style="fill:#393536;fill-opacity:1;fill-rule:nonzero;stroke:none"
         d="m 656.645,299.266 v -50.442 c 0,-14.594 -0.5,-22.371 -4.051,-28.711 -5.25,-9.254 -16.989,-13.437 -34.008,-13.437 -15.191,0 -28.125,2.543 -33.648,14.387 -2.918,6.351 -3.219,16.191 -3.219,27.406 v 50.797 h -9.422 v 10.769 h 32.266 v -10.769 h -9.75 v -54.844 c 0,-8.215 0.57,-14.93 2.984,-18.848 3.504,-5.344 10.543,-7.644 21.363,-7.644 7.449,0 17.895,0.836 21.731,7.379 2.609,3.984 3.312,9.945 3.312,19.007 v 54.95 h -10.078 v 10.769 h 31.395 v -10.769 h -8.875" /><path
         id="path54"
         style="fill:#393536;fill-opacity:1;fill-rule:nonzero;stroke:none"
         d="m 672.52,208.281 v 10.684 h 9.199 v 45.117 c 0,3.477 -0.531,6.043 -4.192,6.043 -1.55,0 -3.562,0 -5.168,-0.246 l -0.734,10.297 c 2.684,0.469 7.551,0.929 9.961,0.929 9.957,0 11.777,-3.812 11.988,-10.542 2.703,8.371 15.274,11.347 24.926,11.347 13.453,0 17.762,-3.562 19.73,-9.156 1.364,-3.684 1.364,-9.012 1.364,-14.563 v -34.839 c 0,-3.418 1.152,-4.973 4.308,-4.973 2.297,0 4.75,0.121 5.922,0.387 l 0.66,-10.485 c -1.832,-0.433 -6.464,-1.015 -9.461,-1.015 -5.335,0 -9.07,1.015 -11.097,3.293 -1.891,2.265 -2.625,5.64 -2.625,10.254 v 35.761 c 0,3.598 -0.289,7.508 -0.985,9.379 -1.429,3.457 -5.128,4.86 -12.453,4.86 -8.508,0 -14.39,-3.004 -16.246,-4.282 -1.058,-0.871 -2.512,-2.199 -2.887,-3.722 -0.5,-1.157 -0.781,-2.321 -0.781,-5.082 v -38.762 h 9.59 V 208.281 H 672.52" /><path
         id="path56"
         style="fill:#393536;fill-opacity:1;fill-rule:nonzero;stroke:none"
         d="m 777.184,295.223 c -4.446,0 -7.95,1.875 -7.95,8.215 0,5.91 3.207,8.335 7.95,8.335 4.793,0 7.945,-1.843 7.945,-8.21 0,-6.043 -3.02,-8.34 -7.945,-8.34 z m -14.411,-86.942 v 10.684 h 9.282 v 50.594 h -9.282 v 10.617 h 21.5 v -61.211 h 9.665 v -10.684 h -31.165" /><path
         id="path58"
         style="fill:#393536;fill-opacity:1;fill-rule:nonzero;stroke:none"
         d="m 817.867,269.559 c 11.856,-30.457 14.891,-38.672 17.887,-47.704 3.609,9.161 7.062,17.942 19.027,47.704 h -10.34 v 10.617 h 30.422 v -10.617 h -7.812 l -25.664,-61.59 h -11.836 l -24.934,61.59 h -7.836 v 10.617 h 30.918 v -10.617 h -9.832" /><path
         id="path60"
         style="fill:#393536;fill-opacity:1;fill-rule:nonzero;stroke:none"
         d="m 931.117,251.227 c 0.137,0.836 0.137,3.019 0.137,4.066 0,10.77 -2.746,17.141 -17.449,17.141 -14.735,0 -19.473,-7.047 -19.91,-21.207 z m -15.144,-34.004 c 12.257,0 19.16,2.89 23.484,5.207 l 3.473,-9.27 c -7.508,-4.508 -16.625,-6.484 -29.004,-6.484 -25.656,0 -32.754,12.289 -32.754,37.379 0,28.113 10.516,37.855 33.191,37.855 24.098,0 28.567,-10.875 28.567,-29.847 0,-3.012 -0.157,-7.747 -0.442,-11.118 h -48.734 c 0.445,-17.832 5.898,-23.722 22.219,-23.722" /><path
         id="path62"
         style="fill:#393536;fill-opacity:1;fill-rule:nonzero;stroke:none"
         d="m 957.328,208.281 v 10.684 h 9.258 v 45.527 c 0,3.192 -0.578,5.633 -4.633,5.633 -1.16,0 -3.148,0 -4.742,-0.246 l -0.711,10.297 c 2.305,0.469 8.344,0.929 10.398,0.929 9.493,0 11.368,-4.042 11.481,-10.98 1.742,8.32 9.961,12.133 18.754,12.133 4.487,0 7.527,-0.914 8.977,-1.5 l -2.29,-11.934 c -2.63,0.824 -6.511,1.406 -10.152,1.406 -5.734,0 -9.758,-2.085 -11.789,-4.167 -0.848,-0.676 -1.758,-1.981 -2.336,-3.254 -0.402,-1.039 -0.695,-3.36 -0.695,-5.082 v -38.762 h 12.711 v -10.684 h -34.231" /><path
         id="path64"
         style="fill:#393536;fill-opacity:1;fill-rule:nonzero;stroke:none"
         d="m 1033.4,240.262 c -11.1,1.843 -16.69,7.98 -16.69,19.773 0,14.824 9.18,21.875 28.83,21.875 11.23,0 20.93,-1.972 24.34,-9.941 1.46,-2.996 1.92,-7.184 1.92,-11.797 l -11.43,-0.484 c 0,2.316 -0.26,4.644 -1.56,7.085 -1.32,2.875 -5.05,4.957 -13.6,4.957 -13.38,0 -16.43,-4.171 -16.43,-10.972 0,-6.512 2.31,-8.36 12.43,-10.09 l 13.84,-2.316 c 13.13,-2.2 18.18,-7.641 18.18,-20.012 0,-13.875 -7.91,-21.664 -29.87,-21.664 -14.39,0 -24.52,3.027 -27.79,13.086 -0.91,2.785 -1.33,6.265 -1.49,9.269 l 11.45,0.586 c 0.11,-2.449 0.69,-5.207 1.84,-7.07 1.85,-3.359 6.37,-5.469 16.68,-5.469 14.01,0 16.9,4.777 16.9,10.899 0,4.5 -1.15,7.406 -11.51,9.554 l -16.04,2.731" /><path
         id="path66"
         style="fill:#393536;fill-opacity:1;fill-rule:nonzero;stroke:none"
         d="m 1101.98,295.223 c -4.42,0 -7.88,1.875 -7.88,8.215 0,5.91 3.14,8.335 7.88,8.335 4.75,0 7.98,-1.843 7.98,-8.21 0,-6.043 -3.03,-8.34 -7.98,-8.34 z m -14.37,-86.942 v 10.684 h 9.18 v 50.594 h -9.18 v 10.617 h 21.43 v -61.211 h 9.71 v -10.684 h -31.14" /><path
         id="path68"
         style="fill:#393536;fill-opacity:1;fill-rule:nonzero;stroke:none"
         d="m 1157.65,206.91 c -7.19,0 -12.38,2.309 -14.7,5.578 -2.45,3.567 -3.46,8.325 -3.46,16.067 v 41.004 h -10.2 v 10.617 h 10.53 l 0.57,19.804 h 11.5 v -19.804 h 16.62 v -10.617 h -16.62 v -38.543 c 0,-4.77 0.57,-8.586 1.73,-10.321 1.14,-1.621 3.46,-2.668 7.38,-2.668 3.71,0 7.51,0.473 9.93,1.321 l 1.63,-10.219 c -3.48,-1.281 -8.42,-2.219 -14.91,-2.219" /><path
         id="path70"
         style="fill:#393536;fill-opacity:1;fill-rule:nonzero;stroke:none"
         d="m 1245.88,269.559 -29.15,-70.852 c -1.86,-4.746 -3.73,-9.187 -6.49,-14.234 -4.05,-7.977 -9.96,-12.258 -20.02,-12.258 -5.21,0 -10.53,0.844 -12.59,1.738 l 2.18,10.414 c 2.59,-0.793 5.91,-1.363 9.26,-1.363 4.61,0 7.88,1.699 10.19,5.742 2.07,3.363 3.92,7.531 7.27,16.086 l 1.52,3.723 -24.77,61.004 h -7.77 v 10.617 h 30.81 v -10.617 h -9.73 c 11.46,-30.11 15.07,-38.786 18.16,-47.934 3.25,9.031 6.74,18.742 18.42,47.934 h -10.09 v 10.617 h 30.44 v -10.617 h -7.64" /><path
         id="path72"
         style="fill:#393536;fill-opacity:1;fill-rule:nonzero;stroke:none"
         d="m 1326.79,271.383 c -13.87,0 -21.07,-5.43 -21.07,-26.625 0,-22.668 6.37,-27.535 20.74,-27.535 14.34,0 20.82,4.058 20.82,26.949 0,21.664 -5.93,27.211 -20.49,27.211 z m -0.7,-64.707 c -21.97,0 -32.76,7.066 -32.76,37.746 0,31.601 14.85,37.488 33.71,37.488 20.68,0 32.6,-5.547 32.6,-37.015 0,-30.68 -10.97,-38.219 -33.55,-38.219" /><path
         id="path74"
         style="fill:#393536;fill-opacity:1;fill-rule:nonzero;stroke:none"
         d="m 1374.7,208.281 v 10.684 h 9.17 v 50.594 h -10.32 v 10.617 h 10.32 v 11.578 c 0,10.812 2.06,16.777 6.12,20.355 4.28,4.059 10.05,5.321 17.96,5.321 6.09,0 11.11,-0.684 15.02,-2.164 l -2.55,-10.543 c -3.37,1.011 -7.65,1.84 -12.14,1.84 -4.89,0 -8.24,-1.391 -9.98,-3.997 -1.59,-2.273 -2.16,-5.73 -2.16,-12.101 v -10.289 h 16.31 v -10.617 h -16.31 v -50.594 h 12.6 v -10.684 h -34.04" /><path
         id="path76"
         style="fill:#393536;fill-opacity:1;fill-rule:nonzero;stroke:none"
         d="m 636.207,79.6211 c -8.871,25.2309 -12.289,35.7499 -14.668,43.6879 -2.141,-7.457 -5.894,-18.18 -15.215,-43.6879 z M 573.672,35.1797 v 10.8594 h 7.445 l 34,91.1989 h 13.106 l 33.125,-91.1989 h 7.73 V 35.1797 h -32.375 v 10.8594 h 11.207 l -8.347,23.1523 H 602.91 l -8.336,-23.1523 h 11.75 V 35.1797 h -32.652" /><path
         id="path78"
         style="fill:#393536;fill-opacity:1;fill-rule:nonzero;stroke:none"
         d="m 697.113,58.832 c 0,-4.3437 0.575,-6.5507 1.805,-8.6132 1.469,-2.3204 6.84,-6.1407 15.789,-6.1407 18.441,0 21.356,8.2032 21.356,27.7813 0,16.789 -2.196,26.3789 -19.051,26.3789 -9.938,0 -17.789,-2.7578 -19.324,-9.7383 -0.282,-0.9805 -0.575,-3.25 -0.575,-4.6211 z M 675.652,0 v 10.6211 h 9.184 v 80.1992 c 0,3.5899 -0.59,6.2813 -4.152,6.2813 -1.446,0 -3.61,0 -5.223,-0.3633 l -0.688,10.4337 c 2.711,0.457 7.446,0.797 9.957,0.797 9.958,0 11.801,-3.707 11.946,-10.5081 3.133,7.9611 13.285,11.4181 24.484,11.4181 19.238,0 27.461,-9.8399 27.461,-36.2071 0,-32.0235 -10.226,-38.8828 -32.359,-38.8828 -8.617,0 -16.258,2.9804 -19.149,7.6328 V 10.6211 h 12.645 V 0 h -34.106" /><path
         id="path80"
         style="fill:#393536;fill-opacity:1;fill-rule:nonzero;stroke:none"
         d="m 783.219,58.832 c 0,-4.3437 0.586,-6.5507 1.832,-8.6132 1.465,-2.3204 6.781,-6.1407 15.762,-6.1407 18.464,0 21.367,8.2032 21.367,27.7813 0,16.789 -2.223,26.3789 -19.055,26.3789 -9.961,0 -17.77,-2.7578 -19.32,-9.7383 -0.282,-0.9805 -0.586,-3.25 -0.586,-4.6211 z M 761.734,0 v 10.6211 h 9.211 v 80.1992 c 0,3.5899 -0.574,6.2813 -4.16,6.2813 -1.433,0 -3.633,0 -5.203,-0.3633 l -0.715,10.4337 c 2.75,0.457 7.473,0.797 9.946,0.797 9.945,0 11.832,-3.707 11.921,-10.5081 3.196,7.9611 13.336,11.4181 24.551,11.4181 19.184,0 27.395,-9.8399 27.395,-36.2071 0,-32.0235 -10.203,-38.8828 -32.313,-38.8828 -8.617,0 -16.25,2.9804 -19.148,7.6328 V 10.6211 h 12.672 V 0 h -34.157" /><path
         id="path82"
         style="fill:#393536;fill-opacity:1;fill-rule:nonzero;stroke:none"
         d="m 847.98,35.1797 v 10.6289 h 9.176 v 86.5624 h -9.367 v 10.652 h 21.84 V 45.8086 h 9.492 V 35.1797 H 847.98" /><path
         id="path84"
         style="fill:#393536;fill-opacity:1;fill-rule:nonzero;stroke:none"
         d="m 909.055,122.148 c -4.485,0 -7.961,1.903 -7.961,8.262 0,5.914 3.199,8.313 7.961,8.313 4.761,0 7.918,-1.828 7.918,-8.211 0,-6.082 -3.032,-8.364 -7.918,-8.364 z M 894.609,35.1797 v 10.6289 h 9.254 v 50.7109 h -9.254 v 10.6525 h 21.5 V 45.8086 h 9.657 V 35.1797 h -31.157" /><path
         id="path86"
         style="fill:#393536;fill-opacity:1;fill-rule:nonzero;stroke:none"
         d="m 987.758,78.1484 c 0.203,0.8829 0.203,3.0821 0.203,3.9922 0,10.8711 -2.77,17.2578 -17.449,17.2578 -14.711,0 -19.465,-7.0468 -19.922,-21.25 z M 972.641,44.0781 c 12.214,0 19.183,2.8711 23.55,5.2032 l 3.438,-9.1797 c -7.5,-4.5 -16.609,-6.5508 -28.984,-6.5508 -25.68,0 -32.762,12.2578 -32.762,37.3711 0,28.1172 10.539,37.9571 33.203,37.9571 24.059,0 28.543,-11.0001 28.543,-29.8477 0,-3.0118 -0.176,-7.7422 -0.426,-11.1094 h -48.73 c 0.367,-17.8828 5.894,-23.8438 22.168,-23.8438" /><path
         id="path88"
         style="fill:#393536;fill-opacity:1;fill-rule:nonzero;stroke:none"
         d="m 1064.5,83.6406 c 0,1.9805 -0.13,4.6485 -0.58,6.1407 -1.54,5.5703 -6.34,8.457 -16.42,8.457 -17.03,0 -21.9,-7.9883 -21.9,-28 0,-18.3086 6.15,-26.1602 20.32,-26.1602 11.96,0 16.71,4.6133 18,9.711 0.58,1.9609 0.58,4.2812 0.58,7.6523 z m -21.31,-50.0898 c -20.23,0 -29.99,9.2383 -29.99,36 0,30.6602 11.12,39.3282 33.31,39.3282 9.35,0 15.56,-2.609 17.99,-7.41 v 30.902 h -9.51 v 10.652 h 21.91 V 52.5313 c 0,-4.6329 0.77,-7.293 4.94,-7.293 1.59,0 3.72,0.2305 5.2,0.3515 l 0.95,-10.3203 c -2.43,-0.5703 -6.15,-0.9101 -9.17,-0.9101 -9.83,0 -12.42,3.582 -12.99,9.7187 -3.89,-7.8867 -12.69,-10.5273 -22.64,-10.5273" /><path
         id="path90"
         style="fill:#393536;fill-opacity:1;fill-rule:nonzero;stroke:none"
         d="m 1142.83,63.6289 c 0.13,-4.9805 1.04,-9.0469 2.32,-11.3476 2.19,-3.8125 8.35,-7.6329 21.3,-7.6329 21.52,0 24.4,7.8829 24.4,17.6016 0,8.6719 -2.17,13.1797 -18.47,16.4609 l -17.38,3.668 c -14.74,3.0195 -21.26,11.1094 -21.26,26.6331 0,18.519 9.68,29.609 36.19,29.609 18.04,0 27.41,-3.808 30.76,-12.711 1.41,-3.961 1.74,-10.058 1.74,-13.91 h -12.27 c -0.18,2.68 -0.57,7.059 -1.72,9.02 -1.89,3.261 -5.65,6.511 -18.76,6.511 -17.33,0 -22.79,-6.742 -22.79,-17.261 0,-9.141 3.02,-13.5317 16.43,-16.4302 L 1180.6,90.25 c 18.18,-3.6914 23.68,-10.4102 23.68,-26.6211 0,-19.5508 -7.79,-30.0781 -38.52,-30.0781 -18.63,0 -28.82,4.9805 -32.75,13.3008 -2.13,4.7382 -2.55,11 -2.55,16.7773 h 12.37" /><path
         id="path92"
         style="fill:#393536;fill-opacity:1;fill-rule:nonzero;stroke:none"
         d="m 1252,44.5508 c 10.86,0 17.34,2.75 21.77,5.0898 l 3.67,-9.832 c -5.78,-3.707 -15.17,-6.2578 -25.82,-6.2578 -21.83,0 -33.08,7.9883 -33.08,36.8008 0,28.1093 9.72,38.5274 34.03,38.5274 13.29,0 20.48,-2.988 22.93,-11.5704 1.16,-3.8203 1.35,-7.8672 1.35,-11.5 h -11.67 c 0,2.4805 -0.2,5.7109 -1.5,8.25 -1.29,2.582 -4.42,4.293 -12.25,4.293 -17.88,0 -20.48,-10.4219 -20.48,-27.4297 0,-14.2422 2.15,-26.3711 21.05,-26.3711" /><path
         id="path94"
         style="fill:#393536;fill-opacity:1;fill-rule:nonzero;stroke:none"
         d="m 1305.04,122.148 c -4.49,0 -7.96,1.903 -7.96,8.262 0,5.914 3.22,8.313 7.96,8.313 4.76,0 7.9,-1.828 7.9,-8.211 0,-6.082 -3.01,-8.364 -7.9,-8.364 z m -14.43,-86.9683 v 10.6289 h 9.23 v 50.7109 h -9.23 v 10.6525 h 21.51 V 45.8086 h 9.62 V 35.1797 h -31.13" /><path
         id="path96"
         style="fill:#393536;fill-opacity:1;fill-rule:nonzero;stroke:none"
         d="m 1383.75,78.1484 c 0.14,0.8829 0.14,3.0821 0.14,3.9922 0,10.8711 -2.69,17.2578 -17.39,17.2578 -14.76,0 -19.52,-7.0468 -19.9,-21.25 z M 1368.6,44.0781 c 12.28,0 19.19,2.8711 23.51,5.2032 l 3.46,-9.1797 c -7.47,-4.5 -16.56,-6.5508 -28.93,-6.5508 -25.73,0 -32.78,12.2578 -32.78,37.3711 0,28.1172 10.53,37.9571 33.21,37.9571 24.09,0 28.5,-11.0001 28.5,-29.8477 0,-3.0118 -0.13,-7.7422 -0.38,-11.1094 h -48.79 c 0.45,-17.8828 5.9,-23.8438 22.2,-23.8438" /><path
         id="path98"
         style="fill:#393536;fill-opacity:1;fill-rule:nonzero;stroke:none"
         d="m 1410.01,35.1797 v 10.6289 h 9.27 v 45.1328 c 0,3.4688 -0.58,6.1602 -4.19,6.1602 -1.58,0 -3.64,0 -5.18,-0.3633 l -0.78,10.4337 c 2.75,0.457 7.51,0.797 9.95,0.797 9.96,0 11.89,-3.707 12.01,-10.5081 2.75,8.4301 15.25,11.4181 24.92,11.4181 13.42,0 17.76,-3.57 19.78,-9.2579 1.28,-3.5625 1.28,-8.9297 1.28,-14.582 v -34.711 c 0,-3.4765 1.16,-5.0898 4.36,-5.0898 2.32,0 4.74,0.2305 5.9,0.4726 l 0.72,-10.5312 c -1.88,-0.4805 -6.49,-1.0586 -9.52,-1.0586 -5.31,0 -9.1,1.0586 -11.11,3.3789 -1.85,2.3086 -2.62,5.6602 -2.62,10.2695 v 35.7696 c 0,3.6015 -0.26,7.4023 -0.96,9.3828 -1.49,3.4101 -5.08,4.8594 -12.41,4.8594 -8.53,0 -14.45,-3.0118 -16.3,-4.293 -1.02,-0.9297 -2.43,-2.207 -2.88,-3.8281 -0.44,-1.1602 -0.72,-2.3086 -0.72,-4.9805 V 45.8086 h 9.52 V 35.1797 h -31.04" /><path
         id="path100"
         style="fill:#393536;fill-opacity:1;fill-rule:nonzero;stroke:none"
         d="m 1533.19,44.5508 c 10.84,0 17.33,2.75 21.78,5.0898 l 3.58,-9.832 c -5.72,-3.707 -15.1,-6.2578 -25.81,-6.2578 -21.75,0 -32.99,7.9883 -32.99,36.8008 0,28.1093 9.66,38.5274 34.01,38.5274 13.3,0 20.47,-2.988 22.94,-11.5704 1.15,-3.8203 1.28,-7.8672 1.28,-11.5 h -11.65 c 0,2.4805 -0.15,5.7109 -1.46,8.25 -1.28,2.582 -4.48,4.293 -12.27,4.293 -17.85,0 -20.47,-10.4219 -20.47,-27.4297 0,-14.2422 2.17,-26.3711 21.06,-26.3711" /><path
         id="path102"
         style="fill:#393536;fill-opacity:1;fill-rule:nonzero;stroke:none"
         d="m 1617.86,78.1484 c 0.15,0.8829 0.15,3.0821 0.15,3.9922 0,10.8711 -2.73,17.2578 -17.46,17.2578 -14.72,0 -19.46,-7.0468 -19.92,-21.25 z m -15.14,-34.0703 c 12.26,0 19.19,2.8711 23.51,5.2032 l 3.45,-9.1797 c -7.5,-4.5 -16.6,-6.5508 -29,-6.5508 -25.63,0 -32.75,12.2578 -32.75,37.3711 0,28.1172 10.54,37.9571 33.19,37.9571 24.08,0 28.56,-11.0001 28.56,-29.8477 0,-3.0118 -0.12,-7.7422 -0.42,-11.1094 h -48.76 c 0.45,-17.8828 5.92,-23.8438 22.22,-23.8438" /><path
         id="path104"
         style="fill:#393536;fill-opacity:1;fill-rule:nonzero;stroke:none"
         d="m 1660.98,67.2305 c -11.11,1.8593 -16.72,7.8515 -16.72,19.7187 0,14.8598 9.21,21.9298 28.84,21.9298 11.24,0 20.91,-2.051 24.37,-9.9493 1.44,-2.9883 1.87,-7.1602 1.87,-11.7891 l -11.39,-0.4687 c 0,2.3164 -0.28,4.6094 -1.58,7.0469 -1.32,2.9218 -5.04,4.871 -13.56,4.871 -13.4,0 -16.45,-4.1796 -16.45,-10.8593 0,-6.5 2.32,-8.4492 12.42,-10.1407 l 13.82,-2.289 c 13.14,-2.1797 18.19,-7.6602 18.19,-20.1289 0,-13.75 -7.94,-21.6211 -29.85,-21.6211 -14.43,0 -24.54,3.1211 -27.82,13.1797 -0.89,2.75 -1.32,6.1406 -1.47,9.25 l 11.4,0.5781 c 0.16,-2.5391 0.7,-5.1875 1.88,-7.0781 1.87,-3.3399 6.33,-5.5313 16.73,-5.5313 13.98,0 16.86,4.7422 16.86,10.9922 0,4.457 -1.16,7.3086 -11.51,9.5078 l -16.03,2.7813" /><path
         id="path106"
         style="fill:#2b3998;fill-opacity:1;fill-rule:nonzero;stroke:none"
         d="M 144.871,337.059 H 0 V 626.922 H 144.871 V 337.059" /><path
         id="path108"
         style="fill:#613b9f;fill-opacity:1;fill-rule:nonzero;stroke:none"
         d="M 144.871,626.918 H 0 v 72.473 h 144.871 v -72.473" /><path
         id="path110"
         style="fill:#98409b;fill-opacity:1;fill-rule:nonzero;stroke:none"
         d="M 144.871,699.391 H 0 v 72.367 h 144.871 v -72.367" /><path
         id="path112"
         style="fill:#a1e1f9;fill-opacity:1;fill-rule:nonzero;stroke:none"
         d="M 144.871,192.203 H 0 v 72.477 h 144.871 v -72.477" /><path
         id="path114"
         style="fill:#613b9f;fill-opacity:1;fill-rule:nonzero;stroke:none"
         d="M 144.871,264.68 H 0 v 72.383 H 144.871 V 264.68" /><path
         id="path116"
         style="fill:#f25c19;fill-opacity:1;fill-rule:nonzero;stroke:none"
         d="M 144.871,771.758 H 0 V 916.773 H 144.871 V 771.758" /><path
         id="path118"
         style="fill:#d23e7b;fill-opacity:1;fill-rule:nonzero;stroke:none"
         d="M 144.871,916.758 H 0 v 72.39 h 144.871 v -72.39" /><path
         id="path120"
         style="fill:#2b3998;fill-opacity:1;fill-rule:nonzero;stroke:none"
         d="M 325.938,554.406 H 181.199 V 699.391 H 325.938 V 554.406" /><path
         id="path122"
         style="fill:#98409b;fill-opacity:1;fill-rule:nonzero;stroke:none"
         d="M 325.938,699.391 H 181.199 v 72.367 h 144.739 v -72.367" /><path
         id="path124"
         style="fill:#a1e1f9;fill-opacity:1;fill-rule:nonzero;stroke:none"
         d="M 325.938,771.758 H 181.199 v 72.394 h 144.739 v -72.394" /><path
         id="path126"
         style="fill:#2b3998;fill-opacity:1;fill-rule:nonzero;stroke:none"
         d="M 507.105,482.008 H 362.25 V 699.391 H 507.105 V 482.008" /><path
         id="path128"
         style="fill:#613b9f;fill-opacity:1;fill-rule:nonzero;stroke:none"
         d="M 507.105,699.391 H 362.25 v 72.367 h 144.855 v -72.367" /><path
         id="path130"
         style="fill:#613b9f;fill-opacity:1;fill-rule:nonzero;stroke:none"
         d="M 507.105,409.57 H 362.25 v 72.438 H 507.105 V 409.57" /><path
         id="path132"
         style="fill:#d23e7b;fill-opacity:1;fill-rule:nonzero;stroke:none"
         d="M 507.105,771.758 H 362.25 v 72.394 h 144.855 v -72.394" /><path
         id="path134"
         style="fill:#f25c19;fill-opacity:1;fill-rule:nonzero;stroke:none"
         d="M 507.105,844.168 H 362.25 v 72.605 h 144.855 v -72.605" /><path
         id="path136"
         style="fill:#ed1c24;fill-opacity:1;fill-rule:nonzero;stroke:none"
         d="M 507.105,916.773 H 362.25 v 72.375 h 144.855 v -72.375" /><path
         id="path138"
         style="fill:#d23e7b;fill-opacity:1;fill-rule:nonzero;stroke:none"
         d="M 507.105,989.148 H 362.25 v 72.362 h 144.855 v -72.362" /><path
         id="path140"
         style="fill:#a1e1f9;fill-opacity:1;fill-rule:nonzero;stroke:none"
         d="M 507.105,1061.51 H 362.25 v 72.51 h 144.855 v -72.51" /></g></g></svg>