<?xml version="1.0" encoding="UTF-8"?>
<!-- Created with Inkscape (http://www.inkscape.org/) -->
<svg width="648" height="224.69" version="1.1" viewBox="0 0 648 224.69" xml:space="preserve" xmlns="http://www.w3.org/2000/svg" xmlns:cc="http://creativecommons.org/ns#" xmlns:dc="http://purl.org/dc/elements/1.1/" xmlns:rdf="http://www.w3.org/1999/02/22-rdf-syntax-ns#"><metadata><rdf:RDF><cc:Work rdf:about=""><dc:format>image/svg+xml</dc:format><dc:type rdf:resource="http://purl.org/dc/dcmitype/StillImage"/><dc:title/></cc:Work></rdf:RDF></metadata><g transform="matrix(1.3333 0 0 -1.3333 0 224.69)"><g transform="scale(.1)"><path d="m4860 429.09v1122.6c0 37.21-30.18 67.39-67.41 67.39h-3150.5c173.61-149.86 284.04-374.4 284.04-625.49 0-254.67-113.51-482.07-291.38-631.9h3157.8c37.23 0 67.41 30.172 67.41 67.391zm-4326.3 1190h-466.26c-37.219 0-67.398-30.18-67.398-67.39v-1122.6c0-37.219 30.18-67.391 67.398-67.391h473.6c-177.87 149.83-291.37 377.23-291.37 631.9 0 251.09 110.42 475.63 284.03 625.49" fill="#701341"/><path d="m2189.7 1365.3c0-40.14 7.12-60.56 29.44-60.56 23.52 0 29.7 23.52 29.7 60.56 0 34.21-5.23 61.28-29.7 61.28-26.36 0-29.44-29.68-29.44-61.28zm-26.37-0.71c0 53.92 18.77 82.18 56.06 82.18 36.57 0 55.57-26.85 55.57-82.18 0-54.15-18.75-80.75-55.57-80.75-37.06 0-56.06 26.12-56.06 80.75zm242.6 80.76h-92.64c-3.08 0-5.93-2.61-5.93-5.71v-11.64c0-3.08 2.85-5.46 5.93-5.46h33.74v-131.57c0-3.1 2.6-5.7 5.69-5.7h13.78c3.09 0 5.71 2.6 5.71 5.7v131.57h33.72c3.09 0 5.47 2.38 5.47 5.46v11.64c0 3.1-2.38 5.71-5.47 5.71zm46.27-22.81h33.71v-131.57c0-3.1 2.64-5.7 5.71-5.7h13.78c3.09 0 5.71 2.6 5.71 5.7v131.57h33.73c3.08 0 5.45 2.38 5.45 5.46v11.64c0 3.1-2.37 5.71-5.45 5.71h-92.64c-3.08 0-5.94-2.61-5.94-5.71v-11.64c0-3.08 2.86-5.46 5.94-5.46zm159.32-57.24c0-40.14 7.13-60.56 29.45-60.56 23.52 0 29.69 23.52 29.69 60.56 0 34.21-5.22 61.28-29.69 61.28-26.37 0-29.45-29.68-29.45-61.28zm-26.37-0.71c0 53.92 18.77 82.18 56.06 82.18 36.58 0 55.58-26.85 55.58-82.18 0-54.15-18.77-80.75-55.58-80.75-37.06 0-56.06 26.12-56.06 80.75zm297.89-74.11c0.96-3.07 4.04-5.21 7.13-5.21h18.05c3.08 0 6.17 2.14 7.13 5.21l42.52 148.46c0.93 3.33-0.96 6.41-4.52 6.41h-14.25c-3.81 0-6.18-2.14-7.13-5.94l-27.33-107.36c-1.89-7.6-3.55-20.17-4.98-31.11-0.94 10.94-3.08 23.51-4.98 31.11l-27.3 107.59c-0.98 3.8-3.58 5.71-7.39 5.71h-16.38c-3.56 0-5.45-3.08-4.51-6.64l43.94-148.23zm199.86 74.82c0 34.21-5.21 61.28-29.68 61.28-26.37 0-29.46-29.68-29.46-61.28 0-40.14 7.13-60.56 29.46-60.56 23.51 0 29.68 23.52 29.68 60.56zm-29.43-81.46c-37.07 0-56.07 26.12-56.07 80.75 0 53.92 18.77 82.18 56.07 82.18 36.56 0 55.57-26.85 55.57-82.18 0-54.15-18.77-80.75-55.57-80.75zm213.65 161.51h-12.11c-3.08 0-5.7-2.61-5.7-5.46l0.23-92.41c0-11.15 1.2-25.88 2.39-38.22-3.34 11.63-6.19 23.27-10.45 33.72l-40.14 98.1c-1.19 2.61-4.51 4.27-7.6 4.27h-22.32c-3.11 0-5.7-2.37-5.7-5.46v-149.16c0-2.86 2.59-5.46 5.7-5.46h12.58c3.08 0 5.7 2.6 5.7 5.46l-0.23 94.05c0 8.79-2.15 27.8-3.34 39.91 3.08-12.11 6.19-25.42 10.45-35.4l41.81-99.52c1.19-2.84 3.32-4.5 6.41-4.5h22.32c3.09 0 5.94 2.6 5.94 5.46v149.16c0 2.85-2.85 5.46-5.94 5.46zm262.76-67.69h-40.14c-3.09 0-5.7-2.62-5.7-5.7v-11.16c0-3.09 2.61-5.7 5.7-5.7h20.9v-46.8c-4.75-1.42-9.73-2.14-15.2-2.14-25.17 0-40.13 15.2-40.13 57.96 0 41.79 12.83 60.33 38.24 60.33 12.34 0 20.64-2.85 28.96-6.89 2.86-1.42 5.71 0 6.9 2.6l4.74 10.21c1.43 2.87 0.47 5.73-2.61 7.38-10.45 5.46-23.99 9.01-37.99 9.01-41.33 0-65.1-31.58-65.1-80.98 0-51.3 19.49-81.94 64.61-81.94 12.83 0 26.13 2.37 35.16 5.71 5.7 2.12 7.36 4.51 7.36 9.96v72.45c0 3.08-2.62 5.7-5.7 5.7zm124.1-93.82c34.2 0 52.24 18.04 52.24 51.07v104.74c0 3.57-2.36 5.7-5.7 5.7h-13.53c-3.56 0-5.94-1.9-5.94-5.7v-103.56c0-24.22-9.98-31.35-27.54-31.35-19.49 0-26.37 11.88-26.37 32.77v102.14c0 3.8-2.15 5.7-5.7 5.7h-13.77c-3.34 0-5.47-2.13-5.47-5.7v-104.74c0-32.31 16.62-51.07 51.78-51.07zm207.24 7.13v11.63c0 3.09-2.87 5.7-5.95 5.7h-56.04v50.82h48.44c3.11 0 5.94 2.63 5.94 5.95v9.98c0 3.08-2.83 5.45-5.94 5.45h-48.44v42.52h54.14c3.34 0 5.71 2.85 5.71 5.94v10.69c0 3.09-2.62 5.7-5.71 5.7h-73.63c-3.07 0-5.7-2.61-5.7-5.7v-148.68c0-3.1 2.63-5.7 5.7-5.7h75.53c3.08 0 5.95 2.6 5.95 5.7zm85.16 85.51h19c16.39 0 26.14 9.97 26.14 24.93 0 11.4-7.6 21.85-23.52 21.85h-21.62v-46.78zm-25.17-85.75v148.91c0 3.1 2.61 5.71 5.7 5.71h41.8c40.13 0 48.45-24.7 48.45-40.61 0-18.76-10.45-35.39-34.9-39.2 11.39-2.36 20.41-12.35 25.41-22.79 3.81-8.08 13.07-31.13 19.94-50.13 1.66-4.27 0.96-7.35-4.04-7.35h-17.33c-3.34 0-5.93 0.94-7.12 4.99-5.47 16.38-9.52 33.25-16.16 45.83-5.47 10.46-12.59 19.96-26.83 19.96h-9.75v-65.32c0-2.86-2.6-5.46-5.7-5.46h-13.77c-3.09 0-5.7 2.6-5.7 5.46zm166.38-5.46h14.73c3.08 0 5.7 2.6 5.7 5.7v148.68c0 3.09-2.62 5.7-5.7 5.7h-14.73c-3.1 0-5.7-2.61-5.7-5.7v-148.68c0-3.1 2.6-5.7 5.7-5.7zm143.36-1.43c13.07 0 22.81 2.62 31.11 6.89 2.15 0.94 3.58 3.8 2.15 6.88l-5.23 11.41c-0.94 2.36-3.79 3.33-6.64 2.14-4.75-2.14-12.83-4.52-18.54-4.52-23.02 0-38.71 16.86-38.71 59.14 0 42.05 14.73 58.91 38.71 58.91 6.66 0 12.35-1.67 17.58-4.04 3.09-1.43 5.47-0.49 6.88 2.13l5 9.74c1.66 3.09 0.48 6.19-2.37 7.85-8.79 5.22-19.72 6.39-28.98 6.39-38.48 0-63.42-31.58-63.42-80.74 0-52.97 23.52-82.18 62.46-82.18zm164.94 1.44h19.26c4.02 0 5.45 2.84 3.07 6.64l-51.06 81.94 46.31 64.85c1.9 2.84 1.68 6.64-3.09 6.64h-18.04c-3.58 0-5.71-0.95-7.6-3.8l-41.82-63.41v61.5c0 3.1-2.59 5.71-5.68 5.71h-13.79c-3.08 0-5.7-2.61-5.7-5.71v-148.91c0-2.86 2.62-5.45 5.7-5.45h13.79c3.09 0 5.68 2.59 5.68 5.45v77.66l44.91-78.84c1.89-3.34 4.51-4.27 8.06-4.27zm79.08-0.01h75.55c3.09 0 5.94 2.6 5.94 5.7v11.63c0 3.09-2.85 5.7-5.94 5.7h-56.05v50.82h48.43c3.11 0 5.96 2.63 5.96 5.95v9.98c0 3.08-2.85 5.45-5.96 5.45h-48.43v42.52h54.14c3.34 0 5.7 2.85 5.7 5.94v10.69c0 3.09-2.62 5.7-5.7 5.7h-73.64c-3.08 0-5.68-2.61-5.68-5.7v-148.68c0-3.1 2.6-5.7 5.68-5.7zm-1451.9-168.9h-22.38c-5.98 0-9.71-3.36-11.21-9.32l-42.93-168.73c-2.97-11.953-5.59-31.726-7.83-48.914-1.49 17.188-4.85 36.961-7.86 48.914l-42.91 169.1c-1.5 5.96-5.6 8.95-11.58 8.95h-25.74c-5.61 0-8.59-4.86-7.09-10.46l69.04-232.92c1.51-4.851 6.35-8.203 11.19-8.203h28.38c4.85 0 9.71 3.352 11.19 8.203l66.84 233.31c1.48 5.21-1.5 10.07-7.11 10.07zm-279.04 0h-23.15c-4.84 0-8.94-4.11-8.94-8.95v-233.68c0-4.855 4.1-8.957 8.94-8.957h23.15c4.86 0 8.96 4.102 8.96 8.957v233.68c0 4.84-4.1 8.95-8.96 8.95zm1127.4-242.62v233.68c0 4.84-4.12 8.95-8.96 8.95h-23.15c-4.86 0-8.96-4.11-8.96-8.95v-233.68c0-4.855 4.1-8.957 8.96-8.957h23.15c4.84 0 8.96 4.102 8.96 8.957zm-410.12 173.58c0 17.91-11.95 34.34-36.95 34.34h-33.97v-73.54h29.87c25.74 0 41.05 15.67 41.05 39.2zm56.74-170.97c2.62-6.719 1.49-11.563-6.35-11.563h-27.24c-5.24 0-9.34 1.485-11.21 7.832-8.58 25.762-14.93 52.258-25.37 72.043-8.6 16.422-19.79 31.356-42.19 31.356h-15.3v-102.64c0-4.484-4.12-8.586-8.96-8.586h-21.64c-4.86 0-8.97 4.102-8.97 8.586v234.05c0 4.84 4.11 8.95 8.97 8.95h65.68c63.09 0 76.16-38.82 76.16-63.82 0-29.5-16.43-55.621-54.89-61.61 17.93-3.718 32.11-19.414 39.94-35.828 6-12.687 20.55-48.886 31.37-78.761zm79.59-2.977c15.66-5.969 39.18-10.82 60.84-10.82 51.88 0 82.5 30.215 82.5 73.894 0 39.571-22.77 56.731-49.3 69.062l-20.13 9.33c-19.81 9.34-36.58 16.82-36.58 36.59 0 20.52 12.32 32.84 36.58 32.84 16.79 0 26.85-3.74 38.81-7.84 4.86-1.49 8.96 1.12 10.07 5.62l4.11 16.78c1.13 4.49-0.38 9.32-4.85 10.83-12.69 4.48-30.99 8.95-48.9 8.95-47.78 0-76.16-29.49-76.16-69.06 0-36.2 20.92-51.891 44.07-62.711l15.29-7.09c23.14-10.82 46.29-20.898 46.29-46.277 0-23.137-17.91-35.461-42.54-35.461-18.67 0-35.84 5.586-50.02 10.82-5.24 1.867-10.08-0.75-11.21-5.594l-4.47-18.664c-1.12-4.48 0.74-9.343 5.6-11.199zm-352.73 27.617h-88.09v79.875h76.13c4.87 0 9.36 4.117 9.36 9.344v15.67c0 4.86-4.49 8.59-9.36 8.59h-76.13v66.82h85.1c5.23 0 8.96 4.47 8.96 9.32v16.81c0 4.84-4.1 8.95-8.96 8.95h-115.7c-4.85 0-8.97-4.11-8.97-8.95v-233.68c0-4.855 4.12-8.957 8.97-8.957h118.69c4.86 0 9.33 4.102 9.33 8.957v18.301c0 4.832-4.47 8.945-9.33 8.945zm1309.7 215.38h-145.56c-4.87 0-9.36-4.11-9.36-8.95v-18.3c0-4.85 4.49-8.59 9.36-8.59h52.99v-206.78c0-4.855 4.12-8.957 8.96-8.957h21.64c4.86 0 8.97 4.102 8.97 8.957v206.78h53c4.87 0 8.6 3.74 8.6 8.59v18.3c0 4.84-3.73 8.95-8.6 8.95zm-258.69 19.8c12.33 0 22.01 10.06 22.01 22.36 0 12.34-10.05 21.67-22.38 21.67-11.56 0-21.29-9.33-21.29-21.67 0-12.3 9.73-22.36 21.66-22.36zm-97.79 22.36c0-12.3 9.69-22.36 21.64-22.36 12.32 0 22.01 10.06 22.01 22.36 0 12.34-10.06 21.67-22.38 21.67-11.58 0-21.27-9.33-21.27-21.67zm-1988.8-211.63v160.52c0 5.96-3.35 8.95-8.96 8.95h-21.64c-5.22 0-8.58-3.36-8.58-8.95v-164.63c0-50.742 26.11-80.234 81.37-80.234 53.75 0 82.13 28.367 82.13 80.234v164.63c0 5.59-3.74 8.95-8.97 8.95h-21.27c-5.6 0-9.34-2.99-9.34-8.95v-162.76c0-38.066-15.67-49.269-43.3-49.269-30.62 0-41.44 18.671-41.44 51.504zm339.08-75.028c1.88-4.465 5.24-7.082 10.08-7.082h35.1c4.86 0 9.31 4.102 9.31 8.586v234.42c0 4.47-4.45 8.58-9.31 8.58h-19.05c-4.84 0-8.94-4.11-8.94-8.58l0.37-145.21c0-17.547 1.86-40.691 3.73-60.098-5.23 18.293-9.71 36.594-16.43 53.008l-63.08 154.17c-1.88 4.11-7.09 6.71-11.95 6.71h-35.09c-4.85 0-8.95-3.73-8.95-8.58v-234.42c0-4.484 4.1-8.586 8.95-8.586h19.77c4.87 0 8.97 4.102 8.97 8.586l-0.37 147.82c0 13.81-3.36 43.67-5.24 62.71 4.87-19.04 9.73-39.94 16.45-55.62l65.68-156.41zm1556.5 244.5h-145.56c-4.87 0-9.36-4.11-9.36-8.95v-18.3c0-4.85 4.49-8.59 9.36-8.59h52.99v-206.78c0-4.855 4.12-8.957 8.96-8.957h21.66c4.85 0 8.95 4.102 8.95 8.957v206.78h53c4.87 0 8.6 3.74 8.6 8.59v18.3c0 4.84-3.73 8.95-8.6 8.95zm183.11-153.79-25.76 98.179c-2.62 10.08-4.1 25-5.61 35.08-1.11-10.43-2.99-24.63-5.58-35.08l-24.26-98.179h61.21zm68.3-87.351c1.88-5.598-1.11-10.442-6.72-10.442h-26.11c-5.24 0-10.1 3.352-11.58 8.203l-14.94 55.254h-78.75l-14.2-55.254c-1.12-4.851-5.59-8.203-10.82-8.203h-24.26c-5.61 0-8.22 4.844-6.72 10.442l66.82 232.56c1.5 5.22 6.71 8.58 11.58 8.58h32.83c4.86 0 9.34-2.99 11.21-8.58l71.66-232.56zm-346.5-88.606h-21.29c-5.59 0-9.32-2.976-9.32-8.953v-162.73c0-38.082-15.68-49.281-43.3-49.281-30.62 0-41.44 18.66-41.44 51.512v160.5c0 5.977-3.36 8.953-8.95 8.953h-21.66c-5.23 0-8.59-3.367-8.59-8.953v-164.6c0-50.781 26.13-80.269 81.38-80.269 53.75 0 82.11 28.371 82.11 80.269v164.6c0 5.586-3.71 8.953-8.94 8.953zm537.61-106.38h-63.08c-4.85 0-8.97-4.098-8.97-8.949v-17.57c0-4.829 4.12-8.942 8.97-8.942h32.85v-73.527c-7.46-2.242-15.31-3.371-23.89-3.371-39.57 0-63.08 23.89-63.08 91.082 0 65.711 20.15 94.832 60.09 94.832 19.42 0 32.49-4.504 45.55-10.832 4.47-2.254 8.95 0 10.82 4.093l7.46 16.055c2.25 4.473 0.75 8.945-4.1 11.57-16.42 8.567-37.69 14.18-59.73 14.18-64.96 0-102.28-49.648-102.28-127.28 0-80.629 30.61-128.79 101.52-128.79 20.18 0 41.08 3.75 55.26 8.969 8.96 3.351 11.58 7.082 11.58 15.671v113.86c0 4.851-4.12 8.949-8.97 8.949zm-302.01 37.324c0 17.93-11.93 34.356-36.95 34.356h-33.97v-73.528h29.87c25.76 0 41.05 15.657 41.05 39.172zm56.74-170.96c2.62-6.707 1.49-11.558-6.35-11.558h-27.24c-5.24 0-9.34 1.5-11.21 7.832-8.58 25.769-14.93 52.269-25.38 72.058-8.57 16.411-19.78 31.34-42.18 31.34h-15.3v-102.64c0-4.5-4.1-8.59-8.96-8.59h-21.64c-4.86 0-8.97 4.09-8.97 8.59v234.03c0 4.863 4.11 8.953 8.97 8.953h65.7c63.07 0 76.13-38.816 76.13-63.816 0-29.504-16.42-55.629-54.86-61.61 17.91-3.718 32.09-19.398 39.92-35.828 6-12.68 20.55-48.898 31.37-78.762zm-589.53 64.204c0 22.789-16.43 40.699-44.43 40.699h-36.22v-81.742h42.56c23.52 0 38.09 15.671 38.09 41.043zm-80.65 72.046h32.86c25.76 0 38.82 14.188 38.82 35.457 0 22.02-11.93 35.098-36.58 35.098h-35.1v-70.555zm123.19-76.886c0-45.172-27.62-70.922-75.41-70.922h-78.38c-4.84 0-8.97 4.09-8.97 8.59v234.03c0 4.863 4.13 8.953 8.97 8.953h74.3c43.28 0 68.67-26.863 68.67-63.816 0-26.485-12.31-44.797-41.06-54.129 33.97-5.598 51.88-31.348 51.88-62.707zm-1361.8 180.65h-42.25c-4.68 0-9.76-3.367-10.93-7.449l-48.75-171.09c-2.34-9.25-3.82-25.07-4.93-37.859-1.12 12.789-2.6 28.609-4.94 37.859l-48.74 171.09c-1.17 4.082-6.25 7.449-10.93 7.449h-42.4c-5.08 0-9.38-3.73-9.38-8.562v-234.42c0-4.5 4.3-8.59 9.38-8.59h19.14c4.7 0 8.99 3.73 9.38 8.59l-0.6 156.68c-0.1 8.965-1.9 41.758-2.45 51.848 3.05-12.941 7.41-35.09 11.41-51.406l46.11-157.12c1.17-5.219 5.86-8.59 10.94-8.59h26.06c5.08 0 9.76 3.371 10.94 8.59l46.2 157.12c4 16.316 8.36 38.465 11.41 51.406-0.55-10.09-2.34-42.883-2.44-51.848l-0.6-156.68c0.39-4.86 4.68-8.59 9.37-8.59h19c5.07 0 9.37 4.09 9.37 8.59v234.42c0 4.832-4.3 8.562-9.37 8.562zm789.81-126.52c0 39.926-5.59 61.586-16.8 76.137-8.96 11.563-23.52 17.168-39.57 17.168h-24.63v-184.03h23.89c36.58 0 57.11 15.68 57.11 90.726zm41.81 2.231c0-79.899-21.64-127.29-92.57-127.29h-60.84c-4.85 0-8.95 4.09-8.95 8.961v233.66c0 4.863 4.1 8.953 8.95 8.953h59.35c53.01 0 94.06-28.359 94.06-124.28zm-290.58 17.91h-63.07c-4.86 0-8.96-4.098-8.96-8.949v-17.57c0-4.829 4.1-8.942 8.96-8.942h32.83v-73.527c-7.46-2.242-15.29-3.371-23.88-3.371-39.57 0-63.09 23.89-63.09 91.082 0 65.711 20.16 94.832 60.1 94.832 19.41 0 32.48-4.504 45.54-10.832 4.48-2.254 8.97 0 10.83 4.093l7.46 16.055c2.24 4.473 0.74 8.945-4.11 11.57-16.42 8.567-37.69 14.18-59.72 14.18-64.94 0-102.27-49.648-102.27-127.28 0-80.629 30.61-128.79 101.53-128.79 20.15 0 41.05 3.75 55.25 8.969 8.94 3.351 11.56 7.082 11.56 15.671v113.86c0 4.851-4.1 8.949-8.96 8.949zm-304.22-47.41-25.76 98.18c-2.6 10.078-4.1 25.011-5.59 35.089-1.13-10.46-2.99-24.648-5.6-35.089l-24.26-98.18h61.21zm68.32-87.34c1.85-5.598-1.13-10.449-6.72-10.449h-26.13c-5.24 0-10.1 3.371-11.58 8.211l-14.93 55.25h-78.77l-14.18-55.25c-1.13-4.84-5.6-8.211-10.82-8.211h-24.27c-5.59 0-8.21 4.851-6.72 10.449l66.83 232.56c1.49 5.195 6.72 8.562 11.57 8.562h32.85c4.84 0 9.33-2.976 11.19-8.562l71.68-232.56zm771.48 16.789v-18.277c0-4.871-4.49-8.961-9.35-8.961h-118.69c-4.85 0-8.97 4.09-8.97 8.961v233.66c0 4.863 4.12 8.953 8.97 8.953h115.72c4.84 0 8.96-4.09 8.96-8.953v-16.797c0-4.844-3.73-9.328-8.96-9.328h-85.12v-66.816h76.15c4.85 0 9.34-3.731 9.34-8.579v-15.679c0-5.211-4.49-9.321-9.34-9.321h-76.15v-79.89h88.09c4.86 0 9.35-4.11 9.35-8.973" fill="#fff"/><path d="m1776.7 946.85c0.91 90.218-53.91 59.928-72.53 105.85-17.67 43.59 14.8 86.65-21.93 117.91-13.11 11.14-24.93 11.48-39.59 20.77-39.11 24.72-68.05 58.6-83.07 82.54-14.58 23.21 1.13 46.49-13.8 70.71-7.93 12.87-20.1 15.39-26.12 29.16-6.12 13.96 7.11 27.2-2.98 38.66-16.87 19.19-32.77 34.46-46.43 77.49-41.48 130.77-94.67 113.79-106.28 121.29-31.94 20.68-87.1 45.75-127.49 56.47-47.4 12.59-75.9 16.68-112.36 17.44-56.73 1.17-67.76-18.44-76.31-17.7-111.29 9.56-162.73-24.67-227.2-56.99-80.269-40.23-124.01-112.71-144.4-178.31-10.133-32.59-19.293-50.5-31.07-84.15-7.371-20.83-19.84-34.7-37.34-44.02-15.902-8.47-26.922-17.55-48.75-18.31-18.613-0.66-42.871-10.62-47.871-20.66l1.25-36.21s10.508 3.13 27.691 19.02c13.34 12.33 25.125-0.7 55.219-4.41 70.539-2.27 109.11 41.38 113.23 50.63 6.031 12.88-0.067 48.27 7.832 54.08l11.32 0.4c-2.617-21.19 1.5-46.37-15.391-69.37-21.187-28.86-49.918-36.4-57.75-39.2-45.707-16.36-70.078-9.86-93.008-6.95-26.461 3.38-1.91-38.04-77.39-29.85-25.391 2.74-51.301-20.21-51.996-41.39-0.754-22.67 1.605-108.33 4.113-114.13l37.09-32.48s-8.36 42.16 19.543 30.08c38.988-16.88 106.16-0.69 112.47 4.27-14.122-13.16-16.079-27.81-26.938-41.64-24.082-29.319-73.301-45.893-61.391-99.018 24.789-110.68-26.777-105.06-26.777-105.06-32.316-1.113-56.086 44.766-56.086 44.766l2.344-48.953c-0.438-25.285 48-82.121 81.473-68.234l21.964-42.95c79.18-12.961 0.602-73.121 1.371-95.261l32.915-69c1.699 5.64 5 72.918 37.507 70.089 30.536-2.652 33.411-30.441 33.411-30.441-56.032-42.09 11.687-111.54 51.589-132.68 0 0 4.993 9.071 14.008 10.942-19.691 7.23-32.168 21.929-28.34 35.668 3.922 14.109 6.903 11.75 18.461 15.41 14.668 4.652 18.602 0.641 32.129 7.449 14.403 7.242 19.563-13.098 32.711-9.137 9.789 2.938 24.75 15.45 38.649 24.789-24.571-31.761-45.957-77-92.387-138.87-9.02-12.027-9.828-108.25-5.172-200.97l0.809-15.161c4.23-74.261 11.921-143.13 21.632-160.58 1.196-2.1289-6.23-3.1797 41.852 69.152l11.719 18.059c51.726 81.911 124.55 180.96 194.01 245.07l15.629 97.39c3.871-0.8 8.016-1.242 12.306-1.101l-10.798-96.207c20.578-5.672 57.938-55.41 155.57-174.52l17.12-20.886c55.54-67.641 122.9-140.94 126.12-135.98 18.74 28.848 233.65 385.99 233.65 385.99s-63.14 89.243-81.83 148.16c22.98 22.57 21.37 0.66 81.35-38.348 46.42-30.203 64.86-2.481 64.86-2.481s-43.11 25.481-43.23 51.2c-0.31 56.839 23.03 54.929 35.14 53.347 28.74-3.718 15.35-29.488 15.35-29.488l30.27 0.281s9.9 5.867 13.04 12.289c21.97 44.981-76.81 69.508-92.95 83.649-16.37 14.332-6.54 42.429-6.54 42.429 51.01-62.988 83.29-47.648 135.79-33.179l53.65 54.008c-56.98-6.727-118.4-57.758-162.43 73.32l10.83 9.785c25.98-46.66 54.08-64.559 88.16-66.531l80.13 83.554c-93.29-64.972-86.6 55.458-86.6 55.458 95.39 4.914 115.07 43.05 115.26 61.789zm-1163.4-151.93c1.383-39.5-35.918-61.375-69.887-62.567 0 0-0.953 3.914-4.273 6.192 33.968 1.179 68.582 18.992 67.203 58.504 0 0 6.851 1.035 6.957-2.129zm403.48-448.66 9.22 68.96c284.57 33.329 337.25 189.57 337.25 189.57s16.56 26.289 19.32 17.828c39.67-121.95 112.13-229.89 112.13-229.89l-210.44-352.34c-11.34 13.23-243.02 294.87-267.48 305.87zm-186.79 163.49c20.324-61.981 94.57-69.981 117.38-78.563 7.664-2.89 20.008-2.429 20.008-2.429l-12.211-78.399c-155-175.87-218.5-300.44-218.5-300.44-22.289 103.28-13.168 310.24-13.168 310.24s57.051 81.398 106.5 149.59zm57.812 16.066c0.368-10.519 2.207-17.238 0.969-27.84-2.637 6.703-10.379 21.5-10.379 21.5 1.578 0.813 7.36 19.09 7.278 21.34 2.66 15.91 7.793 29.652 20.492 33.871-1.371-6.82-6.289-11.277-12.012-23.758-5.965-13.043-6.719-14.562-6.348-25.113zm611.23 325.09c-24.22-2.422-37.87 17.664-37.87 17.664-30.54-53.289-59.26-19.473-59.26-19.473 0.17 38.008-48.32-193.05-55.7-228.48-13.87-26.262-65.97-120.7-226.52-168.58l5.94 3.18c13.69 7.851 17.94 19.551 27.54 33.312 8.35 11.938 15.44 17.867 19.76 31.578 0.91 2.832-2.34 7.832-6.1 14.09 7.21 0.281 30.58 20.672 37.54 27.699 20.95 21.063 38.98 33 57.49 54.743 23.88 28.711 45.8 44.539 63.26 73.023 12.14 20.02 16.42 35.242 19.57 60.203 5.14 36.348 21.19 82.121 23.06 120.62-12.09-21.515-17.16-36.769-21.4-53.496-7.09-26.621-8.14-42.48-15.32-66.836-7.18-24.375-9.73-43.281-25.16-61.152-13.09-15.531-27.15-26.551-42.01-37.629-42.15-31.93-69.6-80.109-128.55-92.383-28.89 21.532-65.43 43.121-75.51 41.871 0 0-13-3.609-20.91-3.89l-3.33-20.688s11.68-4.711 11.41-1.961c-1.25 12.61 10.02 13.5 9.46 7.442-0.6-6.364 9.69-45.551-6.62-65.903-2.94-3.668 1.37 53.852-16.2 46.922l-6.37-26.34-8.09-0.269s1.43 5.566 0.84 22.156c-0.55 16-5.28 29.563-30.016 42.141-5.238 2.679-5.57-32.348-10.621-38.008l-18.328-8.563c-3.367 11.5-8.207 26.633-2.551 26.813 17.063 0.59 9.332 14.84 13.704 25.019 2.808 6.508 7.656 8.29 6.546 16.961-4.437 34.59 0.653 77.774-5.007 77.579-4.743-0.157-8.672-2.637-12.161 0.371-3.621 3.113-0.41 11.843-0.41 11.843-17.738-2.207-10.32-75.515-10.32-75.515-7.406-10.379-22.91-20.75-30.277-28.18 0 0-5.461-4.211-6.621-3.68-20.833 0.161-42.075-35.238-42.075-35.238-7.957-1.793-35.715 47.84-36.945 46.93-3.781 16.437 3.398 5.34-9.492 40.969-1.996 13.48-16.817 68.015-18.934 71.171-29.515 29.883-26.164 162.09-38.914 195.28-7.64 19.894-34.394 26.457-37.058 49.941-4.704 41.376 2.183 59.486 9.464 96.776 2.071 10.66 0.293 17.61 5.461 27.31 5.961 11.2 12.52 20.44 25.789 21.03 12.09 0.54 14.649-11.31 24.903-17.33 8.84-5.21 12.84-11.49 23.109-12.64 37.399-4.24 33.75 7.51 33.75 7.51l18.27 10.13c-5.801 3.75-15.157-2.83-24.993-3.24-11.105-0.47-17.929-1.28-28.406 2.17-10.734 3.52-30.898 10.18-22.48 17.41 5.859 5.03 9.226-9.17 20.277-0.88 0 0-17.91 15.25-12.289 27.25-3.57 3.61 1.742 8.53 6.082 11.3 3.75 2.4 8.086 2.66 11.242 2.77 0 0-4.523-16.62-0.703-26.14 4.32-10.79 12.25-16.1 24.141-18.93 7.347-1.75 12.218-0.9 19.386 1.47 10.524 3.48 18.352 7.76 20.395 18.91 1.238 6.78 0.43 11.09 2.629 17.5 0 0 6.828-10.05 13.516-16.15 4.214-3.83-0.098-9.3 2.925-14.14 2.075-3.32 4.41-4.86 8.305-6.03 5.453-1.64 10.035-1.29 19.195 6.99 1.598 3.07 2.61 4.6 0.508 8.73-4.351 8.55-10.238-8.27-39.848 27.87-6.699 8.18-14.273 9.12-24.703 11.8-12.539 3.21-19.582 4.06-33.269 2-3.629-1.28-4.442 0.25-8.34 6.84 0 0 3.316 4.15 6.281 5.75 16.52 8.96 39.707-0.99 48.36 6.44-13.051 2.71-6.879 5.72-12.383 6.68-18.739 3.31-13.828 1.9-42.949 0.88 0 0-16.899-2.97-27.11-12.03-8.922-7.91-19.512-21.26-19.512-21.26-3.914-2.09-7.168 6.26-8.359 7.64 0 0 9.524 22.07 20.734 32.35 11.54 10.59 22.207 13.45 35.754 19.46 12.215 5.41 20.973-1.27 34.145-3.55 14.379-2.49 20.445-5.62 35.98-9.82 10.551-2.86 8.981-15.92 19.321-19.9 2.691-1.04 5.211 0.55 7.328-1.33 2.398-2.11 1.558-5.52-0.531-7.93-4.516-5.21-11.231 1.05-17.93 3.33-3.91 1.32-4.981 4.64-9.098 5.22-2.82 0.4-4.414-0.68-7.238-1.04-9.703-1.23 12.414-8.51 19.148-15.16 7.969-7.87 6.86-18.7 17.789-22.32 5.09-1.68 9.227 1.59 13.797-1.11 5.602-3.28 5.629-8.61 6.192-14.8 0.23-2.6 0.324-4.91 0.164-7.08-0.504-17.87-13.504-23.72-17.024-27.48-12.379-13.25-5.57-70.28-3.902-95.07 0 0-31.766-55.367-9.926-83.234 6.738-8.602 6.719-8.797 24.926-24.734 0 0-12.957-37.571-22.664-39.973-8.902 1.945-57.652-15.332-67.723-48.836l-1.293-9.082c0.121-3.461-25.086-5.156-43.75 12.019-5.156 4.747-8.828-34.453-0.847-56.035 3.57-10.418 9.062-29.804 36.101-22.84 9.219 0.567 28.352 4.247 34.899 11.778 1.672-1.68 45.859-26.301 64.3-25.645 24.047 0.84 33.676 15.75 33.563 19.2 0 0-9.742 0.437-21.031-0.743-39.172-4.113-36.25 17.735-36.25 17.735 15.058 9.218 16.601 11.425 34.988 8.672 14.742-2.239 16.969-3.196 25.898-7.676 1.774-0.227 6.555-0.227 8.864 0.594 11.89 4.171 24.452 12.148 52.212 7.394 6.33-1.066 28.16-15.07 51.44-6.074l-6.69 2.812 12.05-0.332-5.36-2.48c12.95-4.953 7.08 1.406 22.45 0.75 20.27-0.867 12.13-46.25 62.1-38.973 22.53 3.289 18.1 84.492 18.1 84.492l-10.53-0.363c0.17-27.683-8.74-46.23-15.98-46.844-16.15-1.367-16.18 17.246-49.06 31.133 0 0-11.25 14.336 4.19 12.5 12.21-1.445 13.4-23.683 43.92-16.535l0.23 24.746c-46.12-1.609-45.74 41.77-95.03 40.949-16.64-0.273 5.36-14.054-14.84-15.547-13.72-1.015-6.34 7.579-30.27 3.727-6.44-1.043-16.93 15.148-15.46 25.266 1.39 9.504 10.48 2.922 12.54 12.304 0 0-11.55 33.868 11.18 32.305 10.98-0.77 31.08-32.156 41.95 4.621 5.71 0.242-4.91 1.406-4.91 1.406-2.82 2.567-2.02-12.023-11.07-7.5-14.84 7.391-9.39 13.914-32.81 11.508-34.032-3.492-24.2-36.976-33.747-30.445-50.609 34.629-72.328 53.644-41.207 113.28l4.461-11.718c-2.051 35.538-6.551 94.718 0.926 112.38 3.183 7.51 4.453 21.68 6.273 32.72 5.797 35.11 5.5 76.01-6.98 80.39-38.949 13.67-29.539 49.67-69.821 54.3l-73.757-2.13s-10.344 42.14 37.75 56.48c0 0-5.614 56.83 10.449 71.56 12.562 11.52 35.648-0.35 26.238 37.31-1.711 6.83-6.277 6.45-10.09 10.72-8.879 9.96-13.109 4.3-21.968 26.14-5.661 13.94 26.277 35.72 26.277 35.72 112.4-18.22 150.41 79.35 150.41 79.35 41.71-75.21 134.93-66.83 134.93-66.83 22.5-0.73 46.6-1.39 68.37-27.76 14.95-18.08 18.02-31.49 41.67-43.75 24.52-12.7 44.82 3.08 44.82 3.08-25.74 2.11-43.78 16.02-54.75 37.46-39.73 77.65-77.99 73.23-88.8 70.04 9.63 4.49 8.94 14.13 43.16 9.54 49.73-6.67 74.05-90.17 106.02-94.24 48.81-6.22 47.55-14.79 36.15-59.5-14.25-55.89-16.81-107.06-0.45-172.48 9.9-39.7 38.77-55.77 42.23-96.63 5.51-64.69-22.41-84.99-1.11-153.52 14.6-46.945-9.46-100.01 43.24-125.07l6.19 8.137c-51.19 28.261-18.71 72.128-18.71 72.128-0.53-77.55 62.78-81.671 62.78-81.671-20.98 14.277-4.12 25.168-4.12 25.168 27.23 8.855 42.27-40.586 8.02-44.024zm-532.27-23.703c8.551 8.906 3.45 16.203 9.086 15.383 7.282-1.055 12.164-14.895 12.164-14.895s0.45-5.672 9.278-13.828c9.435-8.691 36.905-9.98 49.535-15.762l26.21-30.078c-12.54 1.602-23.03 7.832-31.21 12.571-36.55 23.046-63.192-5.977-63.192-5.977-24.062 22.527-34.3 16.902-77.652-5.715-12.004-6.258-19.391 3.84-7.422 5.774 3.34 1.718 16.715 27.527 25.84 29.765 14.332 3.516 35.012 9.883 47.363 22.762zm-134.17 320.31s8.133-3.28 10.79-7.53c1.695-2.69 1.894-7.85 1.894-7.85-4.273-6.48-20.492 7.21-12.684 15.38zm37.313-1.85-4.492-10.44-0.363 10.26 4.855 0.18zm445.59 26.78c0.87-3.15-16.37 28.14-23 36.71-9.9 12.47-14.77 12.38-23.85 24.08-4.98 7.02-13.23 29.69-21.91 30.32-26.75 1.87-44.79-14.15-58.54-15.2-7.44-0.57 5.52 8.79 5.52 8.79 2.31 7.17-47.1 9.42-47.1 9.42s-36.42 0.11-38.58-16.53l0.1-6.33 30.3-5.05c13.01-3.72 15.36 1.07 30.77-1.02l28.32 0.53 25.12 7.57 13.37-1.24c4.05 0.07 7.95-5.6 9.49-8.61 9.2-18.01 18.83-20.17 32.5-33.35 26.02-25.06 26.24-35.04 37.49-30.09zm-202.27 57.12c-7.29 0.66-12.65-18.42-31.23-20.35-24.96-2.58-34.28 16.77-42.63 33.22 0.78 1.6-2.71 16.55-3.55 18.12l-6.42-3.28c0.43-26.09 10.64-56.74 36.68-64.96l0.37-22.13 8.07 0.94c3.23 0.06 3.88 10.35 7.02 16.74 0.77 1.58 11.16 9.68 19.24 11.42 11.29 1.8 24.21 4.41 39.58 4.69l-0.16 9.49-18.61-0.36-6.52 3.06 3.88 9.56c-0.83 1.56-3.31 3.63-5.72 3.84zm-48.01-250.35-7.28-0.243c0.5-4.757 1.99-7.246 3.66-11.738 2.53-6.847-2.88-10.39 9.46-16.289l0.78-22.129 6.96-0.136-1.01 29.226-6.13-0.613-6.44 21.922zm14.99 140.61c0.06-3.17-0.68-7.13 0.2-11.87l17.82-0.46-2.53 6.29s0.74 3.97 0.7 6.34l7.23 3.29c9.73-1.39 13.68-22.56 33.86-19.01 0.8 0.14-0.47 6.98-0.47 6.98-18.69 3.61-19.66 13.87-19.66 13.87 13.41 21.6 36.07 22.02 36.13 18.06l-2.27-9.53c0.35-21.34 5.51-40.22 30.6-39.75 17.79 0.32 32.21 10.08 36.82 25.18 4.07-2.28 7.73-7.36 9.9-12.47 3.37-7.83 0.16-8.68 0.25-15.02 0.05-2.37-9.67-1.75-6.27-12.76l12.16-0.57 9.47 15.21c-0.32 19.75-21.05 50.21-42.24 57.73-6.5 2.26-17.1 6.81-29.24 7.37l-25.89-0.48c-7.27-0.92-17.68-8.23-17.68-8.23-12.53-3.32-11.51 10.84-11.51 10.84 5.55 7.52 6.32 9.61 28.86 16.37l29.93 2.13c-1.35 2.51 1.78 8.73 1.78 8.73-55.84-0.25-73.25-23.97-76.75-27.51-1.6-1.61-11.11-13.66-11.07-16.03 0.01-0.79 10.56-2.17 10.56-2.17l3.13 6.37c4.06-0.7 9.71 0.19 9.77-3.77 0.15-9.49-7.19-5.66-7.01-16.73l-6.47-0.12c-9.71-0.18-20.29 2.78-20.11-8.28zm115.45 8.35-15.36-0.27-0.14 8.68 15.36 0.28 0.14-8.69zm-29.09 7.48s-3.58-28.54 22.27-25.68l-4-3.25c-26.68-2.07-22.26 25.7-18.27 28.93zm-25.44-45.43-16.8-0.29 0.12-7.1 11.33 0.2 0.18-10.42 6.47 0.12-1.3 17.49zm99.82 50.76c12.22-55.13 48.67-56.83 48.67-56.83l7.02 7.4s-36.45 1.7-48.69 56.82c-2.96-1.67-7-7.39-7-7.39zm65.5 3.58c-0.1 6.33-0.94 7.89-1.87 15l-5.55-6.43c-3.71 1.14-9.11 14.97-13.82 20.33l-10.06-1.77c4.25-12.57 18.98-16.27 15.91-26.62-0.5-1.7 10.59-3.76 15.39-0.51zm-267.98-419.44c-0.1 2.351-5.73 1.375-8.15 1.297-3.24-0.117-4.44-7.606-7.09-5.789-6.63 4.511-14.16 11.367-14.49 20.847l-20.227-0.711c-0.187 5.528-12.785 2.118-10.918-5.363 2.418 0.086 11.95-0.926 11.903 0.656 8.406-9.199 17.342-9.679 20.792-15.89 5.19-9.317 2.31-19.707 9.75-24.168 1.77 19.043 18.9 15.672 18.43 29.121" fill="#231f20"/></g></g></svg>
