<?xml version="1.0" encoding="UTF-8"?>
<!-- Created with Inkscape (http://www.inkscape.org/) -->
<svg width="482.41" height="353.21" version="1.1" viewBox="0 0 482.41 353.21" xml:space="preserve" xmlns="http://www.w3.org/2000/svg" xmlns:cc="http://creativecommons.org/ns#" xmlns:dc="http://purl.org/dc/elements/1.1/" xmlns:rdf="http://www.w3.org/1999/02/22-rdf-syntax-ns#"><metadata><rdf:RDF><cc:Work rdf:about=""><dc:format>image/svg+xml</dc:format><dc:type rdf:resource="http://purl.org/dc/dcmitype/StillImage"/><dc:title/></cc:Work></rdf:RDF></metadata><g transform="matrix(1.3333 0 0 -1.3333 0 353.21)"><g transform="scale(.1)"><path d="m3238.4 2259.6h370.89v375.17h-370.89v-375.17" fill="#9c9a9b"/><g fill="#192c4a"><path d="m171.11 632.41c0 69.289-42.98 87.07-89.429 87.07h-81.305c1.1836-35.179 1.5625-92.109 1.5625-177.28 0-56.527-0.78125-78.187-1.9375-109.17 5.0391 0.379 9.2891 0.77 15.496 0.77 6.9492 0 11.23-0.391 17.789-0.77-0.7461 20.141-1.1446 44.481-1.1446 66.528 0 22.902-0.7851 43.421-1.164 53.421 0 0 6.5937-0.691 13.941-1.07 18.16-20.91 25.949-30.59 44.891-55.781 23.629-31.359 30.203-39.52 44.543-63.098 0 0 13.16 0.77 20.507 0.77 6.957 0 16.25-0.391 22.469-0.77-10.094 9.61-32.937 40.211-55.762 68.141-18.597 23.187-37.578 44.476-48.796 49.898 5.8203-0.761 11.602-1.14 15.133-1.14 46.825 0 83.207 32.961 83.207 82.48m-29.41 0.379c0-30.207-16.261-58.07-56.89-58.07-9.3125 0-38.758-0.379-54.617-0.758 0.7852 17.398 1.1641 30.91 1.1641 51.051 0 24.41 0 51.886-1.1641 64.32h51.891c39.484 0 59.617-17.094 59.617-56.543"/><path d="m439.26 685.44s-0.379 10.457-0.379 17.399c0 6.64 0 10.082 0.379 16.64 0 0-55.36-0.761-89.809-0.761-29.82 0-38.73 0-76.262 0.761 1.903-40.671 1.903-88.21 1.903-144.37 0-55.398-1.563-142.08-1.563-142.08s52.66 0.77 81.34 0.77c29.031 0 81.66-0.77 81.66-0.77s-0.738 10.059-0.738 16.629c0 6.192 0.738 14.731 0.738 14.731-20.902-0.77-39.468-1.141-64.23-1.141-27.121 0-59.668-0.469-69.297-1.23 1.117 24.421 1.117 34.109 1.117 52.66 0 15.101 0 28.691-1.117 47.218 18.937-0.757 42.176-1.136 69.297-1.136 19.73 0 52.23-1.141 52.23-1.141s-0.738 9.301-0.738 14.719c0 5.422 0.738 14.269 0.738 14.269s-31.34-0.757-50.699-0.757c-27.508 0-50.32 0-70.047-0.762 0.719 19.75 0.719 31.75 0.719 52.262 0 19.007-0.383 32.128-1.5 48.378 32.891-0.761 45.258-0.761 73.898-0.761 24.032 0 43.379-0.379 62.36-1.528"/><path d="m576.98 719.48c-5.84-0.39-10.477-0.39-17.442-0.39-6.976 0-10.808 0-17.805 0.39 0.774-33.269 2.336-100.27 2.336-154.06 0-48.762 0-85.922-0.781-132.4 5.781 0.39 10.43 0.781 17.031 0.781 5.782 0 10.039-0.391 15.09-0.781-0.777 45.25-0.777 83.179-0.777 132.02 0 56.531 1.559 121.17 2.348 154.44"/><path d="m2972.4 719.48c-5.87-0.39-10.45-0.39-17.47-0.39-6.95 0-10.81 0-17.79 0.39 0.76-33.269 2.34-100.27 2.34-154.06 0-48.762 0-85.922-0.8-132.4 5.83 0.39 10.48 0.781 17.05 0.781 5.84 0 10.06-0.391 15.14-0.781-0.8 45.25-0.8 83.179-0.8 132.02 0 56.531 1.53 121.17 2.33 154.44"/><path d="m3309.5 719.48c-4.66-0.39-10.08-0.761-16.64-0.761-7.37 0-12.02 0.371-17.43 0.761 1.18-20.531 2.29-59.601 2.29-101.42 0-54.559-0.73-113.46 3.12-141.7l-1.95-1.14c-15.49 30.613-126.96 207.48-152.53 244.26 0 0-8.88-0.761-14.72-0.761-6.57 0-10.07 0.371-16.63 0.761 1.94-55.332 1.94-86.691 1.94-142.85 0-56.149-0.38-85.527-1.18-143.61 5.04 0.39 10.45 0.781 16.63 0.781 6.26 0 10.84-0.391 17.06-0.781-0.8 40.601-0.8 77-0.8 109.18 0 52.211-1.54 94.41-4.24 129.28 0 0 0.8 0.379 1.94 0.758 20.53-39.828 115.75-183.51 157.94-239.22 5.05 0.39 9.71 0.781 13.98 0.781s6.94-0.391 10.84-0.781c-1.19 44.878-1.19 80.89-1.19 119.58 0 65.078-0.42 98.339 1.57 166.88"/><path d="m3595.8 685.44s-0.41 10.457-0.41 17.399c0 6.64 0 10.082 0.41 16.64 0 0-55.36-0.761-89.85-0.761-29.75 0-38.69 0-76.23 0.761 1.92-40.671 1.92-88.21 1.92-144.37 0-55.398-1.54-142.08-1.54-142.08s52.66 0.77 81.31 0.77c29.03 0 81.64-0.77 81.64-0.77s-0.72 10.059-0.72 16.629c0 6.192 0.72 14.731 0.72 14.731-20.87-0.77-39.44-1.141-64.21-1.141-27.13 0-59.67-0.469-69.32-1.23 1.14 24.421 1.14 34.109 1.14 52.66 0 15.101 0 28.691-1.14 47.218 18.96-0.757 42.19-1.136 69.32-1.136 19.73 0 52.23-1.141 52.23-1.141s-0.72 9.301-0.72 14.719c0 5.422 0.72 14.269 0.72 14.269s-31.31-0.757-50.7-0.757c-27.47 0-50.33 0-70.05-0.762 0.73 19.75 0.73 31.75 0.73 52.262 0 19.007-0.39 32.128-1.53 48.378 32.93-0.761 45.29-0.761 73.99-0.761 23.95 0 43.29-0.379 62.29-1.528"/></g><path d="m1497 893.3v414.03l-728.15 275.97h240.78c149.74 0 267.17 55.8 355.23 167.38 79.32 99.8 117.45 220.21 117.45 367.04 0 140.88-38.13 264.21-117.45 364.04-88.06 108.65-205.49 164.43-355.23 164.43h-995.38v-369.98h930.75c44.023 0 79.313-17.61 102.8-49.92 23.46-29.34 35.23-67.52 35.23-108.57 0-102.8-44.03-155.64-138.03-155.64h-472.68c-146.82 0-261.32-44.08-343.59-135.1-76.317-88.07-114.49-205.51-114.49-352.31v-581.37h381.73v434.54l1101-434.54" fill="#072747"/><path d="m2584.3 893.98v378.76h214.69c93.9 0 170.27 11.72 229.03 35.23 85.12 32.26 143.83 96.85 173.17 196.66 20.56 61.69 29.42 155.66 29.42 276.03v224.6h387.51v-268.62c0-278.96-58.71-484.51-176.15-622.51-126.28-146.82-325.9-220.15-598.96-220.15h-258.71" fill="#9c9a9b"/><path d="m2584.8 893.68v379.34h-203.65c-94.09 0-170.55 11.75-229.34 35.32-85.27 32.25-144.1 96.96-173.48 196.94-20.6 61.77-29.46 155.87-29.46 276.4v867.39h-388.06v-911.5c0-279.33 58.78-485.18 176.39-623.29 126.43-147.12 326.36-220.6 599.84-220.6h247.76" fill="#072747"/><g fill="#192c4a"><path d="m914.01 719.48c-4.649-0.39-10.047-0.761-16.649-0.761-7.339 0-12.004 0.371-17.414 0.761 1.164-20.531 2.344-59.601 2.344-101.42 0-54.559-0.781-113.46 3.066-141.7l-1.949-1.14c-15.457 30.613-126.96 207.48-152.51 244.26 0 0-8.91-0.761-14.722-0.761-6.559 0-10.059 0.371-16.66 0.761 1.964-55.332 1.964-86.691 1.964-142.85 0-56.149-0.39-85.527-1.183-143.61 5.039 0.39 10.48 0.781 16.66 0.781 6.203 0 10.852-0.391 17.012-0.781-0.762 40.601-0.762 77-0.762 109.18 0 52.211-1.519 94.41-4.277 129.28 0 0 0.789 0.379 1.968 0.758 20.497-39.828 115.76-183.51 157.95-239.22 5.031 0.39 9.691 0.781 13.949 0.781 4.25 0 6.937-0.391 10.812-0.781-1.164 44.878-1.164 80.89-1.164 119.58 0 65.078-0.355 98.339 1.563 166.88"/><path d="m1200.4 685.44s-0.4 10.457-0.4 17.399c0 6.64 0 10.082 0.4 16.64 0 0-55.37-0.761-89.83-0.761-29.8 0-38.71 0-76.24 0.761 1.9-40.671 1.9-88.21 1.9-144.37 0-55.398-1.52-142.08-1.52-142.08s52.61 0.77 81.3 0.77c29.02 0 81.68-0.77 81.68-0.77s-0.79 10.059-0.79 16.629c0 6.192 0.79 14.731 0.79 14.731-20.92-0.77-39.49-1.141-64.31-1.141-27.07 0-59.61-0.469-69.26-1.23 1.13 24.421 1.13 34.109 1.13 52.66 0 15.101 0 28.691-1.13 47.218 18.96-0.757 42.19-1.136 69.26-1.136 19.78 0 52.28-1.141 52.28-1.141s-0.77 9.301-0.77 14.719c0 5.422 0.77 14.269 0.77 14.269s-31.33-0.757-50.71-0.757c-27.45 0-50.33 0-70.1-0.762 0.79 19.75 0.79 31.75 0.79 52.262 0 19.007-0.39 32.128-1.52 48.378 32.9-0.761 45.28-0.761 73.92-0.761 24.04 0 43.36-0.379 62.36-1.528"/><path d="m1491.9 632.41c0 69.289-42.98 87.07-89.43 87.07h-81.3c1.18-35.179 1.56-92.109 1.56-177.28 0-56.527-0.78-78.187-1.94-109.17 5.03 0.379 9.28 0.77 15.47 0.77 6.98 0 11.25-0.391 17.81-0.77-0.78 20.141-1.18 44.481-1.18 66.528 0 22.902-0.75 43.421-1.13 53.421 0 0 6.57-0.691 13.91-1.07 18.2-20.91 25.98-30.59 44.92-55.781 23.63-31.359 30.2-39.52 44.55-63.098 0 0 13.16 0.77 20.5 0.77 6.96 0 16.26-0.391 22.47-0.77-10.09 9.61-32.94 40.211-55.75 68.141-18.6 23.187-37.59 44.476-48.8 49.898 5.82-0.761 11.62-1.14 15.13-1.14 46.79 0 83.21 32.961 83.21 82.48m-29.41 0.379c0-30.207-16.26-58.07-56.94-58.07-9.28 0-38.7-0.379-54.57-0.758 0.78 17.398 1.16 30.91 1.16 51.051 0 24.41 0 51.886-1.16 64.32h51.89c39.49 0 59.62-17.094 59.62-56.543"/><path d="m1857.3 465.53c-9.67-1.152-28.27-1.152-53.83-1.152-33.29 0-55.74-0.367-80.53-1.598 0 29.84 0.79 55.02 0.79 90.27 0 65.008 1.18 141.24 1.97 166.5-6.22-0.832-10.48-0.832-17.44-0.832-6.2 0-8.91 0.363-16.29 0.832 1.18-41.52 1.96-103.77 1.96-166.88 0-46.93-0.78-73.18-1.56-119.64 36.01 0.379 52.26 0.77 82.09 0.77 28.63 0 82.46-0.77 82.46-0.77-0.4 8.457-0.4 10.449-0.4 16.25 0 6.938 0 9.61 0.78 16.25"/><path d="m2104.6 685.44s-0.39 10.457-0.39 17.399c0 6.64 0 10.082 0.39 16.64 0 0-55.4-0.761-89.82-0.761-29.83 0-38.76 0-76.3 0.761 1.95-40.671 1.95-88.21 1.95-144.37 0-55.398-1.53-142.08-1.53-142.08s52.61 0.77 81.3 0.77c29 0 81.68-0.77 81.68-0.77s-0.79 10.059-0.79 16.629c0 6.192 0.79 14.731 0.79 14.731-20.9-0.77-39.48-1.141-64.28-1.141-27.09 0-59.64-0.469-69.28-1.23 1.14 24.421 1.14 34.109 1.14 52.66 0 15.101 0 28.691-1.14 47.218 18.92-0.757 42.19-1.136 69.28-1.136 19.76 0 52.27-1.141 52.27-1.141s-0.76 9.301-0.76 14.719c0 5.422 0.76 14.269 0.76 14.269s-31.36-0.757-50.74-0.757c-27.47 0-50.29 0-70.05-0.762 0.76 19.75 0.76 31.75 0.76 52.262 0 19.007-0.38 32.128-1.52 48.378 32.89-0.761 45.24-0.761 73.94-0.761 24 0 43.34-0.379 62.34-1.528"/><path d="m2489.3 433.03c-0.38 35.25-1.52 80.879-1.52 127.73 0 56.16 0 114.23 1.52 158.32-8.08-0.363-10.37-0.363-16.25-0.363-5.42 0-9.27 0.363-14.3 0.761-41.4-83.55-82.07-178.03-109.61-252.8h-1.92c-27.46 73.172-64.63 162.6-109.91 252.8 0 0-9.31-0.761-14.35-0.761-6.56 0-10.03 0-16.25 0.761 0.81-39.07 0.81-98.75 0.81-156.35 0-49.219-0.39-97.207-0.81-130.1 3.85 0.379 10.49 0.77 17.06 0.77 5.8 0 12.36-0.391 15.1-0.77-1.18 27.469-1.18 65.399-1.18 104.54 0 51.418 0 105.29-3.86 139.33h1.54c18.57-63.488 86.3-208.25 104.15-243.87 3.47 0.379 5.04 0.77 8.5 0.77 3.48 0 5.04-0.391 8.52-0.77 17.81 34.867 85.54 178.47 104.15 243.87l1.53-0.386c-3.89-35.25-4.66-90.18-4.66-142.07 0-38.699-0.38-75.472-1.52-101.41 8.55 0.379 11.97 0.77 18.54 0.77 5.03 0 9.69-0.391 14.72-0.77"/><path d="m2831.3 578.15c0 89.442-45.66 145.21-127.01 145.21-81.26 0-126.97-56.539-126.97-145.21 0-89.796 49.56-152.15 126.97-152.15 77.49 0 127.01 62.352 127.01 152.15m-28.99 0.84c0-70.5-34.87-122.01-98.02-122.01-63.06 0-97.9 51.508-97.9 122.01 0 71.961 34.84 111.87 97.9 111.87 63.15 0 98.02-39.91 98.02-111.87"/></g><path d="m35.859 298.65c-5.8906-0.378-10.621-0.378-17.738-0.378-7.0625 0-11.012 0-18.121 0.378 0.78125-33.878 2.3789-102.09 2.3789-156.8 0-49.672 0-87.532-0.77735-134.75 5.8984 0.37891 10.621 0.75782 17.301 0.75782 5.9258 0 10.289-0.37891 15.383-0.75782-0.8125 46.078-0.8125 84.68-0.8125 134.36 0 57.539 1.6054 123.31 2.3867 157.19m335.28 0c-4.727-0.378-10.239-0.757-16.918-0.757-7.5 0-12.231 0.379-17.739 0.757 1.18-20.898 2.348-60.648 2.348-103.23 0-55.563-0.793-115.45 3.16-144.22l-1.937-1.1406c-15.805 31.133-129.24 211.13-155.26 248.59 0 0-9.062-0.757-14.961-0.757-6.687 0-10.238 0.379-16.957 0.757 1.988-56.308 1.988-88.277 1.988-145.35 0-57.16-0.39-87.153-1.211-146.2 5.122 0.37891 10.672 0.75782 16.961 0.75782 6.282 0 11.012-0.37891 17.34-0.75782-0.781 41.34-0.781 78.359-0.781 111.09 0 53.168-1.598 96.141-4.324 131.55 0 0 0.773 0.371 1.945 0.844 20.899-40.594 117.79-186.79 160.75-243.48 5.133 0.37891 9.875 0.75782 14.195 0.75782 4.336 0 7.083-0.37891 11.008-0.75782-1.16 45.699-1.16 82.328-1.16 121.7 0 66.238-0.39 100.11 1.559 169.85m273.04-208.46c0 42.957-25.2 60.668-87.078 74.86-50.825 11.82-61.454 23.269-61.454 50.051 0 33.117 24.02 54.789 67.403 54.789 32.301 0 55.547-5.961 75.64-24.871 1.157 10.671 2.379 20.128 4.7 29.601-15.731 19.301-44.481 27.988-77.61 27.988-61.07 0-100.06-35.089-100.06-85.519 0-40.219 12.633-61.891 89.433-78.828 47.676-10.614 59.118-24.41 59.118-48.832 0-34.738-22.485-54.789-63.45-54.789-28.757 0-56.351 7.9414-72.468 22.508-1.223-11.828-2.004-21.738-4.774-29.598 11.449-12.98 40.602-24.43 74.895-24.43 59.465 0 95.707 38.238 95.707 87.07m281.73 174.58c-0.398 7.859-0.773 11.371-0.773 17.332 0 7.097 0 9.078 0.773 16.546-19.695-0.378-65.789-0.757-107.94-0.757-42.531 0-81.57 0.379-109.56 0.757 1.196-6.707 1.196-9.066 1.196-16.168 0-6.339 0-9.011-0.793-17.71 16.562 1.152 31.132 1.539 44.929 1.539 18.524 0 37.043 0.453 51.598 1.601-2.356-33.89-3.156-78.449-3.156-125.3 0-52.8-0.778-87.078-1.18-135.51 5.52 0.37891 10.25 0.75782 16.559 0.75782 6.296 0 10.25-0.37891 16.152-0.75782-0.391 48.828-1.184 82.707-1.184 135.51 0 46.852-0.781 90.653-3.156 125.3 12.606-1.601 35.078-1.601 50.82-1.601 14.188 0 32.321-0.387 45.715-1.539m115.43 33.878c-5.89-0.378-10.62-0.378-17.71-0.378-7.08 0-11.04 0-18.15 0.378 0.79-33.878 2.39-102.09 2.39-156.8 0-49.672 0-87.532-0.78-134.75 5.89 0.37891 10.62 0.75782 17.32 0.75782 5.93 0 10.26-0.37891 15.37-0.75782-0.78 46.078-0.78 84.68-0.78 134.36 0 57.539 1.56 123.31 2.34 157.19m296.7-33.878c-0.41 7.859-0.78 11.371-0.78 17.332 0 7.097 0 9.078 0.78 16.546-19.68-0.378-65.8-0.757-107.96-0.757-42.54 0-81.57 0.379-109.53 0.757 1.2-6.707 1.2-9.066 1.2-16.168 0-6.339 0-9.011-0.82-17.71 16.58 1.152 31.14 1.539 44.93 1.539 18.52 0 37.05 0.453 51.62 1.601-2.35-33.89-3.17-78.449-3.17-125.3 0-52.8-0.78-87.078-1.18-135.51 5.51 0.37891 10.24 0.75782 16.57 0.75782 6.28 0 10.23-0.37891 16.15-0.75782-0.41 48.828-1.19 82.707-1.19 135.51 0 46.852-0.78 90.653-3.17 125.3 12.63-1.601 35.09-1.601 50.84-1.601 14.18 0 32.29-0.387 45.71-1.539m290.77 33.878c-5.88-0.378-10.22-0.757-16.55-0.757-6.68 0-10.24 0.379-16.92 0.757 1.56-35.097 1.94-137.96 1.94-170.23 0-67.762-23.23-96.91-78.78-96.91-55.16 0-78.81 29.148-78.81 96.91 0 65.387 0.78 141.47 1.95 170.23 0 0-9.06-0.757-14.57-0.757-7.06 0-11.41 0-18.91 0.757 1.16-33.878 1.98-104.07 1.98-171.38 0-74.469 32.32-127.27 108.36-127.27 75.64 0 108.33 52.801 108.33 127.27 0 67.312 0.82 137.12 1.98 171.38m286.86-33.878c-0.42 7.859-0.81 11.371-0.81 17.332 0 7.097 0 9.078 0.81 16.546-19.73-0.378-65.8-0.757-107.96-0.757-42.58 0-81.56 0.379-109.55 0.757 1.18-6.707 1.18-9.066 1.18-16.168 0-6.339 0-9.011-0.78-17.71 16.51 1.152 31.13 1.539 44.88 1.539 18.53 0 37.03 0.453 51.64 1.601-2.38-33.89-3.14-78.449-3.14-125.3 0-52.8-0.78-87.078-1.18-135.51 5.51 0.37891 10.24 0.75782 16.51 0.75782 6.34 0 10.28-0.37891 16.18-0.75782-0.38 48.828-1.16 82.707-1.16 135.51 0 46.852-0.82 90.653-3.17 125.3 12.61-1.601 35.05-1.601 50.82-1.601 14.18 0 32.33-0.387 45.73-1.539" fill="#9c9a9b"/></g></g></svg>
